<mxfile host="Electron" modified="2024-05-05T13:04:37.151Z" agent="Mozilla/5.0 (Macintosh; Intel Mac OS X 10_15_7) AppleWebKit/537.36 (KHTML, like Gecko) draw.io/24.1.0 Chrome/120.0.6099.109 Electron/28.1.0 Safari/537.36" etag="I2AvmhyrsnvQqweM0tbW" version="24.1.0" type="device" pages="6">
  <diagram id="QdtzB1-yVZnQ2-44isdV" name="第 1 页">
    <mxGraphModel dx="954" dy="659" grid="1" gridSize="10" guides="1" tooltips="1" connect="1" arrows="1" fold="1" page="1" pageScale="1" pageWidth="827" pageHeight="1169" math="0" shadow="0">
      <root>
        <mxCell id="0" />
        <mxCell id="1" parent="0" />
        <mxCell id="yzGrq-KEkqZFvqPglRfG-1" value="RestApi(Actor)" style="rounded=0;whiteSpace=wrap;html=1;" parent="1" vertex="1">
          <mxGeometry x="120" y="120" width="120" height="60" as="geometry" />
        </mxCell>
        <mxCell id="yzGrq-KEkqZFvqPglRfG-3" value="BoxOffice" style="rounded=0;whiteSpace=wrap;html=1;" parent="1" vertex="1">
          <mxGeometry x="120" y="270" width="120" height="60" as="geometry" />
        </mxCell>
        <mxCell id="mO8PsYeswwl-MyHpv8Pa-1" value="RestApi从JSON请求&lt;br style=&quot;border-color: var(--border-color); text-align: left;&quot;&gt;&lt;span style=&quot;text-align: left;&quot;&gt;创建TicketRequest&lt;/span&gt;&lt;br style=&quot;border-color: var(--border-color); text-align: left;&quot;&gt;&lt;span style=&quot;text-align: left;&quot;&gt;并把它发给BoxOffice&lt;/span&gt;" style="text;html=1;strokeColor=none;fillColor=none;align=center;verticalAlign=middle;whiteSpace=wrap;rounded=0;" parent="1" vertex="1">
          <mxGeometry x="250" y="120" width="130" height="55" as="geometry" />
        </mxCell>
        <mxCell id="mO8PsYeswwl-MyHpv8Pa-2" value="BoxOffice找到名为”RHCP“的子Actor，&lt;br style=&quot;border-color: var(--border-color);&quot;&gt;&lt;span style=&quot;&quot;&gt;把购买消息发送给它。&lt;/span&gt;&lt;br style=&quot;border-color: var(--border-color);&quot;&gt;&lt;span style=&quot;&quot;&gt;消息的发送者从TicketSeller来看是RestApi&lt;/span&gt;" style="text;html=1;strokeColor=none;fillColor=none;align=left;verticalAlign=middle;whiteSpace=wrap;rounded=0;" parent="1" vertex="1">
          <mxGeometry x="250" y="270" width="250" height="80" as="geometry" />
        </mxCell>
      </root>
    </mxGraphModel>
  </diagram>
  <diagram id="lHQM6l09IXDPQYLzOYZr" name="思路整理">
    <mxGraphModel dx="1050" dy="229" grid="1" gridSize="10" guides="1" tooltips="1" connect="1" arrows="1" fold="1" page="0" pageScale="1" pageWidth="827" pageHeight="1169" math="0" shadow="0">
      <root>
        <mxCell id="0" />
        <mxCell id="1" parent="0" />
        <mxCell id="jNkwtZ25jCe6XWs4pB3f-2" value="Main" style="rounded=0;whiteSpace=wrap;html=1;sketch=1;curveFitting=1;jiggle=2;fontSize=13;fontFamily=Lucida Console;" parent="1" vertex="1">
          <mxGeometry x="40" y="690" width="120" height="60" as="geometry" />
        </mxCell>
        <mxCell id="jNkwtZ25jCe6XWs4pB3f-3" value="BoxOffice" style="rounded=0;whiteSpace=wrap;html=1;sketch=1;curveFitting=1;jiggle=2;fontSize=13;fontFamily=Lucida Console;" parent="1" vertex="1">
          <mxGeometry x="250" y="690" width="120" height="60" as="geometry" />
        </mxCell>
        <mxCell id="jNkwtZ25jCe6XWs4pB3f-4" value="EventMarshalling" style="rounded=0;whiteSpace=wrap;html=1;sketch=1;curveFitting=1;jiggle=2;fontSize=13;fontFamily=Lucida Console;" parent="1" vertex="1">
          <mxGeometry x="450" y="690" width="120" height="60" as="geometry" />
        </mxCell>
        <mxCell id="jNkwtZ25jCe6XWs4pB3f-5" value="RestApi" style="rounded=0;whiteSpace=wrap;html=1;sketch=1;curveFitting=1;jiggle=2;fontSize=13;fontFamily=Lucida Console;" parent="1" vertex="1">
          <mxGeometry x="670" y="1050" width="120" height="60" as="geometry" />
        </mxCell>
        <mxCell id="jNkwtZ25jCe6XWs4pB3f-6" value="TicketSeller" style="rounded=0;whiteSpace=wrap;html=1;sketch=1;curveFitting=1;jiggle=2;fontSize=13;fontFamily=Lucida Console;" parent="1" vertex="1">
          <mxGeometry x="850" y="690" width="120" height="60" as="geometry" />
        </mxCell>
        <mxCell id="jNkwtZ25jCe6XWs4pB3f-7" value="读取 application.conf配置文件" style="rounded=0;whiteSpace=wrap;html=1;sketch=1;curveFitting=1;jiggle=2;fontSize=13;fontFamily=Lucida Console;" parent="1" vertex="1">
          <mxGeometry x="40" y="820" width="120" height="60" as="geometry" />
        </mxCell>
        <mxCell id="jNkwtZ25jCe6XWs4pB3f-8" value="创建 ActorSystem()" style="rounded=0;whiteSpace=wrap;html=1;sketch=1;curveFitting=1;jiggle=2;fontSize=13;fontFamily=Lucida Console;" parent="1" vertex="1">
          <mxGeometry x="40" y="940" width="120" height="60" as="geometry" />
        </mxCell>
        <mxCell id="jNkwtZ25jCe6XWs4pB3f-9" value="创建 RestApi定义超时时间和HTTP路由信息" style="rounded=0;whiteSpace=wrap;html=1;sketch=1;curveFitting=1;jiggle=2;fontSize=13;fontFamily=Lucida Console;" parent="1" vertex="1">
          <mxGeometry x="40" y="1060" width="120" height="60" as="geometry" />
        </mxCell>
        <mxCell id="jNkwtZ25jCe6XWs4pB3f-10" value="route使用方便的DSL定义（DSL由Akka的akka-http模块提供。）" style="rounded=0;whiteSpace=wrap;html=1;sketch=1;curveFitting=1;jiggle=2;fontSize=13;fontFamily=Lucida Console;" parent="1" vertex="1">
          <mxGeometry x="225" y="1060" width="170" height="60" as="geometry" />
        </mxCell>
        <mxCell id="jNkwtZ25jCe6XWs4pB3f-11" value="" style="endArrow=classic;html=1;rounded=0;entryX=0;entryY=0.5;entryDx=0;entryDy=0;sketch=1;curveFitting=1;jiggle=2;fontSize=13;fontFamily=Lucida Console;" parent="1" target="jNkwtZ25jCe6XWs4pB3f-10" edge="1">
          <mxGeometry width="50" height="50" relative="1" as="geometry">
            <mxPoint x="170" y="1090" as="sourcePoint" />
            <mxPoint x="210" y="1140" as="targetPoint" />
          </mxGeometry>
        </mxCell>
        <mxCell id="jNkwtZ25jCe6XWs4pB3f-12" value="负责JSON转换和所需的HTTP响应" style="rounded=0;whiteSpace=wrap;html=1;sketch=1;curveFitting=1;jiggle=2;fontSize=13;fontFamily=Lucida Console;" parent="1" vertex="1">
          <mxGeometry x="225" y="1160" width="165" height="60" as="geometry" />
        </mxCell>
        <mxCell id="jNkwtZ25jCe6XWs4pB3f-13" value="" style="endArrow=classic;html=1;rounded=0;sketch=1;curveFitting=1;jiggle=2;fontSize=13;fontFamily=Lucida Console;" parent="1" edge="1">
          <mxGeometry width="50" height="50" relative="1" as="geometry">
            <mxPoint x="170" y="1130" as="sourcePoint" />
            <mxPoint x="220" y="1180" as="targetPoint" />
          </mxGeometry>
        </mxCell>
        <mxCell id="jNkwtZ25jCe6XWs4pB3f-15" value="Get /events" style="rounded=0;whiteSpace=wrap;html=1;fontSize=13;sketch=1;curveFitting=1;jiggle=2;fontFamily=Lucida Console;" parent="1" vertex="1">
          <mxGeometry x="740" y="1130" width="190" height="60" as="geometry" />
        </mxCell>
        <mxCell id="jNkwtZ25jCe6XWs4pB3f-16" value="Post /events/Segment" style="rounded=0;whiteSpace=wrap;html=1;fontSize=13;sketch=1;curveFitting=1;jiggle=2;fontFamily=Lucida Console;" parent="1" vertex="1">
          <mxGeometry x="740" y="1210" width="190" height="60" as="geometry" />
        </mxCell>
        <mxCell id="jNkwtZ25jCe6XWs4pB3f-17" value="Post events/Segment/tickets" style="rounded=0;whiteSpace=wrap;html=1;fontSize=13;sketch=1;curveFitting=1;jiggle=2;fontFamily=Lucida Console;" parent="1" vertex="1">
          <mxGeometry x="740" y="1450" width="190" height="60" as="geometry" />
        </mxCell>
        <mxCell id="jNkwtZ25jCe6XWs4pB3f-18" value="&lt;b&gt;Trait&lt;/b&gt; BoxOfficeApi" style="rounded=0;whiteSpace=wrap;html=1;sketch=1;curveFitting=1;jiggle=2;fontSize=13;fontFamily=Lucida Console;" parent="1" vertex="1">
          <mxGeometry x="1030" y="1050" width="120" height="60" as="geometry" />
        </mxCell>
        <mxCell id="jNkwtZ25jCe6XWs4pB3f-19" value="getEvents()" style="rounded=0;whiteSpace=wrap;html=1;fontSize=13;sketch=1;curveFitting=1;jiggle=2;fontFamily=Lucida Console;" parent="1" vertex="1">
          <mxGeometry x="1110" y="1130" width="190" height="60" as="geometry" />
        </mxCell>
        <mxCell id="jNkwtZ25jCe6XWs4pB3f-20" value="createEvent" style="rounded=0;whiteSpace=wrap;html=1;fontSize=13;sketch=1;curveFitting=1;jiggle=2;fontFamily=Lucida Console;" parent="1" vertex="1">
          <mxGeometry x="1110" y="1210" width="190" height="60" as="geometry" />
        </mxCell>
        <mxCell id="jNkwtZ25jCe6XWs4pB3f-21" value="getEvents(event)" style="rounded=0;whiteSpace=wrap;html=1;fontSize=13;sketch=1;curveFitting=1;jiggle=2;fontFamily=Lucida Console;" parent="1" vertex="1">
          <mxGeometry x="1110" y="1290" width="190" height="60" as="geometry" />
        </mxCell>
        <mxCell id="jNkwtZ25jCe6XWs4pB3f-22" value="Get /events/Segment" style="rounded=0;whiteSpace=wrap;html=1;fontSize=13;sketch=1;curveFitting=1;jiggle=2;fontFamily=Lucida Console;" parent="1" vertex="1">
          <mxGeometry x="740" y="1290" width="190" height="60" as="geometry" />
        </mxCell>
        <mxCell id="jNkwtZ25jCe6XWs4pB3f-23" value="Delete /events/Segment" style="rounded=0;whiteSpace=wrap;html=1;fontSize=13;sketch=1;curveFitting=1;jiggle=2;fontFamily=Lucida Console;" parent="1" vertex="1">
          <mxGeometry x="740" y="1370" width="190" height="60" as="geometry" />
        </mxCell>
        <mxCell id="jNkwtZ25jCe6XWs4pB3f-24" value="cancelEvent(event)" style="rounded=0;whiteSpace=wrap;html=1;fontSize=13;sketch=1;curveFitting=1;jiggle=2;fontFamily=Lucida Console;" parent="1" vertex="1">
          <mxGeometry x="1110" y="1370" width="190" height="60" as="geometry" />
        </mxCell>
        <mxCell id="jNkwtZ25jCe6XWs4pB3f-25" value="requestTickets(event,tickets)" style="rounded=0;whiteSpace=wrap;html=1;fontSize=13;sketch=1;curveFitting=1;jiggle=2;fontFamily=Lucida Console;" parent="1" vertex="1">
          <mxGeometry x="1110" y="1450" width="190" height="60" as="geometry" />
        </mxCell>
        <mxCell id="jNkwtZ25jCe6XWs4pB3f-26" value="&lt;b&gt;Actor&lt;/b&gt;&amp;nbsp;boxOffice" style="rounded=0;whiteSpace=wrap;html=1;sketch=1;curveFitting=1;jiggle=2;fillColor=#d5e8d4;strokeColor=#82b366;fontFamily=Lucida Console;" parent="1" vertex="1">
          <mxGeometry x="1410" y="1050" width="110" height="70" as="geometry" />
        </mxCell>
        <mxCell id="jNkwtZ25jCe6XWs4pB3f-29" value="createBoxOffice()" style="text;html=1;strokeColor=#82b366;fillColor=#d5e8d4;align=center;verticalAlign=middle;whiteSpace=wrap;rounded=0;fontStyle=1;sketch=1;curveFitting=1;jiggle=2;fontSize=15;fontFamily=Lucida Console;" parent="1" vertex="1">
          <mxGeometry x="960" y="955" width="190" height="30" as="geometry" />
        </mxCell>
        <mxCell id="jNkwtZ25jCe6XWs4pB3f-31" value="Main" style="rounded=0;whiteSpace=wrap;html=1;sketch=1;curveFitting=1;jiggle=2;fontFamily=Lucida Console;" parent="1" vertex="1">
          <mxGeometry x="480" y="1260" width="120" height="60" as="geometry" />
        </mxCell>
        <mxCell id="jNkwtZ25jCe6XWs4pB3f-32" value="" style="endArrow=classic;html=1;rounded=0;sketch=1;curveFitting=1;jiggle=2;fontFamily=Lucida Console;" parent="1" edge="1">
          <mxGeometry width="50" height="50" relative="1" as="geometry">
            <mxPoint x="610" y="1290" as="sourcePoint" />
            <mxPoint x="720" y="1290" as="targetPoint" />
          </mxGeometry>
        </mxCell>
        <mxCell id="jNkwtZ25jCe6XWs4pB3f-33" value="ActorSystem()" style="text;html=1;strokeColor=#82b366;fillColor=#d5e8d4;align=center;verticalAlign=middle;whiteSpace=wrap;rounded=0;sketch=1;curveFitting=1;jiggle=2;fontFamily=Lucida Console;" parent="1" vertex="1">
          <mxGeometry x="610" y="1250" width="100" height="30" as="geometry" />
        </mxCell>
        <mxCell id="jNkwtZ25jCe6XWs4pB3f-35" value="&lt;b&gt;system&lt;/b&gt;" style="rounded=0;whiteSpace=wrap;html=1;sketch=1;curveFitting=1;jiggle=2;fillColor=#d5e8d4;strokeColor=#82b366;fontFamily=Lucida Console;" parent="1" vertex="1">
          <mxGeometry x="855" y="1045" width="110" height="70" as="geometry" />
        </mxCell>
        <mxCell id="jNkwtZ25jCe6XWs4pB3f-36" value="" style="endArrow=classic;html=1;rounded=0;entryX=0.381;entryY=0.993;entryDx=0;entryDy=0;entryPerimeter=0;sketch=1;curveFitting=1;jiggle=2;fontFamily=Lucida Console;" parent="1" target="jNkwtZ25jCe6XWs4pB3f-29" edge="1">
          <mxGeometry width="50" height="50" relative="1" as="geometry">
            <mxPoint x="940" y="1040" as="sourcePoint" />
            <mxPoint x="990" y="985" as="targetPoint" />
          </mxGeometry>
        </mxCell>
        <mxCell id="jNkwtZ25jCe6XWs4pB3f-38" value="" style="endArrow=classic;html=1;rounded=0;exitX=0.627;exitY=1.127;exitDx=0;exitDy=0;exitPerimeter=0;entryX=0;entryY=0;entryDx=0;entryDy=0;sketch=1;curveFitting=1;jiggle=2;fontFamily=Lucida Console;" parent="1" source="jNkwtZ25jCe6XWs4pB3f-29" target="jNkwtZ25jCe6XWs4pB3f-26" edge="1">
          <mxGeometry width="50" height="50" relative="1" as="geometry">
            <mxPoint x="950" y="1050" as="sourcePoint" />
            <mxPoint x="1400" y="1060" as="targetPoint" />
          </mxGeometry>
        </mxCell>
        <mxCell id="jNkwtZ25jCe6XWs4pB3f-39" value="" style="endArrow=classic;html=1;rounded=0;sketch=1;curveFitting=1;jiggle=2;fontFamily=Lucida Console;" parent="1" edge="1">
          <mxGeometry width="50" height="50" relative="1" as="geometry">
            <mxPoint x="950" y="1160" as="sourcePoint" />
            <mxPoint x="1100" y="1160" as="targetPoint" />
          </mxGeometry>
        </mxCell>
        <mxCell id="jNkwtZ25jCe6XWs4pB3f-40" value="" style="endArrow=classic;html=1;rounded=0;sketch=1;curveFitting=1;jiggle=2;fontFamily=Lucida Console;" parent="1" edge="1">
          <mxGeometry width="50" height="50" relative="1" as="geometry">
            <mxPoint x="950" y="1239.5" as="sourcePoint" />
            <mxPoint x="1100" y="1239.5" as="targetPoint" />
          </mxGeometry>
        </mxCell>
        <mxCell id="jNkwtZ25jCe6XWs4pB3f-41" value="" style="endArrow=classic;html=1;rounded=0;sketch=1;curveFitting=1;jiggle=2;fontFamily=Lucida Console;" parent="1" edge="1">
          <mxGeometry width="50" height="50" relative="1" as="geometry">
            <mxPoint x="950" y="1320" as="sourcePoint" />
            <mxPoint x="1100" y="1320" as="targetPoint" />
          </mxGeometry>
        </mxCell>
        <mxCell id="jNkwtZ25jCe6XWs4pB3f-42" value="" style="endArrow=classic;html=1;rounded=0;sketch=1;curveFitting=1;jiggle=2;fontFamily=Lucida Console;" parent="1" edge="1">
          <mxGeometry width="50" height="50" relative="1" as="geometry">
            <mxPoint x="950" y="1399.5" as="sourcePoint" />
            <mxPoint x="1100" y="1399.5" as="targetPoint" />
          </mxGeometry>
        </mxCell>
        <mxCell id="jNkwtZ25jCe6XWs4pB3f-43" value="" style="endArrow=classic;html=1;rounded=0;sketch=1;curveFitting=1;jiggle=2;fontFamily=Lucida Console;" parent="1" edge="1">
          <mxGeometry width="50" height="50" relative="1" as="geometry">
            <mxPoint x="950" y="1479.5" as="sourcePoint" />
            <mxPoint x="1100" y="1479.5" as="targetPoint" />
          </mxGeometry>
        </mxCell>
        <mxCell id="jNkwtZ25jCe6XWs4pB3f-44" value="" style="endArrow=classic;html=1;rounded=0;sketch=1;curveFitting=1;jiggle=2;fontFamily=Lucida Console;" parent="1" edge="1">
          <mxGeometry width="50" height="50" relative="1" as="geometry">
            <mxPoint x="1310" y="1165" as="sourcePoint" />
            <mxPoint x="1440" y="1130" as="targetPoint" />
          </mxGeometry>
        </mxCell>
        <mxCell id="jNkwtZ25jCe6XWs4pB3f-45" value="" style="endArrow=classic;html=1;rounded=0;sketch=1;curveFitting=1;jiggle=2;fontFamily=Lucida Console;" parent="1" edge="1">
          <mxGeometry width="50" height="50" relative="1" as="geometry">
            <mxPoint x="1310" y="1240" as="sourcePoint" />
            <mxPoint x="1460" y="1130" as="targetPoint" />
          </mxGeometry>
        </mxCell>
        <mxCell id="jNkwtZ25jCe6XWs4pB3f-46" value="" style="endArrow=classic;html=1;rounded=0;sketch=1;curveFitting=1;jiggle=2;fontFamily=Lucida Console;" parent="1" edge="1">
          <mxGeometry width="50" height="50" relative="1" as="geometry">
            <mxPoint x="1310" y="1325" as="sourcePoint" />
            <mxPoint x="1480" y="1130" as="targetPoint" />
          </mxGeometry>
        </mxCell>
        <mxCell id="jNkwtZ25jCe6XWs4pB3f-47" value="" style="endArrow=classic;html=1;rounded=0;sketch=1;curveFitting=1;jiggle=2;fontFamily=Lucida Console;" parent="1" edge="1">
          <mxGeometry width="50" height="50" relative="1" as="geometry">
            <mxPoint x="1310" y="1400" as="sourcePoint" />
            <mxPoint x="1490" y="1130" as="targetPoint" />
          </mxGeometry>
        </mxCell>
        <mxCell id="jNkwtZ25jCe6XWs4pB3f-48" value="" style="endArrow=classic;html=1;rounded=0;sketch=1;curveFitting=1;jiggle=2;fontFamily=Lucida Console;" parent="1" edge="1">
          <mxGeometry width="50" height="50" relative="1" as="geometry">
            <mxPoint x="1310" y="1480" as="sourcePoint" />
            <mxPoint x="1510" y="1130" as="targetPoint" />
          </mxGeometry>
        </mxCell>
        <mxCell id="jNkwtZ25jCe6XWs4pB3f-49" value="&lt;b&gt;Class&lt;/b&gt; BoxOffice" style="rounded=0;whiteSpace=wrap;html=1;sketch=1;curveFitting=1;jiggle=2;fontSize=13;fontFamily=Lucida Console;" parent="1" vertex="1">
          <mxGeometry x="1530" y="880" width="120" height="65" as="geometry" />
        </mxCell>
        <mxCell id="jNkwtZ25jCe6XWs4pB3f-50" value="Extends" style="endArrow=block;endSize=16;endFill=0;html=1;rounded=0;fontFamily=Lucida Console;sketch=1;curveFitting=1;jiggle=2;" parent="1" edge="1">
          <mxGeometry width="160" relative="1" as="geometry">
            <mxPoint x="1660" y="914" as="sourcePoint" />
            <mxPoint x="1750" y="914.5" as="targetPoint" />
          </mxGeometry>
        </mxCell>
        <mxCell id="jNkwtZ25jCe6XWs4pB3f-51" value="&lt;b&gt;Actor&lt;/b&gt;" style="rounded=0;whiteSpace=wrap;html=1;sketch=1;curveFitting=1;jiggle=2;fontSize=13;fillColor=#d5e8d4;strokeColor=#82b366;fontFamily=Lucida Console;" parent="1" vertex="1">
          <mxGeometry x="1762" y="880" width="120" height="65" as="geometry" />
        </mxCell>
        <mxCell id="jNkwtZ25jCe6XWs4pB3f-52" value="" style="endArrow=classic;html=1;rounded=0;fontFamily=Lucida Console;sketch=1;curveFitting=1;jiggle=2;" parent="1" edge="1">
          <mxGeometry width="50" height="50" relative="1" as="geometry">
            <mxPoint x="1530" y="1090" as="sourcePoint" />
            <mxPoint x="1600" y="970" as="targetPoint" />
          </mxGeometry>
        </mxCell>
        <mxCell id="jNkwtZ25jCe6XWs4pB3f-53" value="利用 &lt;b&gt;Object&lt;/b&gt; BoxOffice 伴生类 + 样例类 构造消息类型" style="text;html=1;strokeColor=none;fillColor=default;align=center;verticalAlign=middle;whiteSpace=wrap;rounded=0;fontSize=13;fontFamily=Lucida Console;sketch=1;curveFitting=1;jiggle=2;" parent="1" vertex="1">
          <mxGeometry x="1540" y="1000" width="190" height="30" as="geometry" />
        </mxCell>
        <mxCell id="jNkwtZ25jCe6XWs4pB3f-54" value="&lt;b&gt;Actor&lt;/b&gt; TicketSeller" style="rounded=0;whiteSpace=wrap;html=1;sketch=1;curveFitting=1;jiggle=2;fontSize=13;fontFamily=Lucida Console;fillColor=#ffe6cc;strokeColor=#d79b00;" parent="1" vertex="1">
          <mxGeometry x="1800" y="1190" width="170" height="50" as="geometry" />
        </mxCell>
        <mxCell id="jNkwtZ25jCe6XWs4pB3f-55" value="" style="endArrow=classic;html=1;rounded=0;fontFamily=Lucida Console;sketch=1;curveFitting=1;jiggle=2;" parent="1" edge="1">
          <mxGeometry width="50" height="50" relative="1" as="geometry">
            <mxPoint x="1530" y="1120" as="sourcePoint" />
            <mxPoint x="1770" y="1220" as="targetPoint" />
          </mxGeometry>
        </mxCell>
        <mxCell id="jNkwtZ25jCe6XWs4pB3f-56" value="boxOffice 会为每个 event（票）创建一个TicketSeller Actor" style="text;html=1;strokeColor=none;fillColor=default;align=center;verticalAlign=middle;whiteSpace=wrap;rounded=0;fontSize=13;fontFamily=Lucida Console;sketch=1;curveFitting=1;jiggle=2;" parent="1" vertex="1">
          <mxGeometry x="1550" y="1130" width="370" height="30" as="geometry" />
        </mxCell>
        <mxCell id="jNkwtZ25jCe6XWs4pB3f-58" value="" style="endArrow=classic;html=1;rounded=0;fillColor=#f8cecc;strokeColor=#b85450;sketch=1;curveFitting=1;jiggle=2;" parent="1" edge="1">
          <mxGeometry width="50" height="50" relative="1" as="geometry">
            <mxPoint x="1780" y="1315" as="sourcePoint" />
            <mxPoint x="1630" y="1440" as="targetPoint" />
          </mxGeometry>
        </mxCell>
        <mxCell id="jNkwtZ25jCe6XWs4pB3f-59" value="" style="endArrow=classic;html=1;rounded=0;fillColor=#f8cecc;strokeColor=#b85450;sketch=1;curveFitting=1;jiggle=2;" parent="1" edge="1">
          <mxGeometry width="50" height="50" relative="1" as="geometry">
            <mxPoint x="1770" y="1260" as="sourcePoint" />
            <mxPoint x="1530" y="1150" as="targetPoint" />
          </mxGeometry>
        </mxCell>
        <mxCell id="jNkwtZ25jCe6XWs4pB3f-60" value="return" style="text;html=1;strokeColor=none;fillColor=none;align=center;verticalAlign=middle;whiteSpace=wrap;rounded=0;fontFamily=Lucida Console;fontSize=13;fontStyle=1" parent="1" vertex="1">
          <mxGeometry x="1590" y="1190" width="60" height="30" as="geometry" />
        </mxCell>
        <mxCell id="jNkwtZ25jCe6XWs4pB3f-61" value="return" style="text;html=1;strokeColor=none;fillColor=none;align=center;verticalAlign=middle;whiteSpace=wrap;rounded=0;fontFamily=Lucida Console;fontSize=13;fontStyle=1" parent="1" vertex="1">
          <mxGeometry x="1600" y="1370" width="160" height="30" as="geometry" />
        </mxCell>
        <mxCell id="jNkwtZ25jCe6XWs4pB3f-62" value="&lt;b&gt;Actor&lt;/b&gt; TicketSeller" style="rounded=0;whiteSpace=wrap;html=1;sketch=1;curveFitting=1;jiggle=2;fontSize=13;fontFamily=Lucida Console;fillColor=#ffe6cc;strokeColor=#d79b00;" parent="1" vertex="1">
          <mxGeometry x="1800" y="1270" width="170" height="50" as="geometry" />
        </mxCell>
        <mxCell id="jNkwtZ25jCe6XWs4pB3f-63" value="&lt;b&gt;Actor&lt;/b&gt; TicketSeller" style="rounded=0;whiteSpace=wrap;html=1;sketch=1;curveFitting=1;jiggle=2;fontSize=13;fontFamily=Lucida Console;fillColor=#ffe6cc;strokeColor=#d79b00;" parent="1" vertex="1">
          <mxGeometry x="1800" y="1350" width="170" height="50" as="geometry" />
        </mxCell>
      </root>
    </mxGraphModel>
  </diagram>
  <diagram id="7pjMKIgsrT717uUX_Z2q" name="分发-收集模式">
    <mxGraphModel dx="1050" dy="629" grid="1" gridSize="10" guides="1" tooltips="1" connect="1" arrows="1" fold="1" page="1" pageScale="1" pageWidth="827" pageHeight="1169" math="0" shadow="0">
      <root>
        <mxCell id="0" />
        <mxCell id="1" parent="0" />
        <mxCell id="jL8pIOmJgS9LUeVNXqOg-1" value="message" style="rounded=0;whiteSpace=wrap;html=1;sketch=1;curveFitting=1;jiggle=2;fontSize=14;fontFamily=Lucida Console;" parent="1" vertex="1">
          <mxGeometry x="100" y="280" width="120" height="60" as="geometry" />
        </mxCell>
        <mxCell id="jL8pIOmJgS9LUeVNXqOg-2" value="接受者列表" style="rounded=0;whiteSpace=wrap;html=1;sketch=1;curveFitting=1;jiggle=2;fontSize=14;fontFamily=Lucida Console;" parent="1" vertex="1">
          <mxGeometry x="330" y="280" width="120" height="60" as="geometry" />
        </mxCell>
        <mxCell id="jL8pIOmJgS9LUeVNXqOg-3" value="handler01" style="rounded=0;whiteSpace=wrap;html=1;sketch=1;curveFitting=1;jiggle=2;fontSize=14;fontFamily=Lucida Console;" parent="1" vertex="1">
          <mxGeometry x="580" y="200" width="120" height="60" as="geometry" />
        </mxCell>
        <mxCell id="jL8pIOmJgS9LUeVNXqOg-4" value="handler02" style="rounded=0;whiteSpace=wrap;html=1;sketch=1;curveFitting=1;jiggle=2;fontSize=14;fontFamily=Lucida Console;" parent="1" vertex="1">
          <mxGeometry x="580" y="380" width="120" height="60" as="geometry" />
        </mxCell>
        <mxCell id="jL8pIOmJgS9LUeVNXqOg-5" value="收集器" style="rounded=0;whiteSpace=wrap;html=1;sketch=1;curveFitting=1;jiggle=2;fontSize=14;fontFamily=Lucida Console;" parent="1" vertex="1">
          <mxGeometry x="820" y="280" width="120" height="60" as="geometry" />
        </mxCell>
        <mxCell id="jL8pIOmJgS9LUeVNXqOg-6" value="" style="endArrow=classic;html=1;rounded=0;fontSize=14;fontFamily=Lucida Console;" parent="1" edge="1">
          <mxGeometry width="50" height="50" relative="1" as="geometry">
            <mxPoint x="240" y="309.5" as="sourcePoint" />
            <mxPoint x="310" y="309.5" as="targetPoint" />
          </mxGeometry>
        </mxCell>
        <mxCell id="jL8pIOmJgS9LUeVNXqOg-7" value="" style="endArrow=classic;html=1;rounded=0;fontSize=14;fontFamily=Lucida Console;" parent="1" edge="1">
          <mxGeometry width="50" height="50" relative="1" as="geometry">
            <mxPoint x="460" y="309.5" as="sourcePoint" />
            <mxPoint x="570" y="240" as="targetPoint" />
          </mxGeometry>
        </mxCell>
        <mxCell id="jL8pIOmJgS9LUeVNXqOg-8" value="" style="endArrow=classic;html=1;rounded=0;fontSize=14;fontFamily=Lucida Console;" parent="1" edge="1">
          <mxGeometry width="50" height="50" relative="1" as="geometry">
            <mxPoint x="460" y="320" as="sourcePoint" />
            <mxPoint x="570" y="410" as="targetPoint" />
          </mxGeometry>
        </mxCell>
        <mxCell id="jL8pIOmJgS9LUeVNXqOg-9" value="" style="endArrow=classic;html=1;rounded=0;fontSize=14;fontFamily=Lucida Console;" parent="1" edge="1">
          <mxGeometry width="50" height="50" relative="1" as="geometry">
            <mxPoint x="810" y="310" as="sourcePoint" />
            <mxPoint x="710" y="240" as="targetPoint" />
          </mxGeometry>
        </mxCell>
        <mxCell id="jL8pIOmJgS9LUeVNXqOg-10" value="" style="endArrow=classic;html=1;rounded=0;fontSize=14;fontFamily=Lucida Console;" parent="1" edge="1">
          <mxGeometry width="50" height="50" relative="1" as="geometry">
            <mxPoint x="810" y="330" as="sourcePoint" />
            <mxPoint x="710" y="400" as="targetPoint" />
          </mxGeometry>
        </mxCell>
      </root>
    </mxGraphModel>
  </diagram>
  <diagram id="hgr2stCyfylvZdq9FF4F" name="Actor生命周期">
    <mxGraphModel dx="1436" dy="1014" grid="1" gridSize="10" guides="1" tooltips="1" connect="1" arrows="1" fold="1" page="0" pageScale="1" pageWidth="827" pageHeight="1169" math="0" shadow="0">
      <root>
        <mxCell id="0" />
        <mxCell id="1" parent="0" />
        <mxCell id="HDU8WnkQHvnhpzkrLuiT-1" value="实例1" style="rounded=0;whiteSpace=wrap;html=1;sketch=1;curveFitting=1;jiggle=2;fontFamily=Lucida Console;fontSize=13;" parent="1" vertex="1">
          <mxGeometry x="90" y="60" width="150" height="60" as="geometry" />
        </mxCell>
        <mxCell id="HDU8WnkQHvnhpzkrLuiT-3" value="" style="endArrow=classic;html=1;rounded=0;sketch=1;curveFitting=1;jiggle=2;fontFamily=Lucida Console;fontSize=13;" parent="1" edge="1">
          <mxGeometry width="50" height="50" relative="1" as="geometry">
            <mxPoint x="-30" y="93" as="sourcePoint" />
            <mxPoint x="83" y="92.5" as="targetPoint" />
          </mxGeometry>
        </mxCell>
        <mxCell id="HDU8WnkQHvnhpzkrLuiT-4" value="" style="endArrow=classic;html=1;rounded=0;sketch=1;curveFitting=1;jiggle=2;fontFamily=Lucida Console;fontSize=13;" parent="1" edge="1">
          <mxGeometry width="50" height="50" relative="1" as="geometry">
            <mxPoint x="90" y="220" as="sourcePoint" />
            <mxPoint x="90" y="130" as="targetPoint" />
          </mxGeometry>
        </mxCell>
        <mxCell id="HDU8WnkQHvnhpzkrLuiT-5" value="" style="endArrow=classic;html=1;rounded=0;sketch=1;curveFitting=1;jiggle=2;fontFamily=Lucida Console;fontSize=13;" parent="1" edge="1">
          <mxGeometry width="50" height="50" relative="1" as="geometry">
            <mxPoint x="137" y="190" as="sourcePoint" />
            <mxPoint x="137" y="130" as="targetPoint" />
          </mxGeometry>
        </mxCell>
        <mxCell id="HDU8WnkQHvnhpzkrLuiT-6" value="actorOf()" style="text;html=1;strokeColor=none;fillColor=none;align=center;verticalAlign=middle;whiteSpace=wrap;rounded=0;sketch=1;curveFitting=1;jiggle=2;fontFamily=Lucida Console;fontSize=13;" parent="1" vertex="1">
          <mxGeometry x="-20" y="60" width="60" height="30" as="geometry" />
        </mxCell>
        <mxCell id="HDU8WnkQHvnhpzkrLuiT-7" value="构造方法" style="text;html=1;strokeColor=none;fillColor=none;align=center;verticalAlign=middle;whiteSpace=wrap;rounded=0;sketch=1;curveFitting=1;jiggle=2;fontFamily=Lucida Console;fontSize=13;" parent="1" vertex="1">
          <mxGeometry x="60" y="230" width="60" height="30" as="geometry" />
        </mxCell>
        <mxCell id="HDU8WnkQHvnhpzkrLuiT-9" value="preStart()" style="text;html=1;strokeColor=none;fillColor=none;align=center;verticalAlign=middle;whiteSpace=wrap;rounded=0;sketch=1;curveFitting=1;jiggle=2;fontFamily=Lucida Console;fontSize=13;" parent="1" vertex="1">
          <mxGeometry x="100" y="190" width="80" height="30" as="geometry" />
        </mxCell>
        <mxCell id="HDU8WnkQHvnhpzkrLuiT-10" value="启动事件" style="text;html=1;strokeColor=none;fillColor=none;align=center;verticalAlign=middle;whiteSpace=wrap;rounded=0;fontStyle=1;fontFamily=Lucida Console;fontSize=13;" parent="1" vertex="1">
          <mxGeometry x="-40" width="60" height="30" as="geometry" />
        </mxCell>
        <mxCell id="HDU8WnkQHvnhpzkrLuiT-11" value="实例2" style="rounded=0;whiteSpace=wrap;html=1;sketch=1;curveFitting=1;jiggle=2;fontFamily=Lucida Console;fontSize=13;" parent="1" vertex="1">
          <mxGeometry x="400" y="55" width="150" height="60" as="geometry" />
        </mxCell>
        <mxCell id="HDU8WnkQHvnhpzkrLuiT-13" value="" style="endArrow=classic;html=1;rounded=0;sketch=1;curveFitting=1;jiggle=2;fontFamily=Lucida Console;fontSize=13;" parent="1" edge="1">
          <mxGeometry width="50" height="50" relative="1" as="geometry">
            <mxPoint x="550" y="185" as="sourcePoint" />
            <mxPoint x="549.5" y="125" as="targetPoint" />
          </mxGeometry>
        </mxCell>
        <mxCell id="HDU8WnkQHvnhpzkrLuiT-14" value="" style="endArrow=classic;html=1;rounded=0;sketch=1;curveFitting=1;jiggle=2;fontFamily=Lucida Console;fontSize=13;" parent="1" edge="1">
          <mxGeometry width="50" height="50" relative="1" as="geometry">
            <mxPoint x="549" y="-5" as="sourcePoint" />
            <mxPoint x="549" y="50" as="targetPoint" />
          </mxGeometry>
        </mxCell>
        <mxCell id="HDU8WnkQHvnhpzkrLuiT-16" value="停止" style="text;html=1;strokeColor=none;fillColor=none;align=center;verticalAlign=middle;whiteSpace=wrap;rounded=0;sketch=1;curveFitting=1;jiggle=2;fontFamily=Lucida Console;fontSize=13;" parent="1" vertex="1">
          <mxGeometry x="520" y="-35" width="60" height="30" as="geometry" />
        </mxCell>
        <mxCell id="HDU8WnkQHvnhpzkrLuiT-17" value="postStop()" style="text;html=1;strokeColor=none;fillColor=none;align=center;verticalAlign=middle;whiteSpace=wrap;rounded=0;sketch=1;curveFitting=1;jiggle=2;fontFamily=Lucida Console;fontSize=13;" parent="1" vertex="1">
          <mxGeometry x="510" y="185" width="80" height="30" as="geometry" />
        </mxCell>
        <mxCell id="HDU8WnkQHvnhpzkrLuiT-18" value="停止事件" style="text;html=1;strokeColor=none;fillColor=none;align=center;verticalAlign=middle;whiteSpace=wrap;rounded=0;fontStyle=1;fontFamily=Lucida Console;fontSize=13;" parent="1" vertex="1">
          <mxGeometry x="390" y="-5" width="60" height="30" as="geometry" />
        </mxCell>
        <mxCell id="HDU8WnkQHvnhpzkrLuiT-19" value="Terminated" style="rounded=0;whiteSpace=wrap;html=1;sketch=1;curveFitting=1;jiggle=2;fontFamily=Lucida Console;fontSize=13;" parent="1" vertex="1">
          <mxGeometry x="570" y="55" width="150" height="60" as="geometry" />
        </mxCell>
        <mxCell id="HDU8WnkQHvnhpzkrLuiT-21" value="实例1" style="rounded=0;whiteSpace=wrap;html=1;sketch=1;curveFitting=1;jiggle=2;fontFamily=Lucida Console;fontSize=13;" parent="1" vertex="1">
          <mxGeometry x="-40" y="420" width="150" height="60" as="geometry" />
        </mxCell>
        <mxCell id="HDU8WnkQHvnhpzkrLuiT-22" value="" style="endArrow=classic;html=1;rounded=0;sketch=1;curveFitting=1;jiggle=2;fontFamily=Lucida Console;fontSize=13;" parent="1" edge="1">
          <mxGeometry width="50" height="50" relative="1" as="geometry">
            <mxPoint x="110" y="550" as="sourcePoint" />
            <mxPoint x="109.5" y="490" as="targetPoint" />
          </mxGeometry>
        </mxCell>
        <mxCell id="HDU8WnkQHvnhpzkrLuiT-23" value="" style="endArrow=classic;html=1;rounded=0;sketch=1;curveFitting=1;jiggle=2;fontFamily=Lucida Console;fontSize=13;" parent="1" edge="1">
          <mxGeometry width="50" height="50" relative="1" as="geometry">
            <mxPoint x="109" y="360" as="sourcePoint" />
            <mxPoint x="109" y="415" as="targetPoint" />
          </mxGeometry>
        </mxCell>
        <mxCell id="HDU8WnkQHvnhpzkrLuiT-24" value="重新启动" style="text;html=1;strokeColor=none;fillColor=none;align=center;verticalAlign=middle;whiteSpace=wrap;rounded=0;sketch=1;curveFitting=1;jiggle=2;fontFamily=Lucida Console;fontSize=13;" parent="1" vertex="1">
          <mxGeometry x="80" y="330" width="60" height="30" as="geometry" />
        </mxCell>
        <mxCell id="HDU8WnkQHvnhpzkrLuiT-25" value="preRestart()" style="text;html=1;strokeColor=none;fillColor=none;align=center;verticalAlign=middle;whiteSpace=wrap;rounded=0;sketch=1;curveFitting=1;jiggle=2;fontFamily=Lucida Console;fontSize=13;" parent="1" vertex="1">
          <mxGeometry x="70" y="550" width="80" height="30" as="geometry" />
        </mxCell>
        <mxCell id="HDU8WnkQHvnhpzkrLuiT-26" value="重启事件" style="text;html=1;strokeColor=none;fillColor=none;align=center;verticalAlign=middle;whiteSpace=wrap;rounded=0;fontStyle=1;fontFamily=Lucida Console;fontSize=13;" parent="1" vertex="1">
          <mxGeometry x="-50" y="360" width="60" height="30" as="geometry" />
        </mxCell>
        <mxCell id="HDU8WnkQHvnhpzkrLuiT-27" value="实例2" style="rounded=0;whiteSpace=wrap;html=1;sketch=1;curveFitting=1;jiggle=2;fontFamily=Lucida Console;fontSize=13;" parent="1" vertex="1">
          <mxGeometry x="210" y="420" width="150" height="60" as="geometry" />
        </mxCell>
        <mxCell id="HDU8WnkQHvnhpzkrLuiT-28" value="" style="endArrow=none;html=1;rounded=0;entryX=0;entryY=0.5;entryDx=0;entryDy=0;" parent="1" target="HDU8WnkQHvnhpzkrLuiT-27" edge="1">
          <mxGeometry width="50" height="50" relative="1" as="geometry">
            <mxPoint x="110" y="450" as="sourcePoint" />
            <mxPoint x="170" y="450" as="targetPoint" />
          </mxGeometry>
        </mxCell>
        <mxCell id="HDU8WnkQHvnhpzkrLuiT-29" value="" style="endArrow=classic;html=1;rounded=0;sketch=1;curveFitting=1;jiggle=2;fontFamily=Lucida Console;fontSize=13;" parent="1" edge="1">
          <mxGeometry width="50" height="50" relative="1" as="geometry">
            <mxPoint x="212" y="578" as="sourcePoint" />
            <mxPoint x="212" y="488" as="targetPoint" />
          </mxGeometry>
        </mxCell>
        <mxCell id="HDU8WnkQHvnhpzkrLuiT-30" value="" style="endArrow=classic;html=1;rounded=0;sketch=1;curveFitting=1;jiggle=2;fontFamily=Lucida Console;fontSize=13;" parent="1" edge="1">
          <mxGeometry width="50" height="50" relative="1" as="geometry">
            <mxPoint x="259" y="548" as="sourcePoint" />
            <mxPoint x="259" y="488" as="targetPoint" />
          </mxGeometry>
        </mxCell>
        <mxCell id="HDU8WnkQHvnhpzkrLuiT-31" value="构造方法" style="text;html=1;strokeColor=none;fillColor=none;align=center;verticalAlign=middle;whiteSpace=wrap;rounded=0;sketch=1;curveFitting=1;jiggle=2;fontFamily=Lucida Console;fontSize=13;" parent="1" vertex="1">
          <mxGeometry x="182" y="588" width="60" height="30" as="geometry" />
        </mxCell>
        <mxCell id="HDU8WnkQHvnhpzkrLuiT-32" value="postStart()" style="text;html=1;strokeColor=none;fillColor=none;align=center;verticalAlign=middle;whiteSpace=wrap;rounded=0;sketch=1;curveFitting=1;jiggle=2;fontFamily=Lucida Console;fontSize=13;" parent="1" vertex="1">
          <mxGeometry x="222" y="548" width="80" height="30" as="geometry" />
        </mxCell>
        <mxCell id="HDU8WnkQHvnhpzkrLuiT-33" value="实例1" style="rounded=0;whiteSpace=wrap;html=1;sketch=1;curveFitting=1;jiggle=2;fontFamily=Lucida Console;fontSize=13;" parent="1" vertex="1">
          <mxGeometry x="-50" y="760" width="150" height="60" as="geometry" />
        </mxCell>
        <mxCell id="HDU8WnkQHvnhpzkrLuiT-34" value="" style="endArrow=classic;html=1;rounded=0;sketch=1;curveFitting=1;jiggle=2;fontFamily=Lucida Console;fontSize=13;" parent="1" edge="1">
          <mxGeometry width="50" height="50" relative="1" as="geometry">
            <mxPoint x="100" y="890" as="sourcePoint" />
            <mxPoint x="99.5" y="830" as="targetPoint" />
          </mxGeometry>
        </mxCell>
        <mxCell id="HDU8WnkQHvnhpzkrLuiT-35" value="" style="endArrow=classic;html=1;rounded=0;sketch=1;curveFitting=1;jiggle=2;fontFamily=Lucida Console;fontSize=13;" parent="1" edge="1">
          <mxGeometry width="50" height="50" relative="1" as="geometry">
            <mxPoint x="99" y="700" as="sourcePoint" />
            <mxPoint x="99" y="755" as="targetPoint" />
          </mxGeometry>
        </mxCell>
        <mxCell id="HDU8WnkQHvnhpzkrLuiT-36" value="重新启动" style="text;html=1;strokeColor=none;fillColor=none;align=center;verticalAlign=middle;whiteSpace=wrap;rounded=0;sketch=1;curveFitting=1;jiggle=2;fontFamily=Lucida Console;fontSize=13;" parent="1" vertex="1">
          <mxGeometry x="70" y="670" width="60" height="30" as="geometry" />
        </mxCell>
        <mxCell id="HDU8WnkQHvnhpzkrLuiT-37" value="postRestart()" style="text;html=1;strokeColor=none;fillColor=none;align=center;verticalAlign=middle;whiteSpace=wrap;rounded=0;sketch=1;curveFitting=1;jiggle=2;fontFamily=Lucida Console;fontSize=13;" parent="1" vertex="1">
          <mxGeometry x="60" y="890" width="80" height="30" as="geometry" />
        </mxCell>
        <mxCell id="HDU8WnkQHvnhpzkrLuiT-39" value="实例2" style="rounded=0;whiteSpace=wrap;html=1;sketch=1;curveFitting=1;jiggle=2;fontFamily=Lucida Console;fontSize=13;" parent="1" vertex="1">
          <mxGeometry x="200" y="760" width="150" height="60" as="geometry" />
        </mxCell>
        <mxCell id="HDU8WnkQHvnhpzkrLuiT-40" value="" style="endArrow=none;html=1;rounded=0;entryX=0;entryY=0.5;entryDx=0;entryDy=0;" parent="1" target="HDU8WnkQHvnhpzkrLuiT-39" edge="1">
          <mxGeometry width="50" height="50" relative="1" as="geometry">
            <mxPoint x="100" y="790" as="sourcePoint" />
            <mxPoint x="160" y="790" as="targetPoint" />
          </mxGeometry>
        </mxCell>
        <mxCell id="HDU8WnkQHvnhpzkrLuiT-41" value="" style="endArrow=classic;html=1;rounded=0;sketch=1;curveFitting=1;jiggle=2;fontFamily=Lucida Console;fontSize=13;" parent="1" edge="1">
          <mxGeometry width="50" height="50" relative="1" as="geometry">
            <mxPoint x="202" y="918" as="sourcePoint" />
            <mxPoint x="202" y="828" as="targetPoint" />
          </mxGeometry>
        </mxCell>
        <mxCell id="HDU8WnkQHvnhpzkrLuiT-42" value="" style="endArrow=classic;html=1;rounded=0;sketch=1;curveFitting=1;jiggle=2;fontFamily=Lucida Console;fontSize=13;" parent="1" edge="1">
          <mxGeometry width="50" height="50" relative="1" as="geometry">
            <mxPoint x="249" y="888" as="sourcePoint" />
            <mxPoint x="249" y="828" as="targetPoint" />
          </mxGeometry>
        </mxCell>
        <mxCell id="HDU8WnkQHvnhpzkrLuiT-43" value="构造方法" style="text;html=1;strokeColor=none;fillColor=none;align=center;verticalAlign=middle;whiteSpace=wrap;rounded=0;sketch=1;curveFitting=1;jiggle=2;fontFamily=Lucida Console;fontSize=13;" parent="1" vertex="1">
          <mxGeometry x="172" y="928" width="60" height="30" as="geometry" />
        </mxCell>
        <mxCell id="HDU8WnkQHvnhpzkrLuiT-44" value="postRestart()" style="text;html=1;strokeColor=none;fillColor=none;align=center;verticalAlign=middle;whiteSpace=wrap;rounded=0;sketch=1;curveFitting=1;jiggle=2;fontFamily=Lucida Console;fontSize=13;" parent="1" vertex="1">
          <mxGeometry x="219" y="887" width="80" height="30" as="geometry" />
        </mxCell>
        <mxCell id="HDU8WnkQHvnhpzkrLuiT-46" value="" style="endArrow=classic;html=1;rounded=0;sketch=1;curveFitting=1;jiggle=2;fontFamily=Lucida Console;fontSize=13;" parent="1" edge="1">
          <mxGeometry width="50" height="50" relative="1" as="geometry">
            <mxPoint x="-163" y="793" as="sourcePoint" />
            <mxPoint x="-50" y="792.5" as="targetPoint" />
          </mxGeometry>
        </mxCell>
        <mxCell id="HDU8WnkQHvnhpzkrLuiT-47" value="actorOf()" style="text;html=1;strokeColor=none;fillColor=none;align=center;verticalAlign=middle;whiteSpace=wrap;rounded=0;sketch=1;curveFitting=1;jiggle=2;fontFamily=Lucida Console;fontSize=13;" parent="1" vertex="1">
          <mxGeometry x="-153" y="760" width="60" height="30" as="geometry" />
        </mxCell>
        <mxCell id="HDU8WnkQHvnhpzkrLuiT-50" value="" style="endArrow=classic;html=1;rounded=0;sketch=1;curveFitting=1;jiggle=2;fontFamily=Lucida Console;fontSize=13;" parent="1" edge="1">
          <mxGeometry width="50" height="50" relative="1" as="geometry">
            <mxPoint x="-49" y="918" as="sourcePoint" />
            <mxPoint x="-49" y="828" as="targetPoint" />
          </mxGeometry>
        </mxCell>
        <mxCell id="HDU8WnkQHvnhpzkrLuiT-51" value="" style="endArrow=classic;html=1;rounded=0;sketch=1;curveFitting=1;jiggle=2;fontFamily=Lucida Console;fontSize=13;" parent="1" edge="1">
          <mxGeometry width="50" height="50" relative="1" as="geometry">
            <mxPoint x="-2" y="888" as="sourcePoint" />
            <mxPoint x="-2" y="828" as="targetPoint" />
          </mxGeometry>
        </mxCell>
        <mxCell id="HDU8WnkQHvnhpzkrLuiT-52" value="构造方法" style="text;html=1;strokeColor=none;fillColor=none;align=center;verticalAlign=middle;whiteSpace=wrap;rounded=0;sketch=1;curveFitting=1;jiggle=2;fontFamily=Lucida Console;fontSize=13;" parent="1" vertex="1">
          <mxGeometry x="-79" y="928" width="60" height="30" as="geometry" />
        </mxCell>
        <mxCell id="HDU8WnkQHvnhpzkrLuiT-53" value="preStart()" style="text;html=1;strokeColor=none;fillColor=none;align=center;verticalAlign=middle;whiteSpace=wrap;rounded=0;sketch=1;curveFitting=1;jiggle=2;fontFamily=Lucida Console;fontSize=13;" parent="1" vertex="1">
          <mxGeometry x="-39" y="888" width="80" height="30" as="geometry" />
        </mxCell>
        <mxCell id="HDU8WnkQHvnhpzkrLuiT-54" value="" style="endArrow=classic;html=1;rounded=0;sketch=1;curveFitting=1;jiggle=2;fontFamily=Lucida Console;fontSize=13;" parent="1" edge="1">
          <mxGeometry width="50" height="50" relative="1" as="geometry">
            <mxPoint x="359" y="548" as="sourcePoint" />
            <mxPoint x="358.5" y="488" as="targetPoint" />
          </mxGeometry>
        </mxCell>
        <mxCell id="HDU8WnkQHvnhpzkrLuiT-55" value="" style="endArrow=classic;html=1;rounded=0;sketch=1;curveFitting=1;jiggle=2;fontFamily=Lucida Console;fontSize=13;" parent="1" edge="1">
          <mxGeometry width="50" height="50" relative="1" as="geometry">
            <mxPoint x="358" y="358" as="sourcePoint" />
            <mxPoint x="358" y="413" as="targetPoint" />
          </mxGeometry>
        </mxCell>
        <mxCell id="HDU8WnkQHvnhpzkrLuiT-56" value="停止" style="text;html=1;strokeColor=none;fillColor=none;align=center;verticalAlign=middle;whiteSpace=wrap;rounded=0;sketch=1;curveFitting=1;jiggle=2;fontFamily=Lucida Console;fontSize=13;" parent="1" vertex="1">
          <mxGeometry x="329" y="328" width="60" height="30" as="geometry" />
        </mxCell>
        <mxCell id="HDU8WnkQHvnhpzkrLuiT-57" value="postStop()" style="text;html=1;strokeColor=none;fillColor=none;align=center;verticalAlign=middle;whiteSpace=wrap;rounded=0;sketch=1;curveFitting=1;jiggle=2;fontFamily=Lucida Console;fontSize=13;" parent="1" vertex="1">
          <mxGeometry x="319" y="548" width="80" height="30" as="geometry" />
        </mxCell>
        <mxCell id="HDU8WnkQHvnhpzkrLuiT-58" value="Terminated" style="rounded=0;whiteSpace=wrap;html=1;sketch=1;curveFitting=1;jiggle=2;fontFamily=Lucida Console;fontSize=13;" parent="1" vertex="1">
          <mxGeometry x="379" y="418" width="150" height="60" as="geometry" />
        </mxCell>
        <mxCell id="HDU8WnkQHvnhpzkrLuiT-59" value="一次重启过程" style="text;html=1;strokeColor=none;fillColor=none;align=center;verticalAlign=middle;whiteSpace=wrap;rounded=0;fontStyle=1;fontFamily=Lucida Console;fontSize=13;" parent="1" vertex="1">
          <mxGeometry x="-130" y="690" width="90" height="30" as="geometry" />
        </mxCell>
      </root>
    </mxGraphModel>
  </diagram>
  <diagram id="7CfrnDsRnut9RBjB8cOK" name="分布式">
    <mxGraphModel dx="2230" dy="599" grid="1" gridSize="10" guides="1" tooltips="1" connect="1" arrows="1" fold="1" page="0" pageScale="1" pageWidth="827" pageHeight="1169" math="0" shadow="0">
      <root>
        <mxCell id="0" />
        <mxCell id="1" parent="0" />
        <mxCell id="kBRqtgOj839VRaRUbaKt-43" value="" style="rounded=0;whiteSpace=wrap;html=1;sketch=1;curveFitting=1;jiggle=2;fontFamily=Lucida Console;fontSize=13;" parent="1" vertex="1">
          <mxGeometry x="590" y="370" width="340" height="320" as="geometry" />
        </mxCell>
        <mxCell id="kBRqtgOj839VRaRUbaKt-44" value="" style="rounded=0;whiteSpace=wrap;html=1;sketch=1;curveFitting=1;jiggle=2;fontFamily=Lucida Console;fontSize=13;" parent="1" vertex="1">
          <mxGeometry x="620" y="400" width="270" height="270" as="geometry" />
        </mxCell>
        <mxCell id="kBRqtgOj839VRaRUbaKt-2" value="" style="rounded=0;whiteSpace=wrap;html=1;sketch=1;curveFitting=1;jiggle=2;fontFamily=Lucida Console;fontSize=13;" parent="1" vertex="1">
          <mxGeometry x="60" y="80" width="340" height="470" as="geometry" />
        </mxCell>
        <mxCell id="kBRqtgOj839VRaRUbaKt-3" value="" style="rounded=0;whiteSpace=wrap;html=1;sketch=1;curveFitting=1;jiggle=2;fontFamily=Lucida Console;fontSize=13;" parent="1" vertex="1">
          <mxGeometry x="90" y="130" width="270" height="400" as="geometry" />
        </mxCell>
        <mxCell id="kBRqtgOj839VRaRUbaKt-4" value="单个结点" style="text;html=1;strokeColor=none;fillColor=none;align=center;verticalAlign=middle;whiteSpace=wrap;rounded=0;sketch=1;curveFitting=1;jiggle=2;fontFamily=Lucida Console;fontSize=13;fontStyle=1" parent="1" vertex="1">
          <mxGeometry x="80" y="90" width="80" height="30" as="geometry" />
        </mxCell>
        <mxCell id="kBRqtgOj839VRaRUbaKt-5" value="" style="rounded=0;whiteSpace=wrap;html=1;sketch=1;curveFitting=1;jiggle=2;fontFamily=Lucida Console;fontSize=13;" parent="1" vertex="1">
          <mxGeometry x="170" y="200" width="120" height="60" as="geometry" />
        </mxCell>
        <mxCell id="kBRqtgOj839VRaRUbaKt-6" value="" style="rounded=0;whiteSpace=wrap;html=1;sketch=1;curveFitting=1;jiggle=2;fontFamily=Lucida Console;fontSize=13;" parent="1" vertex="1">
          <mxGeometry x="170" y="230" width="120" height="30" as="geometry" />
        </mxCell>
        <mxCell id="kBRqtgOj839VRaRUbaKt-11" value="单节点 ActorSystem" style="text;html=1;strokeColor=none;fillColor=none;align=center;verticalAlign=middle;whiteSpace=wrap;rounded=0;sketch=1;curveFitting=1;jiggle=2;fontFamily=Lucida Console;fontSize=13;fontStyle=1" parent="1" vertex="1">
          <mxGeometry x="110" y="150" width="160" height="30" as="geometry" />
        </mxCell>
        <mxCell id="kBRqtgOj839VRaRUbaKt-12" value="HTTP路由" style="text;html=1;strokeColor=none;fillColor=none;align=center;verticalAlign=middle;whiteSpace=wrap;rounded=0;sketch=1;curveFitting=1;jiggle=2;fontFamily=Lucida Console;fontSize=13;fontStyle=1" parent="1" vertex="1">
          <mxGeometry x="200" y="200" width="70" height="30" as="geometry" />
        </mxCell>
        <mxCell id="kBRqtgOj839VRaRUbaKt-22" value="" style="edgeStyle=orthogonalEdgeStyle;rounded=0;orthogonalLoop=1;jettySize=auto;html=1;sketch=1;curveFitting=1;jiggle=2;fontFamily=Lucida Console;fontSize=13;" parent="1" source="kBRqtgOj839VRaRUbaKt-13" target="kBRqtgOj839VRaRUbaKt-17" edge="1">
          <mxGeometry relative="1" as="geometry" />
        </mxCell>
        <mxCell id="kBRqtgOj839VRaRUbaKt-13" value="RestAPI" style="text;html=1;strokeColor=none;fillColor=none;align=center;verticalAlign=middle;whiteSpace=wrap;rounded=0;sketch=1;curveFitting=1;jiggle=2;fontFamily=Lucida Console;fontSize=13;" parent="1" vertex="1">
          <mxGeometry x="200" y="230" width="60" height="30" as="geometry" />
        </mxCell>
        <mxCell id="kBRqtgOj839VRaRUbaKt-14" value="" style="rounded=0;whiteSpace=wrap;html=1;sketch=1;curveFitting=1;jiggle=2;fontFamily=Lucida Console;fontSize=13;" parent="1" vertex="1">
          <mxGeometry x="170" y="330" width="120" height="60" as="geometry" />
        </mxCell>
        <mxCell id="kBRqtgOj839VRaRUbaKt-15" value="" style="rounded=0;whiteSpace=wrap;html=1;sketch=1;curveFitting=1;jiggle=2;fontFamily=Lucida Console;fontSize=13;" parent="1" vertex="1">
          <mxGeometry x="170" y="360" width="120" height="30" as="geometry" />
        </mxCell>
        <mxCell id="kBRqtgOj839VRaRUbaKt-16" value="Actor" style="text;html=1;strokeColor=none;fillColor=none;align=center;verticalAlign=middle;whiteSpace=wrap;rounded=0;sketch=1;curveFitting=1;jiggle=2;fontFamily=Lucida Console;fontSize=13;fontStyle=1" parent="1" vertex="1">
          <mxGeometry x="200" y="330" width="60" height="30" as="geometry" />
        </mxCell>
        <mxCell id="kBRqtgOj839VRaRUbaKt-24" value="" style="edgeStyle=orthogonalEdgeStyle;rounded=0;orthogonalLoop=1;jettySize=auto;html=1;sketch=1;curveFitting=1;jiggle=2;fontFamily=Lucida Console;fontSize=13;" parent="1" source="kBRqtgOj839VRaRUbaKt-17" target="kBRqtgOj839VRaRUbaKt-21" edge="1">
          <mxGeometry relative="1" as="geometry" />
        </mxCell>
        <mxCell id="kBRqtgOj839VRaRUbaKt-17" value="BoxOffice" style="text;html=1;strokeColor=none;fillColor=none;align=center;verticalAlign=middle;whiteSpace=wrap;rounded=0;sketch=1;curveFitting=1;jiggle=2;fontFamily=Lucida Console;fontSize=13;" parent="1" vertex="1">
          <mxGeometry x="200" y="360" width="60" height="30" as="geometry" />
        </mxCell>
        <mxCell id="kBRqtgOj839VRaRUbaKt-18" value="" style="rounded=0;whiteSpace=wrap;html=1;sketch=1;curveFitting=1;jiggle=2;fontFamily=Lucida Console;fontSize=13;" parent="1" vertex="1">
          <mxGeometry x="170" y="460" width="120" height="60" as="geometry" />
        </mxCell>
        <mxCell id="kBRqtgOj839VRaRUbaKt-19" value="" style="rounded=0;whiteSpace=wrap;html=1;sketch=1;curveFitting=1;jiggle=2;fontFamily=Lucida Console;fontSize=13;" parent="1" vertex="1">
          <mxGeometry x="170" y="490" width="120" height="30" as="geometry" />
        </mxCell>
        <mxCell id="kBRqtgOj839VRaRUbaKt-20" value="Actor" style="text;html=1;strokeColor=none;fillColor=none;align=center;verticalAlign=middle;whiteSpace=wrap;rounded=0;sketch=1;curveFitting=1;jiggle=2;fontFamily=Lucida Console;fontSize=13;fontStyle=1" parent="1" vertex="1">
          <mxGeometry x="200" y="460" width="60" height="30" as="geometry" />
        </mxCell>
        <mxCell id="kBRqtgOj839VRaRUbaKt-21" value="TicketSeller" style="text;html=1;strokeColor=none;fillColor=none;align=center;verticalAlign=middle;whiteSpace=wrap;rounded=0;sketch=1;curveFitting=1;jiggle=2;fontFamily=Lucida Console;fontSize=13;" parent="1" vertex="1">
          <mxGeometry x="200" y="490" width="60" height="30" as="geometry" />
        </mxCell>
        <mxCell id="kBRqtgOj839VRaRUbaKt-67" value="" style="edgeStyle=orthogonalEdgeStyle;rounded=0;orthogonalLoop=1;jettySize=auto;html=1;entryX=0.65;entryY=-0.007;entryDx=0;entryDy=0;entryPerimeter=0;sketch=1;curveFitting=1;jiggle=2;fontFamily=Lucida Console;fontSize=13;" parent="1" source="kBRqtgOj839VRaRUbaKt-25" target="kBRqtgOj839VRaRUbaKt-54" edge="1">
          <mxGeometry relative="1" as="geometry" />
        </mxCell>
        <mxCell id="kBRqtgOj839VRaRUbaKt-25" value="" style="rounded=0;whiteSpace=wrap;html=1;sketch=1;curveFitting=1;jiggle=2;fontFamily=Lucida Console;fontSize=13;" parent="1" vertex="1">
          <mxGeometry x="590" y="80" width="340" height="230" as="geometry" />
        </mxCell>
        <mxCell id="kBRqtgOj839VRaRUbaKt-26" value="" style="rounded=0;whiteSpace=wrap;html=1;sketch=1;curveFitting=1;jiggle=2;fontFamily=Lucida Console;fontSize=13;" parent="1" vertex="1">
          <mxGeometry x="620" y="130" width="270" height="160" as="geometry" />
        </mxCell>
        <mxCell id="kBRqtgOj839VRaRUbaKt-27" value="前端结点" style="text;html=1;strokeColor=none;fillColor=none;align=center;verticalAlign=middle;whiteSpace=wrap;rounded=0;sketch=1;curveFitting=1;jiggle=2;fontFamily=Lucida Console;fontSize=13;fontStyle=1" parent="1" vertex="1">
          <mxGeometry x="610" y="90" width="80" height="30" as="geometry" />
        </mxCell>
        <mxCell id="kBRqtgOj839VRaRUbaKt-28" value="" style="rounded=0;whiteSpace=wrap;html=1;sketch=1;curveFitting=1;jiggle=2;fontFamily=Lucida Console;fontSize=13;" parent="1" vertex="1">
          <mxGeometry x="700" y="200" width="120" height="60" as="geometry" />
        </mxCell>
        <mxCell id="kBRqtgOj839VRaRUbaKt-29" value="" style="rounded=0;whiteSpace=wrap;html=1;sketch=1;curveFitting=1;jiggle=2;fontFamily=Lucida Console;fontSize=13;" parent="1" vertex="1">
          <mxGeometry x="700" y="230" width="120" height="30" as="geometry" />
        </mxCell>
        <mxCell id="kBRqtgOj839VRaRUbaKt-30" value="前端ActorSystem" style="text;html=1;strokeColor=none;fillColor=none;align=center;verticalAlign=middle;whiteSpace=wrap;rounded=0;sketch=1;curveFitting=1;jiggle=2;fontFamily=Lucida Console;fontSize=13;fontStyle=1" parent="1" vertex="1">
          <mxGeometry x="640" y="150" width="160" height="30" as="geometry" />
        </mxCell>
        <mxCell id="kBRqtgOj839VRaRUbaKt-31" value="HTTP路由" style="text;html=1;strokeColor=none;fillColor=none;align=center;verticalAlign=middle;whiteSpace=wrap;rounded=0;sketch=1;curveFitting=1;jiggle=2;fontFamily=Lucida Console;fontSize=13;fontStyle=1" parent="1" vertex="1">
          <mxGeometry x="730" y="200" width="70" height="30" as="geometry" />
        </mxCell>
        <mxCell id="kBRqtgOj839VRaRUbaKt-33" value="RestAPI" style="text;html=1;strokeColor=none;fillColor=none;align=center;verticalAlign=middle;whiteSpace=wrap;rounded=0;sketch=1;curveFitting=1;jiggle=2;fontFamily=Lucida Console;fontSize=13;" parent="1" vertex="1">
          <mxGeometry x="730" y="230" width="60" height="30" as="geometry" />
        </mxCell>
        <mxCell id="kBRqtgOj839VRaRUbaKt-45" value="后端节点" style="text;html=1;strokeColor=none;fillColor=none;align=center;verticalAlign=middle;whiteSpace=wrap;rounded=0;sketch=1;curveFitting=1;jiggle=2;fontFamily=Lucida Console;fontSize=13;fontStyle=1" parent="1" vertex="1">
          <mxGeometry x="610" y="370" width="80" height="30" as="geometry" />
        </mxCell>
        <mxCell id="kBRqtgOj839VRaRUbaKt-52" value="" style="rounded=0;whiteSpace=wrap;html=1;sketch=1;curveFitting=1;jiggle=2;fontFamily=Lucida Console;fontSize=13;" parent="1" vertex="1">
          <mxGeometry x="691" y="450" width="120" height="60" as="geometry" />
        </mxCell>
        <mxCell id="kBRqtgOj839VRaRUbaKt-53" value="" style="rounded=0;whiteSpace=wrap;html=1;sketch=1;curveFitting=1;jiggle=2;fontFamily=Lucida Console;fontSize=13;" parent="1" vertex="1">
          <mxGeometry x="691" y="480" width="120" height="30" as="geometry" />
        </mxCell>
        <mxCell id="kBRqtgOj839VRaRUbaKt-54" value="Actor" style="text;html=1;strokeColor=none;fillColor=none;align=center;verticalAlign=middle;whiteSpace=wrap;rounded=0;sketch=1;curveFitting=1;jiggle=2;fontFamily=Lucida Console;fontSize=13;fontStyle=1" parent="1" vertex="1">
          <mxGeometry x="721" y="450" width="60" height="30" as="geometry" />
        </mxCell>
        <mxCell id="kBRqtgOj839VRaRUbaKt-55" value="" style="edgeStyle=orthogonalEdgeStyle;rounded=0;orthogonalLoop=1;jettySize=auto;html=1;sketch=1;curveFitting=1;jiggle=2;fontFamily=Lucida Console;fontSize=13;" parent="1" source="kBRqtgOj839VRaRUbaKt-56" target="kBRqtgOj839VRaRUbaKt-60" edge="1">
          <mxGeometry relative="1" as="geometry" />
        </mxCell>
        <mxCell id="kBRqtgOj839VRaRUbaKt-56" value="BoxOffice" style="text;html=1;strokeColor=none;fillColor=none;align=center;verticalAlign=middle;whiteSpace=wrap;rounded=0;sketch=1;curveFitting=1;jiggle=2;fontFamily=Lucida Console;fontSize=13;" parent="1" vertex="1">
          <mxGeometry x="721" y="480" width="60" height="30" as="geometry" />
        </mxCell>
        <mxCell id="kBRqtgOj839VRaRUbaKt-57" value="" style="rounded=0;whiteSpace=wrap;html=1;sketch=1;curveFitting=1;jiggle=2;fontFamily=Lucida Console;fontSize=13;" parent="1" vertex="1">
          <mxGeometry x="691" y="580" width="120" height="60" as="geometry" />
        </mxCell>
        <mxCell id="kBRqtgOj839VRaRUbaKt-58" value="" style="rounded=0;whiteSpace=wrap;html=1;sketch=1;curveFitting=1;jiggle=2;fontFamily=Lucida Console;fontSize=13;" parent="1" vertex="1">
          <mxGeometry x="691" y="610" width="120" height="30" as="geometry" />
        </mxCell>
        <mxCell id="kBRqtgOj839VRaRUbaKt-59" value="Actor" style="text;html=1;strokeColor=none;fillColor=none;align=center;verticalAlign=middle;whiteSpace=wrap;rounded=0;sketch=1;curveFitting=1;jiggle=2;fontFamily=Lucida Console;fontSize=13;fontStyle=1" parent="1" vertex="1">
          <mxGeometry x="721" y="580" width="60" height="30" as="geometry" />
        </mxCell>
        <mxCell id="kBRqtgOj839VRaRUbaKt-60" value="TicketSeller" style="text;html=1;strokeColor=none;fillColor=none;align=center;verticalAlign=middle;whiteSpace=wrap;rounded=0;sketch=1;curveFitting=1;jiggle=2;fontFamily=Lucida Console;fontSize=13;" parent="1" vertex="1">
          <mxGeometry x="721" y="610" width="60" height="30" as="geometry" />
        </mxCell>
        <mxCell id="kBRqtgOj839VRaRUbaKt-68" value="后端ActorSystem" style="text;html=1;strokeColor=none;fillColor=default;align=center;verticalAlign=middle;whiteSpace=wrap;rounded=0;fontFamily=Lucida Console;fontSize=13;sketch=1;curveFitting=1;jiggle=2;" parent="1" vertex="1">
          <mxGeometry x="710" y="535" width="120" height="30" as="geometry" />
        </mxCell>
        <mxCell id="kBRqtgOj839VRaRUbaKt-69" value="" style="shape=flexArrow;endArrow=classic;html=1;rounded=0;sketch=1;curveFitting=1;jiggle=2;fontFamily=Lucida Console;fontSize=13;" parent="1" edge="1">
          <mxGeometry width="50" height="50" relative="1" as="geometry">
            <mxPoint x="440" y="340" as="sourcePoint" />
            <mxPoint x="540" y="340" as="targetPoint" />
          </mxGeometry>
        </mxCell>
        <mxCell id="w7ae5QyoEXNDG0QztSoP-21" value="" style="edgeStyle=orthogonalEdgeStyle;rounded=0;orthogonalLoop=1;jettySize=auto;html=1;sketch=1;curveFitting=1;jiggle=2;" edge="1" parent="1" source="w7ae5QyoEXNDG0QztSoP-1" target="w7ae5QyoEXNDG0QztSoP-20">
          <mxGeometry relative="1" as="geometry" />
        </mxCell>
        <mxCell id="w7ae5QyoEXNDG0QztSoP-1" value="&lt;b style=&quot;font-size: 13px;&quot;&gt;RemoteLookupProxy&lt;/b&gt; Actor" style="rounded=0;whiteSpace=wrap;html=1;fontFamily=Lucida Console;fontSize=13;sketch=1;curveFitting=1;jiggle=2;" vertex="1" parent="1">
          <mxGeometry x="110" y="1070" width="200" height="50" as="geometry" />
        </mxCell>
        <mxCell id="w7ae5QyoEXNDG0QztSoP-2" value="BackendMain" style="rounded=0;whiteSpace=wrap;html=1;fontFamily=Lucida Console;fontSize=13;sketch=1;curveFitting=1;jiggle=2;" vertex="1" parent="1">
          <mxGeometry x="710" y="1236" width="180" height="50" as="geometry" />
        </mxCell>
        <mxCell id="w7ae5QyoEXNDG0QztSoP-4" value="启动时，自己的上下文会发送一个&lt;b style=&quot;font-size: 13px;&quot;&gt;Identify&lt;/b&gt;消息到指定&lt;b style=&quot;font-size: 13px;&quot;&gt;path&lt;/b&gt;的Actor" style="text;html=1;strokeColor=#82b366;fillColor=#d5e8d4;align=center;verticalAlign=middle;whiteSpace=wrap;rounded=0;fontFamily=Lucida Console;fontSize=13;sketch=1;curveFitting=1;jiggle=2;" vertex="1" parent="1">
          <mxGeometry x="400" y="1200" width="280" height="50" as="geometry" />
        </mxCell>
        <mxCell id="w7ae5QyoEXNDG0QztSoP-27" style="edgeStyle=orthogonalEdgeStyle;rounded=0;orthogonalLoop=1;jettySize=auto;html=1;entryX=0.543;entryY=0;entryDx=0;entryDy=0;entryPerimeter=0;sketch=1;curveFitting=1;jiggle=2;" edge="1" parent="1" source="w7ae5QyoEXNDG0QztSoP-5" target="w7ae5QyoEXNDG0QztSoP-4">
          <mxGeometry relative="1" as="geometry" />
        </mxCell>
        <mxCell id="w7ae5QyoEXNDG0QztSoP-5" value="" style="shape=image;imageAspect=0;aspect=fixed;verticalLabelPosition=bottom;verticalAlign=top;image=data:image/png,iVBORw0KGgoAAAANSUhEUgAAAloAAAC9CAIAAADk50SuAAAAAXNSR0IArs4c6QAAAARnQU1BAACxjwv8YQUAAAAJcEhZcwAAEnQAABJ0Ad5mH3gAAEH6SURBVHhe7Z0HTBTL/8A3xrx5BAJ/IBjQiHlqbBGEoFiiz/I0iqjPji0/BRULKEqTQxArihUFPBBEQAQLPJGiqIiKCChYsIIFUZFmoYgi9f5zt3N3e3DHHh7oid9PJsbZXWZn5vbmszM7s0dVtoZHjx7xAAAAAKDDAToEAAAAANAhAAAAAIAOAQAAAAADOgQAAAAA0CEAAAAAgA4BAAAAAAM6BAAAAADQIQAAAACADgEAAAAAAzoEAAAAANAhAAAAAIAOebzaqrKK6noS+WXpGKUAAAD4afzmOmzIS9i9kcPZdCTtE9nyK9IxSgEAAPAz+TV0+LnqKw4k0pY0Ft4I2LHJY8/p7Eqypc34nBHk6uoanl1L4u1IO5aClR9YTAAAgHZE2XX45Wv11Yw7/128hgP+D46SHUrPb+IJ0CEAAB0DZdfhjcz7tAvpgKNkh9IDOgQAAPiFUGod1tXXn710nalDHMUbyW6ZfHses5vD2RSY9qFRuCX3Py8OxyP4dhnZ8jHFl8PB7TgNJyijit4uhG7lI7NLH8QF7d3usdlz/5HojALmeG1OtDsjBRoOJ0zkBTqFE/dKZKVQlsrFB5x6TKKYgkv7OJzt8Xl0rA1KgWmsep0eG3rIa6u7+5Zd+7mRSY/e15BdGPZi8ng1JdmJx/32eG7eyHHdtN3LJzT+zjtxH521mHyq32XGh/l4bd3kjvcHRqe+rGwgezBy5eH9wwR+ITZt2eUbkZKfk4DrYfelArIXAABAcZRahw0NDecupzB1iKN4I9ndAt/yzu125XgczSzjx2ry4rBYNos1wuNV5aUmCIgP3cPhyNJhQFCw1+ET/8VEh3pvwdGtYfc+k/08HpYEnQJNVMB2nI5b5OM6sp+kEHjUy096Cmw6bINS8GryE/Zt5HC27D92+lzs2QjuLjcOZ2tIZjnZLUcx6/JivVw5Gz25ETHxCfGxpwO98F3A1vAHwjOxFpNXV3jFbxPO+IFjZ2LORYf7eWKt7jn7TGRU9jzU5MVg/XE27Qk6HRMTFbxvj6/vLtAhAABti7IPlt57/IypQxwlO9ioyYvf48rht6q1bxL2uWKNZIo1wqA2O0y2Drcev1tJ/1F9UdJB3PkLSJc6WaXh4+2QbdhkYVkfRa4mKYRlVdAp1BVe8pZIgV2HCpeisSA1LDg4KqNY5OjMY9hmPikfhHHWYhYm7eVwvOLzROUqy01NTk7JEc5hZS3mtweRWIY+V4pIp77x873jWzmu3JsCx2NY81D/+BRWulfMc9KtrX2bgOsJdAgAQJui7Dqsb2h4mPvy/LU0HPB/cJTsYAerBAtkZ9jxwxs5m4/RPazmtKjDY5lfSJzHe80foNuZ8JpEGdTkXzjoxtnonZD3jWzhQ6cQnClOOD8B92nEKcijQwVL0RzBKXbEvyJR9mJWpPvjDuqRK2+qpI9RsxazKOkAh7Pr/BsSxXy+dZTDcY/KIV5nzcOnVC6Hs/H0Y/FH/zIWd8VBhwAAtCXKrkOFqMmP28N/tOZx9LYMjbDokDlDRJqrMI3l2RGeeEfIbXHHUABrCvLpUKFS8HhVbzJijnp7bXXHCRCYp5CjmDX5Sdyt+I9cN+3Y6xsUEZN069lHxrwZ1hTeJu4WnLYpkQ9IfbGmUHrNF+szOodEMQJfgg4BAGhLlFeHjY2Nn8orn+e/vfMo5+adBym372c9fIqjeCPeRQ5qkcaPGYEegpkm++LzGfNHJFBMh7Xvrvpt4mzcH5fXbAFIW+lQkVJ8zAjy4HA89gVHxdHPGBNOc7cyTyFfMRuqinOzUi7Gngk/sn/bRqwm7/OinMijQw5nC/c0yYCIe4USvcMWUoDeIQAAPwAl1eHbopLE6+nMp4bMgHfhA8ihsmj8kHrEg+PGTUqN2s5x3RuXJ10liuiwKifKy5WzNfj2eylDuKwpVKYH4gOO3xPnKy9+J4ez6wJjXFGxUnxOO4I9EnJXPAzJK7i4h5kH+XTI5Nub8wdxopEPyONI1hQEg6VSB5kJrCnUPz7txn92+IKUHZ4dAgDQDiijDiurvpxtpsAmAR+ADyN/IIWGktQA3G3zSXpXz6u8G7aV47o79gXz0Z6Q79ZhfWlq4BbOxn1xL6RngzWFxjx+H2d7hHCSJt3Kbwy5I05PwVJUpgVwOK6Bt8gcFR6vpjDJF/fuxHlgzeS3F1cjIyOTcsV5+nw72JXjGnaPZIM9hYf8qTQHLxcKnz3W5KecCguLe1hB4uxVXZN3TjCzdN/RM/TMUj8/GCwFAKCNUUYdvv9U1kR+UgM+jPxBMxpKUg67czZ6Xyyg+zDlWcGbcf/iv+fCIc3Pz2+QMTt6iYLX0VgSv0OP4bG20VWZIVgsbvvD4skf0lx5IswUeyvf+D41wAOn4RVw8iy/lcf/37g/Qdz/U7wUH25im3LcdnIj/ouNjT7B3bU7MBD31cR5YM/k+zQuztfmfSFRsYKFFkf34BS3hNwRrtVgT4EstPDYH3wmJi7m9NG9OL1tR299JLvlSAELsfRBQgh/3eFmwbrD3POgQwAA2piOOJWmvjjZz53juj/xjaiFbfyYHoSbZK/oHFolJckHcRPcHA4nnJ7hwdpGV6Qdof+ECXNUUJ5WnlddmBkX4r3Tw23jpu37jkTdyPsseiraFqXgNVbmpUQF7Nu5eZPHjv1BMVmFBckHmXmQJ5NVb27FYhVt2+TK2eixY/ehkNjMAnEvVL5i8pfhH9q1dZP7lp37uCcvPyhhjPnKlYIkMJUGAIA2pyPqEOjg1AqWMnJTZY4OAAAAtBrQIfArIHr/TkL8ucjD21057r7X2CZTAQAAtALQIfArIHw7K3/94/bd3Mgrz8ukzOYFAAD4bkCHAAAAAAA6BAAAAADQIQAAAABgQIcAAAAAADoEAAAAANAhAAAAAGBAhwAAAAAAOgQAAAAA0CEAAAAAYECHAAAAAAA6BAAAAADQIQAAAABgQIcAAAAAADoEAOB3pvrNzf/CDu/Zsff8K7IF+F0BHQJtwtfUmNB/doT75zF+5x74fmrephzzsFrsL/7CFRy3ne/CTXxZReLKTfnNvQsnmlkdyf5CNiglda9OWxlq/imgJ+cm2Qr8roAOgbag4aGVFYeycu0S+oxsAb6b6pyI1UN1ENLsaxGeR7bxeKUxNgbaeOOghUfuVZJtSkt9wnIVhB3TzfE62aKM1Fxaq4dQ32UnHr2vrifbgN8YmTp8+fIllp+cvHrVnuMMn1/PMo79w6OQROWnujJqb5rJpIQ/jGMpkzjKOHm/uHFRPr5kzbLk/HHkMYnyHi+z5AumSZiVIrt30DSFNqL+wRKck0P3vpG4VMqiuLu1Vu93uCcjezUlUeFHTdZ5/EEXyvLA/ndkDwu58d1F9WDpqrJ6p+nuaP+nFb9k6yVPTda/Cp/XG6n0tTiUWlJHtglp+HQvxMpIHXUz5z5u8dP4PpLttRCaGVZKopi6+KUIoaUxTTPCTkH08kG6XU2dLn0gG5jQyS6ObocytIqSo1MQ0ll3jUSB3x2ZOiwsLCwtZXwxZIMPk/PI7+R7dZjNTepkHG+y/r7boUce/PD8+keySxlpKrOiqFMJHjgc5Xa15GhujuT//1TC8ZeyRyN/pg5ZyI7e18lyk4n3WTe6UKdSrleQXSwIdNjL6z+6+M5BIYNtsB13rsxS+h5Sc+SoyTfHpmshbfPDObI+5rrXERb6SH2M97M2vyNoSx22iLLo8MuZhQipWp+HniEgoAPrsPrI8lhqXHZaI4krO7Jk9i55iCWnZ4QcHVvl1WHFEU8OtSbmez4LgQ4nXiojUX4/M33aSg7ldP7+r/LJimCtyfoMl94Ime583JJ/GvMOj1dBumsvVZMNbcVvp0PeVXs9hP49/p5Egd8cpdRhVVmoZ6rBuHj1MZf/cX+eWfRmbhMdNtZkRmfPnn+py/B4nUnJM3a+TP/YvGmsOrQoljJ/dI9EW8m3kpio8LEbdmov43ResX2AR6h7akE52Seg8UtmcuzsTbu6WLvrrPOeEZqaXtFAdmFII15yP/n0eMetmja7hu2JiXwj2X59LQgNOWKwxl3dxusf/xuZ7+/Oba0OWVNQKJPP7VZJGa3lB6fEB+QYyRFdy7CztWSHJB8PbeZQDgnNPosiTw6HWnUyUbIr9CTGm7Lc7vREcNPeTIe4NT3rt5Gy5AZ9InGWYmKqC8PDAg1FFVUqed/wIFrNkvPv1c8kiqG95Zct1gDrKVq6YOSpSQGZHn0QGuXN9vy1MNgMoa52l6VVdu3TYwsH6en2n7b/TmtnsbDq8JZ7T4QmB+Zmh66ZZKjfpduAkbOcTz1hdtMvrED8R4Y02HgxEsZLsdcV72WCjHY8JMf8UB56DUZo6IFcEgV+c5RQhzUxnAuUSZzOnDQbr+xVNkm9Ntz+V0KHtWneV/4wjtWbl44PWOt0XX9wbOdp96+Rb2X1lTB6aPS+2fhYatT1lWSktFWDpdVJwbsoS/d+u046RSa4h0fNctlMWW6Zc0PUKH9Li9z/hyVHzz3EJixmrY+vvhWns1P0NdGDM0Ej/o9fuIGD//LQmDXeB3Vx87o6NEps1KqYw1txg6jjGmwTdnbV7r29/ML/bZ0OWVNQMJMlZyLOOoSddQg9OhBvdwxch/9Ph/8eFdCHiEZ0TyVYbOA002HFlfP03mgzO6w935XCg0WDpS/jfSnLTZa3mTcKxV7YkXbn0mndSNPhf35YvQEhJJ9sxeRVJwbuwBWlzSEV1fNAyMTW6ZD9FC1eMPLUJJ+K0wsQ0lp/hURlk+mGtTnRn/m3QvK8R/GVg1C/rXfIJnmRT4cTrayMDMxXOjjbLRzZHe/tujC6hN6NyYneQrN5gQm/Ayipw+dR7k58HGcb4Z2GM+wFMT5e56WVpd15hisLDdmXQ6LAb47y6fDNs+HGsWrLn70gDWv9vaDr6kwdFudNMInVdXhdKBzxf38tq4dx7Kgwujkr3zlTMHGmeZB/Kk3jM3w732lXmvhr/uWF99GotUmvSbvwMW2CFUf3YFYh6SE0vr9zqoclZ1S8sB4EjbjGxvjUr3S8Ie9yoLolZ2S8MMnia8MtOWqe11+QFGvuxfjhA1qhQ9YUFM8kjVyDpQ1n/ZrrsGini4xekWgqjSCTqt5ZYt29STKy5PSNfEVy3UyHNSVp/MFSZ2G/irWYZemTrDhoa3IOyVvNvf98VVqlQ9ZTsF4wNGw1mc8dj1D/bXdJVDYv9o9AaNB2iZ4loSEvet2kwSbjloc8be2aF/l0qDPc4yapqrq8oOnaCI0+9IKOM6iLEYyHSupQiAKDpfiOge5QNgF3WovIIfLRUFPx9ua2f9RRf5d0WBwECFA6Hdal3FExjp15jnGFFjwfxdBh/bWsP4zjll4hLROfxhK7kbGU/WvJwSEFBksbc2xX4NbtZjGJN6X+zqk/LF2XZjLaOkGDSHkLB6gEjbhhFOOW9/PtadheQU/oUd26u6dxizzzOmMeZknKqNbokDUFxTNJ+H4dipA1WIqpOr7XjVoaeFw4s+bBf/soS6+tecIsCDIpmkqzIShkCH8qjdeae6RJZi/m01jc65XoXzapajYdsp+C7YIhsNVknu9YhAbuuE+isuF3AdHALewHtgr5dGi8M5uO8fl4Ygbuz6691OxZRXvpsPp+JOl/NuFYhpxzq2659yUK/fNP3VH2Z1+29SNY4JdFLh0KFlM0hd6FaVsdVsRn4J7cSuZqJcmpNJUJGZRx/HCOaAgUh6zRo2Kp5S8lGyNFnh0KhtcsN/baftIt9ubJO3m5FRLNfGVqKGXpNvywaOgPh1OjcfvomUry0KxP06SFrcApWLmuZA5nfWndVBrWFBTPJKF9dciryAhXt3Q1S6Kz8W77Bg61IVH8JEmQSXG30spVa9PpgKflosmA7MW8cwr/1cI0xg1Wk6pm0yH7KdguGEKH0OHkQMb9U5MDxLSXDhXndeJ+vj49XO0tx/6lqm7qco3xBQB+a5Sud8iqQ/oAKWHZS8nREkWn0pw9EzbCzl3YCnsM5qbeF3Y/aRVJCZ6pJA9KoEPFM0loZx3yap6sWM2htlzPx72sVxcHWnIGx4ieE0tmsizDfBkHeaYynzOxF1NhHbKfAtPiBUNg1aHfuFbo0GAro5vWFvweOmRQl+rSB6mYhzAuN+B3RqYOCwoK5JRcUVHRj9ShoHeY4HCbjrWAYjqkaaz9UFJw806m56E9KpacfhF59Nde0F3wcGhmLjFKoEPFM0lobx3y6q+F4q7VgX0FjXfP7KYsvQ8wV+hLZLImMXAbZblrY644g+zFZNXhw2h1qTo8nE33QdlPIULGBUNgq8nC4KkIdXNJJVHZZG8zRGjY3jZ+A9CvoEPFB0uZCKbSGHnBu7YAAdJ1+OnTp8ePH+fl5TU2Nl/AIAF9JDYiiStMXcodxP7sMNYyiXXpbFvoUETDG3cHDrX5Kv32HfphkuVt6W0/HzbT1N09jRR+dthyCopnktDuOuTVP0/oY8kZFnt3m5O4kgmSmWzIv2hoydHwzhLNEWYvZk6sXpNiNqnqZ/H6lpyhsYyx9rL0SfgswWTGIfspmiN5wRDYarIm0VYTobkRbBOgv8ZZaSAVi0g532QgL2mu+giN8XlJopj3x/9FSGPNRRJVAh222VQaAbc39UPon4C3JAr85sjsHb579+7JkyfYiLW1MlsB2oUlJSXV1W33OPq1YGap9XPhfXV9dtB1VYYOeSV5kwbH6qzLfycUYs3LZ2bjE00Pf2DMrsEooMNXV8e77DOLyRc7+VuOzVoOtTuDNFSf+JMVdQ5kvhOesqbgmpnddtOofLKB1TRFgnmhO2/kkVLUZsf4qrZGh+wpKJ5JwvN1qznU9tQW36qmkA5xYfgLEB28+lpyxiVKyqBpJiuO7tpIWe7f/VZ4o8ZazLJ0MyuOyvarz0iparNjD2swK+pr9iJrTidOfCZpnmsfnfP7w3LjrBRhf4P1FKwXDIGtJksjZqohrUVRjI9EClWJtl0RGuvb7JLg05B/1t5syOB/VoTJfLGNLD6enK2GVEfvfkL+sDbvyDSs54n+b+h4m+mQd8MeF2BSgJzv6Ws3GuJXqiG0MLrJmDbwuyJThxhsu+fPnz99+vTzZ8Y4khDahfhfEm8zas660OsO0229slfbJvValz6JqUNeXfrBZMG6wwzb3dmOm9NMRsdSo1ODRHMRCQrosDbfbYMrZbllyP4ol5OCZWQc/jKyuamiZqom/eQB3GPQcw+1DYt1PBJsYsOhbAKCRO0lu2mqzvoJVg1uDLENi1m9Z1+vAyG4R8LQIetL2lhTUDyTNF/j/bdRlpuHHowiq+WuvaWTqM7LFE4todcd7rGIJFHvbGaTzqpDwQJE/iM3bmCTrlGzTFbdO93FktP1yGNhv5itmLxvF4P46w51XI/RFdX78InpEhVVlx3Lv5NQdw5cFXZ29d59mpYcFbfEO2KdsJ2C/YKhkVmTQirjrLshZLI5U3YLXfN0z2jszJkR0ntDCqw75FXddDNRRUjPdM4a5w1kWWFfm0uirzibDhkjmfS6Q+MFm0j8UBLjr3jl8St74POMWLSOrDs8fl+yHn4MH8NmwDtLATEt6RBTUVHx5s0brL3i4mLmwGm7uVBAVVnozlTDsfFqoy+N3fjsVkGzl7QJ30qjMzxe1+zKJPecuLzmvRKFBkvryvICw4KHOWxTt+L8sWqHweaQjSkFEm1bY1Vm8rnZm3bpWG/SXb9/kn9SXAHjTlge03wtCA09YmjrrmbjNZZ7/VZJk2eHcrzCmyWFtsgkzed8X3+/fjZuJBvCA2TOMbFyHRjFHIFi1yGv6OowS05n5tI9muaZbCzYitW7lBsgesjVcjEx1YVhwooa538j8+M9iyYVxfty99q5mRs9NZe5adrtnxGaduez5N0V2ynYLxgaGTUporHg1Fxsod7zArPLpDyoqHoeaW2ognTMuLkynhbUPjk6z1C3S78pe7MYV4q81Bff8LObNqSXjoa6dg+jSdZel14z+phsOpQ1kokxajJB6GPm4VXjDbpr0Hul9S9/AGXHZyGkOiuSbXAa+E1g0SFNaWkp7iOKBk7b14XAb0l5+nFVS9cZwncLtS9f78xuqkMloiLT2xz3ndR6T1jtnSqe11KZdXT91IFauFM11uOatN+JAFpNwfFZOghpG81Y4+IBP/8LyKVDDJbfy5cvsRSLiorAhUBb8+Wktxu1LPiklFH5dkDWJF6lofZdKtduYi8NA0af6rXvWDX9v629L7+S/jwO+B7KH53ZvHCsUU8d1V7w87+/PfLqEFNRUfHixYtHjx614bIK5QR3gh8+fPjli/j5Df4/LrhoCxxAR9vqgKqSmzOWcVQP3ikXHIC34O30AU2Oxyh+QNWHtPFYh/5k2d53pNDmB0ilrrygWDzgWV1S8KG1k2MAAJCfVugQg7/SVVXf8UTil4FusLD1CwoKRO0X3ZZ9+PBBtAUOaNsDUk4c7GzpvuRWNX0A3oK3Sz2+TQ54mHVuMtbhvqTvTqFtDwAAQBlotQ7J33VQWtWKwQHtdwDejvc2Ob6jHoD/AwDATwd0KAFupH7wKBkcIIoyD8Db8d4mx3fUA+j/AwDwcwEdAgAAAADoEAAAAABAhwAAAACA+fk6LCxkvG4GAAAAAH4GoEMAAAAAAB0CAAAAAOgQAAAAADCgQwAAAAAAHQIAAAAA6BAAAAAAMKBDQB7KU3fP+2fCYv/74veNAQDARvnNvQsnmlkdyW7vL07N25RjHlaL/du+hVaEguO28124iS9/kd99AB0CclAfb9WJwnSxv0a2AADASn3CchX0559/dnO8Tra0B9U5EauH6iCk2dciPI9sUw5KY2wMtHHGBi08cu+H/LK3YoAOm1IUlUqZxImD+aN7ZM+Po+ioOV8+Ivp6tGMe6uKW4FMsjGrxR2ULoqwGaOmYOFyEn2FvmZqCqNupga/KSbQ9+AGnaJG6+KUIocXR7fUrxA3lj6K2Lp5g2q+rTvcBwyYv90p4IW/noujYNOweEWjgFvHPJ7c5ctVDQfTyQbpdTZ0utdsXp/5V+LzeSKWvxaHUkjqyrS1poZi33HsiNDmw5Z9kafh0L8TKSB11M+c+VvYfrgYdNqUyO8/j0CNBuG82Pvan6LDy1jEPwjozfWXQISAn7y729/Gceq+CRNuDH3CKFmlfHX5J9zBVR0jb6N9Vji721pMHaCCk84/vY/LLJy1TeTt0C8F+Si+kBDpsd94cm66FtM0P57TXT0MrqkM+da8jLPSR+hjvZ/Vki3ICOmyBqkOLfo4OGeQf+ht0+OtQmh2m4bOf84ZE24MfcIqWaVcNfIicpYo0xx/IEab++bbHYCzEFfHVZIOcvPYd+xvosD7DpTdCpjsft0e/kKYtdMjjNeYdHq+CdNdeauXH+GPpeDos2zItlvr3cTaJEnKCr1LGF+xvNZB4fXX6mey5Cy91GR6va55s5p6T9K75fYtiOqx6FrNj8VjDntqI6qzRfcBIC/fIbIkBrsayzJANs4f36aKuptPTdMb6gPTS5nloUYesKTS8vxXkOGtYbx01dd1+Qyev2JeU/5Xs4l230+IPxEph4LYH5Jjzy8gmmoVnm38n6ktSuXbTBv+lpaqi0X3Q5FX7kwsYN/IZG7tT1MSAnPvHVo/vr6fZpc+w6Y6Rj3/GU4TK0uyd50OGBu7W5XoPO3l6e06p5AhcY3nJ/W3xwYOPeHU5vM8oMmrXizLG/XbJgXBPjZCrmZ8ebT4XMMB/T5+wENs7BWVkL+9+qo+Gz87/820e9jrnk2Mwnz889LoQMjRojy4+xcmovXnl4lasJsf2iKdG0IVU0abGT2Fn92j4+nu85de6nKdomfqSjGDO/NEDu2lrdx84bMqq/UlvJJunhve3g53njuzfVUu7u8GIqasPXHktumBS7HX5j8Gag4x2iH+zsb7kpr/9jKF9dDU1dHqaTLX1vsq8Hni3OIIWNPfu0VUTDLpra+sbmdsFZYkqkndv+wCEJnBfkyifvDPOK1ZsSyghUf5lnxXGsRg1oJu2Vte+w2c7BGZI+eK0qEPWFBSthwsrkPgYLJMYaV+cliqKmCY3O3TNJEP9Lt0GjJzlfOpJsy9OpkcfhEZ5PyNRJllb+iI01vfR45OO/5r8paOlZzB+pV9aaSPZLaCl60GOYsqZSZrCYDOEutpdlqub/5PogL3DO76XKePLO3JIVEDVQSy2sfeukaam5rLn5c7GcXoW6TZ7su1dU/uY4r3pp4rpvSIU0WFl0treFKXaz9zayc3D3cV2lpE2RenMiRDdSVWluQ3+g6L0hs21cXRau2i0fmeq84B118QNA00LOmRNoTLFeVBnitIwnLrC3mm91YReiKK6TAnJo+8Jnp3Z6MDHfsZAbLr+09YJYnx2Jghz+TSKjNlushgkVYcVVx0N8Cm0TWaudnBcM39E105Up17Lz78nu2kd/rN4sUG/ScvXO66ZN0wXJ6MzL0rctv0QqgqvjD3sqREQsOjSBdekM/8c2anhs2fBI/F4Y9W7pNF+npqBQUsuX+BcOjGUizVzeHOBUE2NObZ+nhpR/60M485JPM+5TB+we/ETWqkNT58mbU/FIWHmUU8NbrAt//90uJUqtG55waUxhz21g4Kt8Ckun/w7wBOrzqtY1Aw35t4O0PTZveQp3e7W52QG6/nsnpJZIrCyXKdgoSzJ3lAVqeqPmLfWheNobc4fh9S3OCO+ua+84WKiirtixtNXO25wWG7WTx2hbv+GkQvmeZS7Ex/H2Ua4u2A4w14Q4+N1XphGxTVnI5yCnumcNU7Odov+7qGCVPqtvCC6Hmgdjp8/f5DJLBsn53WLR/dUwSecc0KYQHGIOUK91iWJ5NOMqvRNQ9VwxkfOX+u8Yd2Scb1wkQbZX2/6xWlBh6wpKF4POdFkzHbzAhN+36qZDtkqSmCaiVZWRgbmKx2c7RaO7I6T6bowWvKLU3F6AUJa66+QqAQCHf49b/6g/hOt7Z3XLxnDr2mtKaFvyX6260GOYooyOXAyP5MLRnSTlkkhmW5Y3RP9hVWkjHRAHTY+ftzPOHYQl/H9KHwxxjhWz7OY3Ji8z587PrG/6+siYVNUnnr3L+NYI/8mXykFdNh4zU6b6mQeJL4wKlK919iuDcoiLWxB0IROlO78yEKSh8b3CSt7UNSogy/ouBDZOmRN4bX/2E6U2oSDucJeTnmKY3+sT7srEjdocg2W1p0VHNRUh6+5Y/ApJh9+SU5R/+7kQh2KGuz1mI7TOtQwdU/9TMfr8o5MVaeokd7P6Tgr+AtPbkolwTelReQQVhry3YM9NY/FXawigwP1ZWmTfbHeskrpeMMrN3xASELyF3LvXPUqrp+PZ8/kV3SUV3ZzvI+n5tGoyE/k4/v8MqaXj6d2Yq5wuIHmzWbsqtO3pXzj6165hXjqhCdlfCOnqClKMvXx7H9d3Drxqh8t9/fUjEzHZ/1SlPS3r2efuAfvyD4Rsk/BRnHE/F49DZefFl/2SXa4gRrsJezSvDkyXgVpmfk8E10wN5wNcQtpnyx5wcgePXsT8A9OYSo3T3Q9nF7cFaGhe57QcaJDjZG775NeSH1x9P9wS9/f4y4d532KWYrjPf/deubWm0rJ2hVQEGymgrovOiW+7M/b9EZojM9LOi5Etg5ZU1C8HsTUxQgOaqpD1ooSmEZnuMdN0RcnaLo2QqMPSbQP+dzxuO62CetOAoEO1Qztr5TRV1xDYdQSrKsBmzMFUTmuBxq2wVLtoW43yH1l7YuAqZrNMinkxf4RCA3aLhx5UkY64rPDxk+bpsRSM56I8lpwKpUyPm+XLuXLRagpWGgc22ljgeQRiujwiq0G1WlyYNMOp5D6hBV/UJ2Xxgq/cBhsUC2KmndKcoGSTB2yplAbt6wTRc08/lEQo8k5sX7lSq/LzE2K6JA+xazwTySOqU1Yinuss0+QEROBDg13MIauPx6fRlFqNhclBm1kU30/ktxnN+FYhrxDrnVvEvr47Jx+n3l86Znkc2vTntPT/fABvX12zspmdLK+Zs0R2I7OZWN+XHcfT9ObjE+zKnOmj2eXi88kilFzf5GPp96l580vtNpXsT18vKxFdyaYmuz/+XjqXGTeFzQ8SuNq+PhuefWSE+KpGXrhRvMHLbJP8R18i1mMkMqKeDqx2vgVuP8w5wTz6siNdLCx2Z0kecHIbB/pFOZGMK+H89a4I2YRKax8gQ4Hez0lUUxDoq0WQrNPiu5FK7O5iwzxJqzN3n8v4AQm5zM+mPrzq9WQqnUc87K/vl4XoYVnJL84MnXImoLi9cBAug7ZK0pgGuOdzC/OiRm4d7f2EvOKyxMUcofUEWGBDsXyw9RfWo37f+LPohmS1wOBTYdGnoxMfgif3iyTQvK8R8kevlYOOuZUmsyDlynjJC8yol59dGUsNfquRJ+orjoz6ZVf0OPN9CTSgxmDjGMpF9HgGI0ig6UViatxVw31Gm/tti/w5Pm03PcSl1PlqXkUpTLckoxFClg5WpuiJh2RNKhMHbKmUHHSAhts5XlBpAUU0KEgD01OkbEBC1BUCvLskNGXoU+35KxkVbcnTzOwY7i7ZY/PCg7w30e6igI+pY718RycSjqghfdDNHz2OuczvuQfUkb5eI7KYP4Nj1eSPMTHc+xtKXPqBac4MPWyaIQzaXtyuIGP5xDhKQhfsxdzPfX992geDvaWOm1e9inkobY4K/Y4d++OrfQtxeZF/JG8pTH0ieiOuM0FQaQFZLePlWcWNktB4D/zIOFVTZ4dMkv9PNJuwQI3xrNBTG3pg/NB222nD+6uivsff7unCsWBT4E1OWoZXQAam3F6zFPQyNQhawqK1wMD6TpkryiBaSRmqdCnE35YNKw6HOvLXIeY5Y43TeCKE23xeiCw6ZA1k0JAh3LQHjpsePCot3GsyRHBzJVPr6YNjtXdViS+G6wq9ZiXILG4kA5tqUP818/Pbl044i813Pjz6aQ5eOmR+8KnVbSrpDAxQLJ9lKlD1hR+gA6lnUKgQ1EplECHdQkXdmr4nIlm9AYkoQ+IOss4oD7vnK6P5/8ek01p1/Zr+ITQlxNN7Yv/dHx2LsuRKMW3Z1FaPjtX5AoHn8TQpxBNfhEFz4WPJGu0/p1XOH97v+T85qlgZJ+CncqbW0bq4la4CW2oQ2kpNPGfFB22SNXzU9b9cS9nQyp9OrkHz2XqkDWFH6BD9oqSU4d+475fh2zXA6FtdWiwtckkR6WiY+qQ1/hxo1ksNftpDrZhXPofxglrUsUNyOPAK5Tx+emhH95VC2/36wuWtHHvUEhj9YdXD26eD/dcaKhCUf02ZtCnEPSrtBzYX1XRcu+wpRQ6Ru9Q8cHS976RnhrHrsi+KaUPSGZ+Td/cDdbw8dlGrsyqE2c9NQ7HJTE6hy8zAzV8DntJdkie3w7A3VAvKd1QwSmO38glUVl8Tb16WMuHOzxsp0ZQ/DWJB1UE2adg5cmeoQh1m3Xo1rsvwrqXbLwU18D39Q7ZKAmeilAv19uCiKBvp+uUIoi0RMu9w5ZS+AE6bKveYSG/arq5pJKoBGw6ZL0eCC0Us3U6zN5miNCwvdJmwSoLHVSHuB0+cIkyTj7wqvaMYzz1953L4lv/utMOsZRp1iXmAHnV69ntpEMR9Xfc+/EnutCzMwRP/jpZxrCuwmn52WFLKdQIHuzNCGOOqz0JWb1kybYLEkNtCuhQzmeHiuiQ9V6elTzOEU+NyDThrBhM45MHsdbnr18jVUcfkM5YrVD9X/wuDe65SySPb7cd89SIuMloWBqSLnlp+JySrLOGy1I20uS54lOIZu5Ip7Hg6ek+PrvG3nxXlHOmm8+uqXebTpZs8RRsfIlahJCGzWXmZV95xoLReNUIHmjNDmdeHU/D1ixduiNR8oKR2T7K++xQ9meXfXj22LErTjGuF3yTEPU/FaS64oIg54InfyrLzrF+cVp+dthSCorXAwOFnh2ymqYm0VaTn47EM00Cy7ND9uuB0FY6/BpnpYFULCJ/2usj5KDD6rAh+2FP41iz43krRsTqbC5kfpZJOxIo4yueOaL+Yv2jiJt6Js11WBNuF0uNzEps8XqXTrb3eCMjM69Mxghtkg02w7QQcuUWBk/qTOnMDRctd6x5eshMv7vpttsSz7F5FeGzKErTOrH5l5c1BcHMUtVx+58K8192ZV1fiuq6LlmymCnrdChqPLfZHEYm0nXIexMwTjCzVDRBrlAws9R0j3CCnBIMlhZ4hnhqcE+fqSKdu5pPmfMCPLXOZAozVbCDf8B/ccIq/vwuaYyfZ+9LL8hkf3rOy4UcRm/tk/8pT42jSVkkSvPlZAzuRMYnkyiTQq8wT41AcYev7nP26tADxolPReOv30pvTOJ66kfdfoE/vYZ8dyzgo+dTm3YQWziFkLqc0EVGeroDph8STt6kabyyXg+hobseiD7Cr4/9Z+njVlnUeAlmVGpO8BYtgS9Lth+IUA/7q5If1g37rghNCpBywbwNnKAiMWGyUDBhcvg+0dQZFh1+PDVfHakO25RWIeyKf8sNmNqFP++T3M8Uhpiroq7zI8SXfY7vlF49h+/IbPLFiZiLUJdVF6V8cdhSULwexEjXIXtFyWma0oiZakhrUVTzOydah1omG66Sa6yhONqyu1iQclwPBNnFbI0OqxJtcTKSvVWlo8PqkNfwwWVSLDK7pG+csPqG8MIX8CX70SAsv5FJ/3pku+y+u2DxxW4bMmcPaa5D3pvom+rGcX8tzeKQ17Y9OnpPLLiW+JbpZtiZonSGzLF1cfdw32A7y5i/7nBupOjSqUrfNAR37/SGWdg6uTiummXShaK6TA7KbXohvQmZpk51/mv8Sg6ZL+NxNJ2++FlTqLxOrzs0mLrC3nm95fie/HWHU0PJ8ikR5fHLu1KU9tD5awWrDh0cwu7RR1TfO0FOSdYdGlq4kbh3El2QymtO9LrDWfy1jwvodYfW4uVTSqDDhkfp/lo+ntrBISuTEl0Sjw/hemocOXnik+iaaHiQxsUH6IYcX5N8wSnh2EA/T+2wxFRRO1p6daiP58h05gDlC0d/T43ou5I35XVXk/Zp+OwZm3BxGz1Z5lGh8GJpyMkM1PHx7B4WsS75ouulk38H7NQIjAh9L8xD9QvnULwl6hyZVs/Lvxus5eM1/T7jcSWfFk4h5OWBkfzV0wj13dLE1plbTHBj18V4po2T6wa7//3T5y8rawvcIxE3XpUp9Ho7o+mrHV0clk3qy19vN1243k5EefzKHgjpjVi0jixEO35feETl9Q30crq5/CV9/6OX061KbLLusIWefc3D/eN0EFLtOXrhWmcXhxXT+HNMVQc5XRU1+FUZm4fh7p3+yAV2G1ydbeeadsOZnBr8rOkF9TZshjZS7TPJZiMZXt9yLIN8cdhSULQeGCP89LpD4wWbSPyQ8IvDUlHymqYyzhrn3mRzZrNfzBDo0Mx6hcnASSscNthbju2Jz6c1JVSYpBzXA43sj1t+HdY83TMae3tmRGtGyX88HVeHvMa0fRf5E2SkdO8a3qTnLFua9NeoeO2JV/7dmXevsmilNB3yGqpTjmWOnnpB1TiWnm4z8WSzy04GdUXpgY6zhvXrqt6Z+kOrh8GoORtPZEvcxDV+ygxxnj28t466um5vk0nWXnE5wtaQSUNxyv6lo/vrqWKLCBDbhTWFhvcZgQ4zh/bSVlXT7WtqtmLfZfFbaRh8zPS1HttPV4WcQOgqmbN1+C+uEQ7f1pekHrabatJDUwVpdDM0W7nvyltGC60EOsTVVJ5y++yU0P16h/f0Dzu6KDkz/bPk2RvKkjOiJ4Xs0/Xz6nns6OJrd+4KFyBiagSzV5YyO4efb0/z8eyV3PRlMA2fc7fFcPtx6Vkzkgc0VqRmnp0csg/noV/o0UVXb6dWCPPQWHYydr+Gz2FOPqMnU/NkJTZucGJak5y2cAqa2keBFga6XfpN2ZvV9FKteZvsvWLS4D562np9TGc6hNwvv2zTpPlreH/rqNOcEf30NLW6Dxw+ZfWBJPHbWBh8zDy8arxBdw0ycM1Mgf+WovXTTXt30VDX+ct4is2B5AKmseV4dliVe3bXysmDe+EUNLsN+Hue87HbJRIiavyUFeZiMap/V23t7v1NzVftic+V/sW54W09zlBfU/iCGHHDzZqCYvUga4QfYySa99JyRcltmsaCU3Nxp6/3vMBsssCQINDhRP9nOWec+G+l0dQb2PStNHJcDzSyPm45M1n1PNLaUAXpmHG/awrYD6QD6xAAAKDjU5HpbY77b2q9J6z2ThU9nxbocJzfzx2crMw6un7qQNzB1xvrcU3iyatSAjoEAAD4tal9l8q1m9hLw0C86EKgw5/9rO6171g1/b+tvS+/ajpCp5SADgEAADoCdeUFxaI3+CiFDqtLCj40fbqtxIAOAQAAOhxKocNfDNAhAAAAAIAOAQAAAAB0CAAAAAAY0CEAAAAAgA4BAAAAAHQIAAAAABjQIQAAAACADgEAAAAAdAgAAAAAGNAhAAAAAIAOAQAAAAB0CAAAAAAY0CEAAAAAgA5/AcpTd8/7Z8Ji//vy/hA/8L2U39y7cKKZ1ZHs9q7qmrcpxzysFvu3/fdJEQqO28534Sa+FP1IEAD8ToAOlZ76eKtOFKaL/TWyBWgn6hOWq6A///yzm+N1sqU9qM6JWD1UByHNvhbhyvXzO6UxNgbaOGODFh65V0m2AcBvA+iwKUVHzfnyEdHX4x7Z0w7UxS3Bp1gY1eJPRRdEWQ3Q0jFxuPiBbPjxXLZTQwgtjm79T1pfWIH4gmnC3IhPZH9zKk7PRUjN5gKJthV18UvZi1AQvXyQbldTp0syqvrrs2jX2aZ9dXFt4FIgNMz7GdkjL/Wvwuf1Rip9LQ6lltSRbW1JC8W85d4TocmBBSQqnYZP90KsjNRRN3Pu41/iB8wBoM0AHTal8tYxD8I6M31l0KES8P06zIneIsBucg+EuoxdQcdO3JU9GvkzdchC9q7BKkjHdIHjJroYW7gppWSXnLw5Nl0LaZsfzmmvnwhXVId86l5HWOgj9THez+rJFgD4HQAdtkD+ob9BhwKS7bVwI7s0ppbEW88z72EI9XW/RaItoLw6LA4yR+ivDemNJN5q6jNceiNkuvNxe/QLadpChzxeY97h8SpId+2larIBAH4DOqgOq57F7Fg81rCnNqI6a3QfMNLCPTK7nOwT0FiWGbJh9vA+XdTVdHqazlgfkF7a/E64RR2yptDw/laQ46xhvXXU1HX7DZ28Yl9S/leyi3fdTos/ECuFgdsekGPOLyObaBaebd7C1Zekcu2mDf5LS1VFo/ugyav2JxcwhJWxsTtFTQzIuX9s9fj+eppd+gyb7hj5+LueCQlaUi27yyT6HbSgw8oHYfb/GvXQ0u5uMHGVf1ZB1PwmOmwsywrjWIwa0E1bq2vf4bMdAjOYVU1a+dzs0DWTDPW7dBswcpbzqSeiYqbY60oZrcUgox0PyTESI7pYJjHSnfnadyxCA7fcJ1ERT3cNQUhv1UXRxyvg6d7hfHmmMj6RTI8+CI2SOsCataUvQmN9Hz0+6fivyV86WnoG41f6pZVKmLe+JCOYM3/0wG7a2t0HDpuyan/SG5Gu5CgmS0VJUhhshlBXu8vffwMEAL8aHVKHlUlre1OUaj9zayc3D3cX21lG2hSlMydCdF9cleY2+A+K0hs218bRae2i0fqdqc4D1l0rI7uFtKBD1hQqU5wHdaYoDcOpK+yd1ltN6IUoqsuUkLwGwd5nZzY68LGfMRCbrv+0dYIYn50Jwlw+jSJjtpssBknVYcVVRwN8Cm2TmasdHNfMH9G1E9Wp1/Lz78luWof/LF5s0G/S8vWOa+YN08XJ6MyLKiH7W8EjLyOEermmkeh3IFOHn84t08etdtehc9c6OdnONOlnZTVTQodV6ZuGqiGkP3L+WucN65aM66WKVAfZXxdVtaCVn2hlZWRgvtLB2W7hyO64e9R1YTQp5vModyc+jrNxEZDhDHtBjI/XeWFVC0d0t2xeYMLvW0nqsDjZj95rP6UX1t44GzrGhwyW5vlgT2ovO8dUS85uU4T6uGQwxF1xegG+qVh/hUQlEOjw73nzB/WfaG3vvH7JmJ4q+NgpoW/Jfh6vLMneEBddf8S8tS4cR2vzARq4UizOkDLIUUxRRQ2czK+oBSO6SVRUEzLdsLon+ou+MwDQ4emIOmy8ZqdNdTIPEn/NK1K919iuDcoiY1QFQRM6UbrzIwtJU9X4PmFlD4oadfAFHRciW4esKbz2H9uJUptwMFf4jKg8xbE/1qfdFYnbbbkGS+vOCg5qqsPX3DH4FJMPvySnqH93cqEORQ32ekzHaR1qmLqnfqbjdXlHpqpT1Ejv53S8FeRzxyBkvDObRL8DWTrM8x2Fm31zUSm+3t87Xpupw4JgMxXUfdEpcVWft+mN0Bifl3ScbuV1hnvcFBUzaDpOYfQhyU9TrsHSuhjBQZI6fOo1WEbHSzSV5h0/k5oLTotvh57sGYx7kptu07c/NPnc8Qj133aXRCUQ6FDN0P5KGd0hbCiMWoJ1NWBzpiCKpRwxv1dPw+Wni4R+LU+yw8Ia7CXs4tKwDZZqD3W7UUHHa18ETNVsXlGEF/tHIDRou3CsAgA6Ph1Sh1dsNahOkwOLSbwp9Qkr/qA6L41lzGbABtWiqHmnJCd4yNQhawq1ccs6UdTM4x8FMZqcE+tXrvS6zNykiA7pU8wKZ0zRrE1Yinuss0+QTopAh4Y7GA77eHwaRanZXGz1w6/SsGlMA30HMnRYl2iLOzlzTjBqRaBekQ7rz69WQ6rWccyqvr5eF6GFZ8iHJWjlJVT98cQMrNi1lySK+f06FCFrsBTz8cQcDaQ244RwZs1DryEIGWy/J5GFPMHf75D297QOxfLD1F9ajavGIlLm6Pa3mMUIqayIZxqXVYdGnoyK+hA+vXlFEfK88X2K9MICQMekQw6WViSuxl011Gu8tdu+wJPn03LfSzQOlafmUZTKcEsyFilg5Whtipp0RNKgMnXImkLFSQtssJXnBZEWUECHgjw0OUXGBixAUSnIs0PGcBd9uiVnWz2T4+t/ixCadqyIRL8DGTqsOL0Ad7Mk5s1ITqWpPLMQIY1Ry8jopACbcXoImQeRYgpaeYkZIrQSlsZIFLN9dcirOGuljVSmHKWz8cjTGCvas8m3hVWHY32Z6xCz3PGmCVxxwWqLs2KPc/fu2EpXw+ZF/JFd+YspZ0URQIfAb0dHnUrz/OzWhSP+UsONP59OmoOXHrlPxoiIq6QwMUCyvZepQ9YUfoAOpZ1CoENRKdpQh7xLuI+28IzMjgo736tD+oDm4HadFFM5dMj7eml1V4TG+b3G3dfsnUYIDd3zhOwSkuc37vt1WHlzy0hdUngG7atDg60KjI8DwC9GB9UhTWP1h1cPbp4P91xoqEJR/TZm0F97Qb9Ky4H9xSMt9w5bSqGj9Q55ac76aFUCY1pIa1God6jrlELHpKEkOuTVXnfshdCwA7mN97ZjGw4/2OwRbWHwVIS6uaSSqARsOnyyZyj+21mHbr37IixWa4vZOh1mbzPEpdnb2tcMAMCvS4fWoYj6O+79+BNdXtEx/pO/TpYxrGuqWn522FIKNYIHezPCmC83eRKyesmSbRck3neigA7lfHbYRjpUGNnPDtXZnx2qLDsn+8NSFh3y6jM3D0Bo5IGoHdiGY3zyyWYxNYm2mgjNjZB4fExgeXb4JWoRQho2l5nPCSvPWLSqmK3S4dc4Kw2kYhEpHFIBgI5PR9Rhtvd4IyMzr0zx7IuqJBtshmkhpB0qDJ7UmdKZG/5O2NupeXrITL+76TaJeYC4nxI+i6I0rRObN8WsKQhmlqqO2/9U2CyVXVnXl6K6rkuWbHpS1ulQ1HjuOxKVinQd8t4EjBPMLM0j5awvFMwsNRWN0bWhDhu/lL7JL6ps9d+JkaFD3kvBzNIp/nlkxu237L3jsDNEOuQVhpiroq7zI8RVneM7pVfP4TsySVXL28rfsO+K0KSAlqtaER2SBYgDBw7kd+pek21MSiNmqiGtRVFNV/RgBDrUMtlwlSyPbSiOtuwuFmTjlfV6CA3d9UCUs6+P/Wfpq7SmmK3RYVWiLU5GsrcKAB2cjqjDb5luhp0pSmfIHFsXdw/3DbazjPnrDudGihqCqvRNQ3D3Tm+Yha2Ti+OqWSZdKKrL5KDcps3Cm5Bp6lTnv8av5JD5Mh5H0+mmjDWFyuv0ukODqSvsnddbju/JX3c4NZSsOxRRHr+8K0VpD52/lqw7DLtHH1F97wQ5JVl3aGjhRuLeSXRBKq850esOZ/HXPi6g1x1aX5Bcd9gWOmy4vdlQFbeb+jaXWv1bB6wvafsUs1Sw7nDYPDtn5zWzBvebP9+cqUNeVcbmYbiDqD9ygd0GV2fbuabdEOo2NfiZsBDytvLl8StxFvRGLFpHFuQdv0+q+n4knSvhukPjBcKXsB0iVU3DqkP+AkT+8zyVSWRKTVMq46xx7k02ZzZ7R51Ah2bWK0wGTlrhsMHecmxPXONaU0KF6XzJ3GKC5dfFeKaNk+sGu//90+cvK2sLtVYUsxU6rHm6ZzT29swIBeZOAcAvR8ccLK0rSg90nDWsX1f1ztQfWj0MRs3ZeCJb4pa88VNmiPPs4b111NV1e5tMsvaKyyHL1iRoKE7Zv3R0fz1VbBEBYruwptDwPiPQYebQXtqqarp9Tc1W7LssfisNg4+ZvtZj++mqkBMIXSVztg7/xTXC4dv6ktTDdlNNemiqII1uhmYr9115y1iQ0Ha9wyfcyfpqql3HeN1lJC8fcrzCu/JBmMO/xvpaWt0Gjl/hd/t1s5e0NX7KCnOxGNW/q7Z29/6m5qv2xOcyqlr+Vv5j5uFV4w26a9B5EB0ga7YOxkhi3gu7DnkvfUYipDrtmKxXHTQWnJqLO3295wVmkwWGBIEOJ/o/yznjxH8rjabewKZvpal5m+y9YtLgPnraen1MZzqE3C+/bCNFhzKLKW9FVT2PtDZUQTpm3FwFnhUDwK/H7/HsEAB+COXRSzSR6uzwll78U5HpbY77b2q9J6z2ThW9AVygw3F+P3dwsjLr6PqpA7Vw53Ksx7Wf9/spAPBzAB0CQFtRdnqBBlKfe5rR9ZVK7btUrt3EXhoG4s6nQIc/+1kd7v6q6f9t7X35lfSHpwDQoQEdAkAb8fHkbHWkuShK4mXxsqkrLygWPYtVCh1WlxR8aPVwOAB0FECHANA2lByfpYq0lsZ818sKlEKHAPBbAzoEAAAAANAhAAAAAIAOAQAAAAADOgQAAAAAJdAhAAAAAPx0QIcAAAAAADoEAAAAANAhAAAAAGBAhwAAAAAAOgQAAAAA0CEAAAAAYFqtw6qqVv8CbOsovua33cv32JlrL6X9ACEAAAAAtAOt0GF5efnLly8fP35cVNSeP5L9dO9gwQ/GIrU+c448gh+aAQAAAH4A8uqwuLg4Jyfn+fPnpaWlT548efv2bWOjxK95tyUN3z7mnFtrrILUF0TL+WM5AAAAAKAA7Dr89OkT3SnEIqQVWF1dnZubizfW1dXRqbQHd7YaIDT84HMSBQAAAID2oyUdVlRUFBQUYBG+evWqpkbiZ0GxCLEOsRSxGsmmtiZ1Qw+EzEOKSRQAAAAA2g+ZOnz//j22XU5OTllZGTlWEtxTfPv27ZMnT7A1yaa2pC5mqQpCVnG1JA4AAAAA7Yd0HX769Al3Ct+9e1dfX08OlEFpaSk+sknfsS0oCZ6KkL5zGokCAAAAQDsis3dYUFCAVUeOapGioiI5j2wN7wImIdTHLZNEAQAAAKAdkanDwsJCOSWHD2sHHTbc3zlEBQ1xSswrq2bpoQIAAACAgiitDnm82oIL7hO7C9Yg8pchatklkx0AAAAA0MbIpcNH0qB3YdpJh58zto/QQl2Hz7dz2bQF4xnzguwBAAAAgDZGaXuHFacXqCOd5Qnt/Eo4AAAAAMAorQ4LuBMQ6rfpDokCAAAAQDuitDqsjLRASGvtFRIFAAAAgHZEeafSXLbTRsjiTCWJAgAAAED7obw6FLyzdAw3n0QBAAAAoP1oSYfFxcX1kkj9scP20WFVnHVX0CEAAADwY5CpwxcvXpAVFXLw6tUrkp7iFF/z2+xqZ2Gqi5DGmIO5DWQzAAAAALQfMnUoFWw+8nftx9O9g1W1ehiOnLsh9M57kCEAAADwI1A+HQIAAADADwd0CAAAAACgQwAAAAAAHQIAAAAABnQIAAAAAKBDAAAAAAAdAgAAAACGqq/9KH/AOmyyBQIECBAgQOgAAXQIAQIECBAggA4hQIAAAQIE0CEECBAgQICAA+gQAgQIECBAAB1CgAABAgQIoEMIECBAgAABB9AhBAgQIECAADqEAAECBAgQQIcQIECAAAECDqBDCBAgQIAAAXQIAQIECBAggA4hQIAAAQIEHECHECBAgAABAugQAgQIECBAAB1CgAABAgQIOIAOIUCAAAECBNAhBAgQIECAADqEAAECBAgQcAAdQoAAAQIECKBDCBAgQIAAAeuQBwAAAAC/PaBDAAAA4LeHx/t/Suiz0AduU+4AAAAASUVORK5CYII=;fontFamily=Lucida Console;fontSize=13;sketch=1;curveFitting=1;jiggle=2;" vertex="1" parent="1">
          <mxGeometry x="340" y="950" width="424.29" height="133" as="geometry" />
        </mxCell>
        <mxCell id="w7ae5QyoEXNDG0QztSoP-7" value="&lt;b style=&quot;font-size: 13px;&quot;&gt;selection&lt;/b&gt;代表是发送消息到指定路径的Actor的代理，这里可以理解成 &lt;b style=&quot;font-size: 13px;&quot;&gt;BoxOffice的ActorRef&lt;/b&gt;&lt;br style=&quot;font-size: 13px;&quot;&gt;&lt;br style=&quot;font-size: 13px;&quot;&gt;注意 &lt;b style=&quot;font-size: 13px;&quot;&gt;Identify&lt;/b&gt;消息时Akka框架内置的一种消息类型" style="text;html=1;strokeColor=#82b366;fillColor=#d5e8d4;align=center;verticalAlign=middle;whiteSpace=wrap;rounded=0;fontSize=13;fontFamily=Lucida Console;sketch=1;curveFitting=1;jiggle=2;" vertex="1" parent="1">
          <mxGeometry x="600" y="1050" width="390" height="77" as="geometry" />
        </mxCell>
        <mxCell id="w7ae5QyoEXNDG0QztSoP-9" value="" style="curved=1;endArrow=classic;html=1;rounded=0;dashed=1;fontFamily=Lucida Console;fontSize=13;sketch=1;curveFitting=1;jiggle=2;" edge="1" parent="1">
          <mxGeometry width="50" height="50" relative="1" as="geometry">
            <mxPoint x="780" y="1300" as="sourcePoint" />
            <mxPoint x="260" y="1470" as="targetPoint" />
            <Array as="points">
              <mxPoint x="630" y="1410" />
            </Array>
          </mxGeometry>
        </mxCell>
        <mxCell id="w7ae5QyoEXNDG0QztSoP-12" value="如果Actor存在的话，返回 ActorIdentity消息（该消息包含发送Identify消息的原路径和实际Actor引用）" style="text;html=1;strokeColor=none;fillColor=default;align=center;verticalAlign=middle;whiteSpace=wrap;rounded=0;fontFamily=Lucida Console;fontSize=13;sketch=1;curveFitting=1;jiggle=2;" vertex="1" parent="1">
          <mxGeometry x="560" y="1342.5" width="310" height="77.5" as="geometry" />
        </mxCell>
        <mxCell id="w7ae5QyoEXNDG0QztSoP-29" value="" style="edgeStyle=orthogonalEdgeStyle;rounded=0;orthogonalLoop=1;jettySize=auto;html=1;sketch=1;curveFitting=1;jiggle=2;" edge="1" parent="1" source="w7ae5QyoEXNDG0QztSoP-13" target="w7ae5QyoEXNDG0QztSoP-15">
          <mxGeometry relative="1" as="geometry" />
        </mxCell>
        <mxCell id="w7ae5QyoEXNDG0QztSoP-13" value="def receive = identify" style="rounded=0;whiteSpace=wrap;html=1;fontFamily=Lucida Console;fontSize=13;sketch=1;curveFitting=1;jiggle=2;" vertex="1" parent="1">
          <mxGeometry x="117.50999999999999" y="1370" width="185" height="45" as="geometry" />
        </mxCell>
        <mxCell id="w7ae5QyoEXNDG0QztSoP-15" value="receive()" style="text;html=1;strokeColor=none;fillColor=default;align=center;verticalAlign=middle;whiteSpace=wrap;rounded=0;fontFamily=Lucida Console;fontSize=13;sketch=1;curveFitting=1;jiggle=2;" vertex="1" parent="1">
          <mxGeometry x="165" y="1460" width="90" height="30" as="geometry" />
        </mxCell>
        <mxCell id="w7ae5QyoEXNDG0QztSoP-20" value="根据Path 根据&lt;b&gt;RemoteLookupProxy的context创建（查找）&lt;/b&gt;一个子 Actor&amp;nbsp; &lt;b&gt;selection（ActorSelection&lt;/b&gt;&lt;b&gt;）&lt;/b&gt;。&lt;br&gt;&lt;br&gt;注意：根据此时 selection并不是一个真正的ActorRef，而是一个可以用来发送消息到指定路径 Actor的代理，Akka允许该类型发送消息" style="rounded=0;whiteSpace=wrap;html=1;sketch=1;curveFitting=1;jiggle=2;" vertex="1" parent="1">
          <mxGeometry x="51.88" y="1210" width="316.25" height="110" as="geometry" />
        </mxCell>
        <mxCell id="w7ae5QyoEXNDG0QztSoP-22" value="&lt;div style=&quot;background-color: rgb(255, 255, 255); color: rgb(8, 8, 8); font-size: 13px;&quot;&gt;&lt;div style=&quot;font-size: 13px;&quot;&gt;&lt;span style=&quot;color: rgb(0, 51, 179); font-size: 13px;&quot;&gt;val &lt;/span&gt;&lt;span style=&quot;color: rgb(0, 0, 0); font-size: 13px;&quot;&gt;selection &lt;/span&gt;= &lt;span style=&quot;color: rgb(135, 16, 148); font-style: italic; font-size: 13px;&quot;&gt;context&lt;/span&gt;.actorSelection(path)&lt;/div&gt;&lt;/div&gt;" style="text;whiteSpace=wrap;html=1;fontFamily=Lucida Console;fontSize=13;sketch=1;curveFitting=1;jiggle=2;" vertex="1" parent="1">
          <mxGeometry x="15" y="1150" width="390" height="30" as="geometry" />
        </mxCell>
        <mxCell id="w7ae5QyoEXNDG0QztSoP-25" value="" style="endArrow=classic;html=1;rounded=0;entryX=0;entryY=0.5;entryDx=0;entryDy=0;sketch=1;curveFitting=1;jiggle=2;" edge="1" parent="1" target="w7ae5QyoEXNDG0QztSoP-2">
          <mxGeometry width="50" height="50" relative="1" as="geometry">
            <mxPoint x="370" y="1260" as="sourcePoint" />
            <mxPoint x="420" y="1180" as="targetPoint" />
          </mxGeometry>
        </mxCell>
        <mxCell id="w7ae5QyoEXNDG0QztSoP-33" value="" style="endArrow=classic;html=1;rounded=0;exitX=0.25;exitY=1;exitDx=0;exitDy=0;sketch=1;curveFitting=1;jiggle=2;" edge="1" parent="1" source="w7ae5QyoEXNDG0QztSoP-15">
          <mxGeometry width="50" height="50" relative="1" as="geometry">
            <mxPoint x="190" y="1500" as="sourcePoint" />
            <mxPoint x="90" y="1560" as="targetPoint" />
          </mxGeometry>
        </mxCell>
        <mxCell id="w7ae5QyoEXNDG0QztSoP-34" value="" style="shape=image;imageAspect=0;aspect=fixed;verticalLabelPosition=bottom;verticalAlign=top;image=data:image/png,iVBORw0KGgoAAAANSUhEUgAAAcoAAACmCAIAAADVv1geAAAAAXNSR0IArs4c6QAAAARnQU1BAACxjwv8YQUAAAAJcEhZcwAAEnQAABJ0Ad5mH3gAAE7GSURBVHhe7Z0JUBNZF+9TljX9UVDwggUvQIEFWGwFggWI8BQQpFzHcdwFSp0ZRWZccBnHcd8QZRHUAGERxbAKQREi+6qIyKIggiibIIi44KioBIG8XpNOSBpEMgN6f9VV9M2lb5++6f73uadv+tD4AAAAAJABQF4BAABAJojL67Nnz/A1AAAAAHwFQF4BAABAJgB5BQAAAJkA5BUAAABkApBXAAAAkAlAXgEAAEAmAHn9rhjo5fUO4OujR19XXXZ8fhNegvlYk8w8y6nqxov/FWPEjK9lUPeOCZry47Ifdn3GSyJQVH1nfOPy+sDb8n//+5/5qft4eVi8us0+E33nFV76Ol6wl8IGkFnKfoHXifA2diXE2JmHl0YOlfEdiS5qkJpLYgdeFjLyQ+5t4e5x1FLQtA8k9/GnSk9rRbN9tz7g5a9HsoV5OxnQyti3eGkQo2zG57bCMxvnmGkz1A1mLN17ufY9/rkMkdy9I+RV8SV/dsnonNj8+4H2mgpajnu4Lb34JwIoqr4zvm15fRn5E6SnpwctiujEPxkOj/1mQLPOPMZLXwevveoGTPRWQ8hwazSyWtXOw+tEGC15pTK+86qbnorepquDO2Okh/w6x8NE0dQtpm6Q0vCq/WYpmR0qGS3XUbKFQ8jrqJrx+eFZO0WG3Y7Qaxlp8d6rDOSmbMnowutkhPTuHRGPfCxp1v6P8NLX874uZqOp4lSPnMHdQFH1PfFNyysvfZOyxp9HdjLoG6/34J8Ng9GUV5yHfhaQhd9DvCSJf0NepTOyrXjF+4zlbLxrJN4vRpkRyusoUutrBc30b8BL3Vd+UVLaxJWlezbq3Tva8grDqzllI2e8r1iCjRRV3w2ykNf+lqKHa11z1GemTVlRvDftH5Ln0N9cUOPinEmfcV1nxa09XHIVryy+wnFxuqJFqpJjzkKvJzWf8Ap4q6a8mpWrka10Xe74FH8cblSn7Ig+tCyuIeZnSO9wGf4ZCq812+eX2WaTVdUNZyzfz3mIm/H4zAwIwsfwBJATqw2r5X9quu7pbGuiqappYuvseb1JYGBP8m+QwubYgpM/m2moTjZbsCOKaJFAsry+KWNtsjfSYOjabrpUErmaLK+8Zu6JNTP1VJUZBnbr/HLbBYeMCkp4PsvVajJDw2i2O6v8DVZBaTw5RmF2ohL9DIViq9eXVygqrrn8GvtHmI8ZWxgKy+IEg0tevoem/MrYLxhs3titCS0Nu8neZDcFHmDP+vVsibB1Pu9Jmtc6WwNVZTV9q6V7E2qH86VI7Q0ZUHbECFp4/jle4vPedLS9eN+Hl6ScGy/Yi6Gl3hHuZhqGLlEPyvwX6GhOXXvpEfFtSv2WEaR2L6/5uqeLjS5dYZKOxU974mvIF1FLlvdaW2N1usoUy5+FffjI35I2CIdg4YnNPbbKxoBBZxjYrDrGJZ3YV9fTfnCPzj+x2ESVrm4814NNtCjkVexKOc3tBZLuMxRVg/nc0y1OD9YfHzO9t7FymgbteRww+vLaU1MzzSLNwacx5eaz2NDbuuaZW4rwG1hPZbWheZqDdxNcFcUs0piWtasU7/uBqmrtaVlrLj7NudOZmVb7o0OKWQh+pfRUVRuZpzudbkq90Xbx9E01yzzfx8N6PPOENQey8H7Irzk5DXIIEj4a6LnnZSmv4bQnIjUzHR3l6Xlko/vqbirOhrn0uzFkuvkSsgpT+uQjtlXFsWlymvP3R3IzuJf2z9eUm3asHHeJUXk1c9p8JOZ6Rkr4TlsGZLr/toi7LEle3+V46ECTFx5iczNSQjw2zbEWymtP6RFTOS1iXwu0FGxO1+CXHiIo5rPWb2Vdy+BG/u2kDk3ZmY+eeJTG4zGKG0m7pkMi8kq11bsrv0xSEIaKe9I3qymujhfq1xOW/RAuuTiIvJrPXLs5ODnjevTRxdqQ1h9pxLd859BUOXWnvy6kZqXHHIOrDHffGPq40N6AG2RdSxftDRnwIW+nDmSwJqjo+SB/TOq5gcir3srTSSmnl2vq2GwPTE06NJfO8MhDVZniW0aQ0r09JQcMJ6g4/Hk+JTMt6shCDdqUXYX4Iffc9Zw2UdVhd3hKRlrsqeW6E7S3ZGEnduOtLJiLbvo0I/eLyCrMnWb8xC4/MnUCw2nvBW469+JeJ8aEqUfKiBMbkVcTB/dDUdz0a6HbbZRpRnuLxceBtb7m0GxWC14SgaJKnO4E50E3UecE9MB6H1z61UpNQcdx/Ins6MvrLb8M2m8N7Xipl7Obq3CoHRPR9tuPj8d0EpG/7sB1Kdr+L7HCq+Ri2rz7Ahfzbee7x5248hacSqNtbCS8ho+hG1J0zwzHY+rmuCqobM38zP+cvllF3iVREL8q3qcLzQslLOxOWq+k/Eca6RYreRyKbDU/jOid9tB50JT9t7ECIq+QYxjuDAw89LOGDA5VYCUMSfJasEsDWhCOP2bqu3t4qlBeC//UIDlKHeEL4PZKsQIiKCaHKnCv6TG6K7wKhXqY38ZyEpVXHMlbfcjYoia34CLWU5+y/lBTWssRqiu/yssEcgonXKDhgMir0YEyXEM6Ly6GVLfnYIX2vOATrALi3Hga7AjpHSjBSwjSgwPGggYf+c4Q643R5XXhUUc1CFLQslq1OyS/FVMnBKnnBiKvM5mNfP57zmpoxeV/+PzmYDtoSTR6/lJ8ywhSurc9N/B4cD7RUa2B9jTtffh5eOtvLdocluDE5rjKKWy6TjqxJQcHkK2cQgTGs+bQJu8txgqIvNLsQ55ipYFan+k03QPlWElAW7gTZOJVhZdEoKgSp/9lfbk49S/78Vp+35vaZN8N1urjTGRHXV77Enal0E8IhlASGOjr+/Dxc/dHXszOlB8O47sbqK0xnJbu5NN4teR1wxtiyIWANMjw6uhGNkGWLK802u6nQwd0+m/u1IQWX0Tk69mFHyHNnTfx7+oTxxVS3ZGLFSQh8Ur+xFkLqRBaAJOzXQVay8GGUYi8yv+eia7D8HL+NjPbmy84NWAkyOuHRBeyGf/ErBDI60fYQs2d2fgQqbs7e6cGtD4JO2REUJZHEyKHWKW4JQMvIYymvPJ5hTu0obkhiPvxKXMrg772KjnMWXnCeATy+jNbEBBA9GVV3Du8hDDwuecDcsRv4lwghc3p+KcI0uWVqjdGnf43dZnnj25yMqBDmj9drMd0Xfq5gcgr6r51JzlDzkmwKrSwZkOL0REB1beMQNm9go6KWQ0P39PQzz4lrKHRPYRmDEKivH5KdKYpbSMZv02J5pyIn9iwvE50E3QoL/svY5M9eeQTGwbRUGMJ5xQMRdWIgHs/1X/TTE1FnR054k70mGTU5fVz/I4UZS/J8trT1OrxWxbdMoVmnootAnmFN6xLr17lnKkwDa7lGm6tKcD9WqRBwf/jy46WoW9fdactIYOjZZ8Ryo4aCNUNGYZQPkSSeCWLb4Vc2PjgBY+9ZqPrkpEgr2INkh9tUQyU0P0KH+b0JK0blgwRfKG88vtu7zeEbM828XsytqhP+i1ZpNtHJq9L2YKHyUiROJaeR5wd841UFYQHPlx5peoNmfHhgY+DotomLtoh0s8NKnml+pYRpHRvT12Ch5Me/Qc8ggpDyGt3/CqasgeF3yBRXsW3yvVQpq2Kx8zAYq9Z6LpURsd7pYi9kuh7U5Pi/8dsnUkbUwQB4rGMTLxXJZL32t/X34PPZO9mrk1V2fAgqfRV2f3XZfdfem8Seq8CPn/4VFfWtO7HFLWTnagTi3qvfzehmxBLc4/YHXQw0iecIl6DCsl77f/M6+GR/WWJV/JQ3usXy+tQ3utvF/EhEgYxUPp35ZU/UOVlClkFVGVvVlNxx8REAHIDsz5bj5eGgwTvdXU8GrRpDnKQV19w9MqNUvRob/v+OKzj+hfltftpVXkdKezadn4h3JXVyOpXeK9SvmUEyd3bxLSbqDL3cFLhnTKEYu8FAnn9CHuvSiTvddCJPSLvdUh5fRRgBU33r8NLIlBUiTPUzebz6/tJ3uut1JSNl+xjFz8bevQ6JpBN7PXXeuKm25uwK1Xx8DPkNjTQ4W6Z4pwuiAV9DPlNKK+ddc9SK94L7khl57JofzRh12HBqbQf/mwlOnqgs+Hl7eYhe7c37Q8VaK737WqMO74L5FQ2p2ObIZGyuSGEhe85roqTNqeTbpSNATMhK99avEQgGl97FjZfNPb6xfLKz9+pThF7VViHXIwofZ0Pi0vqcVEaSlAkG08gTV4ptnrsOwOavWSJOsM9QxhsROm+4iqv7M4V+5SKwbFXBnaDGcjerAgrkuBqQrp3OMf1L8prW8hcaMquAmJM2ltywFhwFkk9N6jklepbRpDYvQNZ7hCsfsKOCnESyCsaRXUUTHR5n7AGUnRPI53YDadn0Cy8a/ASgWjsFWlQJPY6lLx2p2ykK6y9KrCIBEXVIChir31P0k84m6uOL2HFGH157XlQY2YuMnNgGz5zoDvkt1T55WVBGR3Zha3MY2Uzlwjl9SmnCJqRtzWhDZ05UPfz3BQTFj6IRGYOWGStCn+Sdqvjavw9GxvuSu6QI4N7R4wgG9J9s/6sLWR05B663nPX00IOnTmQhc0c0N+eQ3piw//IdVeVs/KITUeeUedU408ReiqOm8tNXniQzc3ksg8unCxn7llBPGCVLq8UPyt4l7VNG5q86BD7ekZK6DYXK1OhvPaUHjaVN3b2jU/PyU4O32GrorLmMj4gGEpQJBrf1/EA2TU2c0Bv00WsUIeHX2AkHzJGc7Aj7Eqob80cFO16Hb+arrIihirQLgoir9Nt1yMzB9KwmQOb0/9Ba56GzVekT9/ESsrKSecEefxmN204x/VV8toOu5+Q/M9s/AY3JG2xq9TkDVeeiOJmpV/2W2eqyFgRjUuZ1HODUl4pvmUUid3bGuIEyZtvCOJkZqclMLesnzlVKK89FcfMJqAzBzKxmQM627ApMTgfuRvpEyy2RqchEwdy7hMndvlR0wnq89AJDJH756lPMBVOiRlaXjuilk1Sdk6Q9OsBiqovovvq7vEnrBijL6/wxdx8o9bFNVtt5nXdFbf+vi6c3Mp72r5vW+7kmVyVBYVuCV2x+0nBgb7uTNYdm/lpcuap9Dk5C080PxD+krGvMefB8pUZSjOuay0r8rj8augv7GmoI6R78A5p/hYyB3YO8XC/50nGqXX2U7VU1QxmLNuXKD5Lta8lddd8IwYaByRdrp+auJ7Os4w1VTWNZzl7kqcHSpdXyh/FdpUGudkZqKtqW69j5YeJ/Kygpynl6CrrKSrKDF3LxTvOlwkOeUhBkWS8hJEXDHk7KYeMgoxSNXbkDlJX+AutDrBVVlvkV9Y1ZLAGBQ22nr95YeMsXVU1/Zm/nr0tnETbxD2wwmoKY5K6kcPvEffiNw3nuL5GXj9e/VUJmrT2Kibvw+JNVcze5TYmmipqBtN/2nXxbpfw/JJyblDKK8W3jCGxe+GO2rfUYrKyooqenVv43dgNQnmFG2xO93KZZahGn6RrueTvy+KzVPuepOxw0lNG47akrdB5r9b6DDpD31rCvFep8trfVea3iKE8m1lLmp6AQVH1PSELeQV8Uzy7uFhOa0ehFN+hq8Rnvoa8tq17YiP+CQWIvC6LIjtU/xkDt/foQJrbsoYcB/23fFH3/qs0Jrrb6chrLvArHfR9UlR9ZwB5BVDTHjpPTnf3jUEPcYX0vnzADT4cO4x3jiDySpo58F+C/BhM/0AJxWGNFYbfvf8q92MPB3MfvJLknFJUfWcAeQVQ0hriAOnuvTU6MjR25PV1zArI4lTt6L+cEQAQAuQVAAAAZAKQVwAAAJAJQF4BAABAJgB5BQAAAJkwOvIKRBkAAADEAPIKAAAAMgHIKwAAAMgEIK8AAAAgE4C8AgAAgEwA8goAAAAyAcgrYEgGenn4G9Flz7+5r6+gr6suOz5fmB5zTDFO+nC0GeD1De/FbSOlKT8u+2HXl/w+HMjrmOXVbfaZ6DviSRvzdjLQtwn+D4KU1E2c/mCVvJbxldSR6KIGqbkkDve9qFKRmFIbmkFOQTBq+/oqJPe8gN4W7h5HLQVN+0DiNStIAhWUH5Q0pv2449I9Wb8p6lXxJX92iWQLOy6vnkSbtPqyzPuwfifr5K91xItbPlf/xvTe1vCFAtdbtY7pvaNpuKfwQHczMy3CNOSUEtNLv6AV/xSBd6swSCUoIkjqtzZSSBbeD7TXVNBy3MNtGe7bar55eX2apsuMi/+CN+oPxag3KA3p6U8cDmfcuHGjMDsp4JepCsoLw2XrRHVeddNT0dt0VeQd2yOhu6Uce493nIcJZOIRhxXKyXnTRm1fXwVlQp3XOR4miqZuMXWCzMOYvNodTC8szL0ee3KNIaT8I5t86Y8+knO+YnRe+U1bSXvDFVn34fs7PzIDTwhE/PUNW2boGeEb2ofHywIb5nkmKUcDJW9irvpMScq/0tRU1NJ09x/yOzLfJqb6a0Wmpou94fbrEbXwfV3MRlPFqR45w3sv0bcurx2Vl5Qu5GJZCkaFUW9QKsPJLsW7sVsfmnZSPL/HGAdxY0Wc1jEGhbzyivcZy9l414i+/RaR12XR+JfCK9tnQDP3foCVZAOVvP5btKVPYcbGEX5GX1Myg8m59oUvIexrTFYNvMId5nj7feliZrD38JNjjAaDLeTVnLKRM95XPJzkCWNJXt+/qvZMjbAI89G+EOZaVNdKysL27mXV0ZTwaaE+upERbqUtgnvkh7oEpeDUhJYC1yh/rdDA+VmVeG5kftPesJP/J5C8eCkxOSnE198NN3gt1IjlM+VSpEflc4En0lbFVgmKjcPvgR/zss/RI9NuIO9cHqJBqfxTHr5lrqn2JHl5FZ1pi3fG1gqzMPCauSfWzNRTVWYY2K3zy23HTZc4iHbCcyiJyiv6Yj25Ten4kExKgwi81myfX2abTVZVN5yxfD+HnKBB6lbkVAsiGbo62YvlNHbmCU8wXraHmtySaPwl/BRmoEiSV6n7Ql74v9Q7wt1Mw9Al6kGZ/wIdzalrLz0i2qTY16em657Otiaaqpomts6e14Uv4U/frACtSyKyL5ByHFD2PAIv30NTfmWs+AhURF75vKS1tIluXGzAm+b+A82FI9gXx4WUuwXNBRCdf2KxiSpd3XiuB5uUXYDXfN3TxUaXrjBJx+KnPfE1eM0jf0ssDEHGIRiz8MWln/BPaDTj42IuAJqSwMaAQWcY2IikJECND80LWmOhrqyqZ7sxuGxYoY03D2KUQjPwpFzwoO7uBaXIPCwprPSrEqb/eevNjXFMHdaZOZnVRXcjlS4VCO5EUq7Kfl4vr5vH625M0WTGx3aj6/BHWAcj3iVxPabcJzuvlGZIVQBqC1Fexa6U09xeMIxbyZiR175/KtaEes9ML+I0PLpWzpke6P1zJZ6no+9N2apQ39lZJcmNdZziGENmwPYm/MquK2EpXTjvmlGY0ABXReszvVdXYz38vrYFHkHc3xvtpXe9DB5KIEvbS+zEGXh7d3Woz6yMW1eQreAGA4+2EzGj3sc7wr1mlyIX0KuGK4aBYaeeYd1I1aB0BsoO60FGrmeScgoLsjinlmhDFt5odlH46io9YiqnNR/NcXRp/wItBZvTNejX391UjCSUuvS7MWS6+RKyClP6BPMTxOS12tsS0t1Xiq5LbRCuuudlKY+mF8vE0ovpeRBZmCi2whOFoRm6RBMgPo9YJKf9ZyFxtn4u2KUt9+MFzK+gaBBHkrxK3Rcir3orTyelnF6uqWOzPTA16dBcOsMjD735Uh1yxbFpcppE1XxNuWmCFFJS5ZWy5xGesOwHpaSEEZVXfuoGGm39VcyOoeTVxMH9UBQ3/VrodhtlmtHeYuw/e0oOGE5QcfjzfEpmWtSRhRq0KbsK0fO6u/EWkijrops+zcj9IrIKc6cZsxDuw0IEzg5zcXntKT8ydQLDae8Fbjr34l4nxoSpR8pwoxDjTa1d/whOTude+MtBhTZ5ex5ZpaRwr+icUmKZ4LovyvNTuopfsdKvSn7vy6K5wT62GcXJDXXxNxJ/ijmjdK0KkzapV2V/7e9BAp9GsLAvvEM3+/SiGLkYq/5iexnfEN4IYSjMoFAACgsF1PqaYzl+hmKsyGt/cUEAPeFOKx7j/hCf7KWW3YCu99/KD1DmlLWjBfjK9mN7zSrB/KS+9IxTSuy8KtzPfebN9rIsIof0Ww5HeP1UiX0PAvqK8gLol+8QvfPiXIyX/R2BQzxQXxpGv5Bd+q7qlzCfReUvRO9REhuk4FX0ckj/YDleGnjb/ri+Hd8aSUO98Dwx1OkIXwAZHMJ0EkN6cGBZ5HMkDXxXaxFziRZkvP82ZiNFg0gq03mhRBd2J61XUv4jbcitCCTkl20Lmw/p7rmNdXx/yd9ToAVESv6hG6QKDgzaFyKvM5mN8P2NsxpacRm+gJuD7aAl0agHOcQhC7O3tofOE2b2lSqvONKDA1VeJpATcaBCRi6vNPuQp1hpoNZnOk33AHaqtOcGHg/OJ6KnrYH2NO19uPEo1MGBtmAHcXkVTQfbzpojTAeLGG9woBy/hh6hVtzBChTwrnC91LMaiGdS3dFXBM+aKK7K/qI8f/rlEuLSaz1ywcuwEOsA6Vdl//vHz9oqnrVFcn2UEvJvousVz8Qy7jXvD/daVkW+LVCYQaEAFBYKaQt3gky8MFedkrEirx0+bC9H8VRuGEjV3HKBm9jhK/zP16x4L7MiQjXQHpwn/E/4HKh0ZfrsFH8uiTRof/s5OsSAl85zcbC7Soquf7r/K8vfmh2gk1zZJrap5AYpGKg8MRXSmr8nPDm/ovEVcZUhoGnud2YjOomSvVMDWp9ECuhIlVd81IpOHjBeGVSJn1MUDX6Cq1SxlNfiDGkGjKT03UhKPr1Dpcgtf6DimBHkGIo/zBlGg18sr9KyAVIe8lpIZTspff92FWgtBxsRj1xeK08Yj668TnTLwArwuZX9l7HJnjxiGAUz8LnnA3JYb2JWC7dC+VJ5/ZToTFPaRuqNbUo050SsNxDjf2YTVw3yn9DvQ6eD7PSP8nIoE1w1T49f9FpSiTl5FFel2FatRyK8luKaONRVibpcunlP8JIYPXdXM/32iFRSmEGxLwoLhSDyaix2QUhkjMhrX41boPdWibM60CqPRkLR+h/+EXTq98fYLalhd4iXywPi3EX/U2RqSGfedOb5QDHRRv5NbKDhtbaWdP0PdJ6Ngz8MPzd4kofEBqnpruMcdrbVU4YgSE5l6vIThbivJSF7K+ScQPoipXuvc71ulJcXnVlKV1oeL0g7S9UgUkVKQ0tmSDNgJMkrv/mcHWRytBz+XqpOmkP2TOLUHkaDoyavX3DISL8RZowheZWSh7WnLsHDSY+OpnTF+Dp57Y5fRVP2EN5fEYNXxWO9IWq8iIXS6X+4OeiUO34ZIrOX1jN9/2zGCtKvSvTi3VxPXKG8qrVM37+wE2fIq5Lf5hXp9eM9QSeL0plrzrzAInlWVGZQ7IvCQhLjzXt9U+TADA0Qzuro533uw2NoYlVIMcQfE5XusiXMs4cFJ3vXTXumiCby6pMmMQc9l0RaCN5dhw0x8KVZEOiHz5Tb5xmRMSvZJ+1KOklSjSC5wWHxufv5o5sXfp0qp7WrAD0pUc/rt4vlZOpfknYoXV6x2Oungu06kJV3NbEJRYNIlQrJe+3/zOvhYZfGkGbASJRX/qOAmZCp531xO4fR4Oh6r5L3ReW9Zm2jQ64cIqKKNELfRlY56fKK5CS3PluPlwSIKpTIo63MzfK0NQmCfSWsoclvzsQK0uW1iWk3UWXu4aTCO2UIxd4LvlJeh/Jev1he396ez2R5C+Z+vci3Yl4MxSKvFFflP7ecmCxfwVaIs0Jo4hBXJXwB3f9V+sCx5xGHHpicQT7LKMyg2BeFhSQeBVhB0/3r8BIFY0Rekcd/LD/iqN4+5mgGc1KwW9fLAmuhvA603YukR2SXYZ3cnmnAjGJj92D4ntR0jcFMSiVp35OKCMHTTCGvCmcyI8MF18L7juL214Jg6tuW65aBrENPeU8rI5VDr2WRb5/SGsR5kXt82dxlx3OF/iRMZ1UG95bwKW35UWPoZzY29Cj8U0NhHSIXKH2dD4tL6smDoUZYvqx8a/ESgVBe+QO1vtaQxqZ0wniKBpFA5NwQ4lx7z3FVnLQ5HeupocyAkSyv/Id+lpBVQHaoo+ipNnSDoyavQx2yMPb6LGy+MPZa4zMdsjhZg51E/dUnzKEZIo+rJPc8QvcVV3lld67wWReGiEKhE7MsvPHJcg+8zWlmJx7g+7p/3JRm6YO3LFVeB7LcIVj9iMPiPwtxEpO8htMzhLsYxJCxV6RBkdgrpbxKOrG7imYL50gNNJSFCx+vU1yViAoLxKu/riRUKehaJqaJlFclAvIPEUFSBo4NZaFK7BsiekdhBsW+KCwU0p2yka6w9qrg+5HOGJFX3iOPMC89Tu7lhkfcyoyFYd4Oxe34Ocyr2xbqZZRcyGmsS664Zs/yd6l+gx3vu9o4JVbaTXQdphWZGpKPP5ZHQSaLhMSeaUSf8j97g8+I+ly/K/ykVVpJSlN9Rk3hukjv6Tda8SFEd/XG894OtzuQYk/1BtapBRUidy7JDWIgThAyOBW6RQhtFxcrKtt4RKTmIjMHfJfrQWZeuHb0lB42lTd29o1Pz8lODt9hq6Ky5jLxkAbhI9ddVc7KIzYdeXydU41/5SR5hcU75mcl+bksfFBG0WDPXU8LOXTmQBY2c0B/ew5+ZNK36ut4gD7MR5/m6226iBXqhGOMmpPTIDt7eznzU2QpGuq4JMqr9H1RyivVIVccN5ebvPAgm5vJZR9cOFnO3LMC/5r7HgfNVmTM3hXBzUhFNlKaw2oghrkIknse5XX8arrKihjR40EVivhZwSnRnxX0PWLaQsq2O8JT01NCPWyU5GYH1+P7ku69toY4QfLmG4I4mdlpCcwt62dOFZO8j9yN9AkWW6PTkIkDOfcxC/s6qtGJA+jMAe0NEVjhIfp99ZQfNZ2gPg+dRxG5f576BFPBPIqh5FXiiY1cRPBVeTO1ueH6vWt2LP/1D3GBoroqP1WtDfIyuJLPaajjlF5zjj6rxL6JayLFVYnyueGqSmByOvlrgt3Q183YHJ6ga95K8TmZ6Pr9d8g/UZlBsS8KCwV0RC2bpOycMJwQ4Vh5tDXwsq1oU3yQLsvPOCp6T+XTl8JBwEDn0xsb4gJ1WKfNYi8ffdgpmCRRXRykFF8i+HnMzVxf8SkU3fWHOee00NiKUnIVcTMc6Gq/5R4PN+hryI7aWd7cibsWLyOSfDQ4d4jgbd/tgrNKEelF5FCA5AYxmqLW6DP010SJ/oaqry3r5DpbQw0lOQVVXfPFO6KJGYwwPU0pR1dZT1FRZuhaLt5xXvzJXl9L6q75RgwF5OQWBAdF5JX/MdtDGzLYfQt3sika7HmScWqd/VQtVTWDGcv2JZLnvUrbSkJkE4YcpbznaQZ/MsixHeK4JMmr9H1Ryivlvj41cT2dZxlrqmoaz3L2JM305PN72/JP/2I/VZOhZeq44cyNZ+TvGEZiz2PwqgNsldUW+ZV1kXwaRKFQJiqqmy7YFiFyU+5ty/NdO8uQoaxmZP+Lf6FwXxSxV14Td99Si8nKiip6dm7hd2M3iHuUfU9SdjjpKaPBWaIKCbAOhtgOnfdqrc+gM/StB897pfJeJZ7YAy+f3vgNuypj4o8M96rsra9JmXvBTzMsxLW4IS7bWym1mvBRpFyVBM3l58X9Uz4viSsIngoW7y3oBUxpBsW+KCxE6O8q81vEUJ7NrB3GrNexI68AwHihq8Rnvoa8tq17YiP+CUDW9OVk+ail1ZGDsf8+jYnudjrymgv8SgdFY6UA5BUA+GJ6Xz7gBh+OJV7pApAZvW8qWhpzHqTNYZ3xaCRHC/4D7sceDuY+eDUsvxUDyCsAABiztGXoMb11I9k7qp6JxuLGBUBeAQAAQCYAeQUAAACZAOQVAAAAZAKQVwAAAJAJQF4BAABAJgB5BQAAAJkA5BUAAABkApBXAAAAkAlAXgEAAEAmAHkFAAAAmfA9y+tAL69X9LU8Mqavqy47Pl/0jVoyYKC37187rn9zX2Mf0BsoTflx2Q+7xN5C9l0yJuS18gTyXjsMsfe/yY6ORBc1SM0lkZz5cBi8KQ1wnaGtLAebCkHrkof9koneFu4eRy0FTftA4XtA3rAvqE6Mhtvo4USrTrwQK/7ivhHRcfc31QNT1twlv6UU4/Xt0qCoZrFXZVORd1V34qUE4lV1EpC+r1Hni42XDVRm/Iu9QcHIOmoEW0k/e+8H2msqaDnu4bZ8wdtPvknGhLy+aypF356c6zlfLOuRDOm86qanorfp6pddDPdPmUPGGyKyClGDa8SzxUjjdY6HiaKpW0ydyOto/4m6qDoxJoXH512JUZ14MX64rzmjpLNqi+5Rs41VIkkTUOp9z6rOzB+UyUQ6Q8qr9H2NOl9svGygMuNf7A0KRtZRI9iK8ux9Xxez0VRxqkfOqLgM45YxFRwYnFRurNF79VdI4Q+Rlw0PA17xPmM5G+8a0cwyyOuAY1TlErPhtfREjYkx18TrR5nRl9d/kXEgr2ODf01ehzp7eTWnbOSM9xXL+Kwe04wLef3UdN3T2dZEU1XTxNbZ8zr5tfNvylnus401VCdPd2HmhKyENHffwGuk84K9FAtEwIi9aR/NBRCez3K1mszQMJrtziLSeg/0fkJTIse5QAqbkpFVhB4ivkRhIXye5Xtoyq+MHZx3lp/F0VK/VgSv3EwxVOAIM83x+W/Lbu1w8jOmH1RTPjnzx6sJmDT/U74eH4U98dQ+YHa4BV77BA/N1txFXtb2otT5h4P/F1umZpIygnUGWR1QFVRhy0TWeSL1Fq+lLmBdsLXmMT39sy777tUJEhmg8nox/+aG6V66aj4L3IruCjwUqfui3Ao+grKibfa++pO87NcU5rEuqWKHT8UQxn9qeuC9OnC6+jEDo8Bfjz8QyX4nHV5zja9roPmkI1OmnHX+u0J4yFJ7g9IMqb3xPvbHg/rbHwkVhlf3p+rB1VH4IIbX9MBnFdNs0hFdvSA330cdwwtXSj43hvyWJR/yUFtRWCj97MV5FbtSTnN7wXccIRgH8tpTcWyanOZ8NE3Qpf3zNeWmCdIEdeftnAJpzNt3iZuRErJttaXxsOSV116FDu2RtE4S5NV81vqtrGsZ3Mi/ndShKTvz0fMQSUkinq1EEHulsBDhCcseshDJlUdQzJ1qkFYBr1RkWGmm4KnlYAaenNA9YOmcfy2n/mbWvdM/eama56B565qPT/bzhi/fd3d/mxYwy/kefJk2+J2bdgTRWT7vn+ob9UU36q/tPKMqcpHzmorrcrProjf5qpokRmcj67nZT1qw1Ek9T30tDurPSbmU+jA7Lmed3kGzrXVYyk9UKAOcXBLDr9VmXExdzDhguuMxflVK3Re+1dy1nPODt+p+9LfOAf253Ghu7XUWZ72F7zDkldr41lNmBw3mcaO4tRmR3J/VD8482jJ0OLyn2dP4oN6cFDZ8yNEZK7UOWPxZj1sotTcozZDeG53nwxlayYKEQp8Lko1/CGdjqbp6nniZHDREjU+P5C7VODTHTzwrjQSknhvUHSXtkKm3orRQ2tkrpNbXHEvk870yDuRVNOVne+g8YcpPpMruHJ7Jr+/ekanDklcCCQlQEXk1OVSBJ0x77GcNGRwqRVZ7Ox8hWZ5v+/4IKawMRDM+wzS8Rp8TU1iIUOVlIik5PgWvylwmeh8vw0sDb/+pf/wP6vC8jVpwcMv1Pv79nLnbknda59TyBwq2HF0TjYsDRjuLJS55KJIHgPBFMjE0oh0vdSfFaColZmEOByKUvsfK8PjyY5+zqnrXCaNwJOwL3cqzHN+q3veccCtkX0EsfOpEf9Vhv2HIKw6F8ReInu8ICVXV4aLfFyXtj8I8i24SQfe2IJaqLpdkoZTeQKEeREvojae3fp546uBtrDcGyvacUp1/C2++MFl/YlgkkRWxMyxscPdKQOq5gSPZQopDRpG81cgsFNIW7gSZeA0+E78bxr68UiSs77u2AYLcUompMP/ErBgNeV0eTQxmkV0rbsnASwhfaiFK5QnjL5TXgTYf4wOG81IuJj++19BNdsduehxbyOrqTY1fwHzAtL6c3gsLrtdBkpbDfJG8fkqMUp10pQAviYIIpfCRBRKFkBcfA0qRV8lb9V2LU50Yn0Z8X2+jI79SXpHGla/k4yW456/oTIy+Orz4AH+gv+cD70M3701sFB5DpO4NlC+WV/7r8/YHzA4+QfR1oPWUwYFFIfjTHmRf6ldzuxEbkCX7qv5w4u/Szw0MKgslHTKG1HNjBBYKQeTVWDzR5ffE2JdXJIcoY2ceXsIU0DkBddc+J/8GQZu46Mcwb2OHF3slkCKvwjysg+35UgtRvlxe+fwPdfdOrA40UzqgOvGgjvFFn0LcplZmsMHfTU/OsrakfUpxDmY1t5ycIvQvML5IXj9cZquqXC3ES6IgQil8tIXMvxG9JmGkyKvkrT4nw/J6WdB772KGE3vFGZbxyK7ZHBFXXhI9nVc8Qi0nHRLGHAkLqXoD5cvllf/kbJCqUfpd+KZSlTVrIvyV4Z8j+xIYgC3DMV76uYEh2ULph4whtXsF/48tw7OQAHiv+F+CceW98vN3qkM/s4nZek1nbf8TeR3Ke607bQlZn5V2SVLymddZ18Be78fQSL6JRiw+cy9rrixP3Rbs/5BfdfjMX2mV7qricvBF8op4KMokf62/n9fThwdHRlte+flX9SZeiCG+r+Yzgf+J9/okkKXGCDt5pb6srOVuWUupT7jAQqreQBmBvPLr8p0mIhFzsW1R3zCOjdpALJ2vhjnTD2bQuYEh0UKKQ8aQem58jYX8RwFW0HR/0ezZ3xVjSl4/p7rJy2/iin1/opHNZ2HzhZHNzvjVyvLTd6XWdr58di9610wtcXl9kXt82dxlx3MlTkUcLXmlshCh+4qrvLI7F3taMCw623K4TcKH4GXp0wWq9CDH3vLKXwujkz8i87qX7U6Z63hT7NmBNHlt8meqTs8RP9mRaGNIBOFbdydGadATs7HnF6Mur53l65UO2u+sruvsfn63bJ/NieHLq3TjhbHX56HDib0O5P5+SNXlnsAJQ7YSWEjRGyiSzSCQ0vMdZy0OzPavi3A4YH+aNNAoTNaXi04m7Ojr7LhT0jn0NFGKcwNFkoWUh4wi+bhGZqGA7pSNdIW1V7/A3f3WGFPyym8KdpTXXu7PzUef7N9uRAN4PRXHzeUmLzzI5mZy2QcXTpYz96wgQk69j6PXmypCMAp6zoFHl4rJ60eOK/K4H3LlkLStr+MB2jw6c0Bv00WsUPcSqRuZvFJZiPA6fjVdZUWM6BCeiqe3V8ofmbOtOC0XeTp8Zqm3qmkWftF2V7opn7aZi17DN1McpgUYbn6IXf59Hc+KBM+vdS+z0fWih8KT+xP3ss4PZ3fH1CJPh3Pa8eccPU+9zUWelU/zIM8ckCyUVPuiEuW++qiYGfLwqPaAui475MiF4curFONbvacdNFpwPYb7MOPS9WWaB2cdbx1y5kBbaKiG4pmtwZU5ObVXAjl/2PoLLaToDRSJZgzZ8w+9/FVtg+f/EHAafcaP0/PkhMnB6atzOOl1ucm39sw6qrOqgnj4JB2KcwNFooVUh4wipXtHZCFBR9SyScrOCd/zDwvGlrzyP9ZFbXE0YCig0550Dt7BPv3UxPV0nmWsqappPMvZkys6q5TP+6ftUW1950d+F1tcXvlNUWv0Gfprosi/80dCpejEKhEwzRyZvA5lIZ9XHWCrrLbIr6xrmCOr/rasLLdZ3voKB9UnnZr145X4B4IHCq2n9A6orkDn47YWLZl4wPEMfsJLiJTBy++1WC1C3+u0naGWKmgAjnR19TTXnnYNttI4NkXvrPPeu2LzXiUKJdW+hvJ5ef+8eVzT+QL1vocvr9KMF857NRz2vFfeq4z9kbN1jmkzfBZuKq6Ku0y2UGpvYEgyY+iev5tpDX8yyLHtabx/csU5U+UjutpnVnoUlw9LiSjODRSJHUV5yAjSzo2RWAjT31Xmt4ihPJtZ+13/LnaMyetX0RmxiJhHNfboKvGZryGvbeue2Ih/8t3TeT78Cyf6AMYFjYnudjrymgv8Son5I98r415e3zSWoIP7wuz43bOUVH+9Ona/0d6XD7jBh2OFr3T5HnnzogwbO2eXH5h5WGd91fd+BX6D3I89HMx98Op7f58LzLiX1zsH9eGhPQTJTdKxXHk0q+0LnmsC/gPuXJ8GDz8nHmDQT9otT89pA+/vA3y7fEvBAQAAABhDAHkFAAAAmQDkFQAAAGQCkFcAAACQCUBeAQAAQCYAeQUAAACZAOQVAAAAZAKQVwAAAJAJQF4BAABAJgB5BQAAAJkA5BVAoq+rLjs+n/x+MZkw0MvrHf1fw/5Lxn8hTflx2Q+7JKYopKgCfBMAeZUtom84HNP0tnD3OGopaNoHjsJLZ17dZp+JviMh9zhMR6KLGqTmktiBl0eD0TW++JI/u0Sy8V/M/UB7TQUtxz3clkGvOKGoAnwTfPPy+jRNlxkX/wWZAobiyxocN/L6OsfDRNHULaaOnHV05Dz2mwHNOvMYL4nSedVNT0Vv09Xhv5h5KEbZ+Ec+ljRr/0d46et5Xxez0VRxqkfO4LelUlQBxj/furx2VF5SupB7Dy+NAl/YICKvq+Le4aUxC694n7GcjXfNF2QBpYZKXkebUTd+tOUVhldzykbOeF+xBBspqgDjnLEkr+9fVXumRliE+WhfCHMtqmsl5Wd797LqaEr4tFAf3cgIt9IWNHELwoe6BKXg1ISWAtcof63QwPlZlfV4KKtpb9jJ/xNIXryUmJwUYhTWDTd4LdSI5TPlUqRH5XOB19NWxVYJio3DX1H/MS/7HD0y7QbyCvwhGpQCIq9rIm9f3DhLl6FhZL+JhaYZwOE1c0+smamnqswwsFvnl9tOisLxWrN9fpltNllV3XDG8v0cUmIR/qem657Otiaaqpomts6e14nMCC/Yi6Gl3hHuZhqGLlEPyvwX6GhOXXvpEdEmxb7gynwPTfmVsYOHw7wnaV7rbA1UldX0rZbuTaglmSHFwsdnZkDiySAgJxaWveoFeyn+0f/+J5LlrJO9WE5jZ55QYXjZHmpyS6LxHGkjNL75uqeLjS5dYZKOxU974mvIxrdkea+1NVanq0yx/Fl4XI/8LWmDcAgmUm99auIeW2VjwKAzDGxWHSPlpOi5up72g3t0/onFJqp0deO5HmxyT2G8il0pp7m9QNL5QlEFGNeMGXnt+6diTaj3zPQiTsOja+Wc6YHeP1fiSY763pStCvWdnVWS3FjHKY4xZAZsb8IvxLoSltKF864ZhQkNcFW0PtN7dTV2Yr+vbWkqarm/N9pL73pZEbLeVNT2EtO2gbd3V4f6zMq4dQXZCm4w8Gg78Z7Y3sc7wr1mlyIX66uGK4aBYaeeYac9VYPSQeTV2tFtW0hKBvfSgQWakI5HDu7L9pQeMZXTmr8/kgtX7V+gpWBzugbXjZ57XpbyGk57IlIz0+O9VxnI6Xlk43vqqTg2TU6T2Gq+pty0Y+VodilEXvVWnk5KOb1cU8dme2Bq0qG5dIZHHnqTotgXwhOWPWTh9xAvCei5c2iqnLrTXxdSs9Jjji3Whgx338BlQ6qF3U3F2TCXfjeGTDdfQlZhSp9gwRReexX67nMky5loEsnnEYvktP8sJGz6XLBLW+7HC1h2shEaX3LAcIKKw5/nUzLToo4s1KBN2VVIGH/Xc9pEVYfd4SkZabGnlutO0N6ShRnfeCsL5qKbPs3I/SKyCnOnGTO+p/zI1AkMp70XuOnci3udGBOmHinD83qh8mri4H4oipt+LXS7jTLNaG+xeM6vWl9zaDZLLO0kBkUVYDwzVuS1v7gggJ5wpxV/nvwhPtlLLbsBXe+/lR+gzClrRwvwhejH9ppVgrk1fekZp5TYeVW4n/vMm+1lWUR+YtJyOMLrp0qxsXlfUV4A/fId4mx+cS7Gy/6OwCEeqC8No1/ILn1X9UuYz6LyF6I+hcQGKUDkdeqRe7iB7aHzII0/8bzZhX9qQAvPE/kNO8IXCDPZIKln54USR9ydtF5J+Y80zBDRrLRIg3hWWkReZzIb4fsAZzW04jJ8a2oOtoOWRKNeHcW+EKq8TCCncMJJE9CeF3yCVUCESJ8GO0J6B0qwAoWFKNTBAQk5etvC5kO6e25jHdVf8vcUaAFh0AiNzw08HpxPGN8aaE/T3oen7731txZtDktgPMdVTmHTdZLxkoMDyFZOIYKeZ82hTd5bjBUQeaXZhzzFSgO1PtNpugfKsZIAiqT/FFWA8cxYkdcOH7aXY5nE+D5SNVc4pu7wFf7na1a8l1kRcZ2g8jpPZPRd6cr02dkkNgcIadD+9vNuHg9dOs/Fwe4qKZXxp/u/svyt2QE6yZXiL9OX3CAFiLyuiBHkGs3ZrkqkrUWy2GruzO4myN6pAa1PQr3yT3CV6o5cZFWcT5y1kMr2HLyENKgCreUgo1REXlEPqDvJGXJOgh21FtZsaDEbuRFR7Aul8oSxJIXCGPjc8wHZ6E2ciyCNI4WFGF8sr6i1eodKkVHEQMUxI8gxtBWrGB3jY1bDw/c09LNPCWtodA9hHw5Corx+SnSmKW0j9fw2JZpzIhYfQOR1olsGug7Dy/7L2GRPnljiDERDjcUOGoeiCjCeGSPy2lfjFui9tUFSJhe0yqORULT+h38Enfr9MeblNOwO8XJ5QIzC0P/cRm6kM28683ygmGgj/yYeRV1bK7xc+QOdZ+PgD8PPDQ7nSWyQCkReSTMHkKJzAjpGlZCwllzF2JmHrIojXiVskEpeKfaFIkWheh5xdsw3UlUQbkvIK4WFGF8ur/zmc3aQydFy+IuuOmkO2TOf4J+P1Pi6BA8nPfoPeAQVhpDX7vhVNGUPinuDRHkV3yrXQ5m2Kh4zA4u9ZqHrUgHe6/fHGJHXN0UOzNAAwQCd38/73IeH18SqkGKIPxYb6C5bwjx7WHBhdd20Z4poIq8+aRLzCpcUp0NAWgjeXddW8Uy4kPI391bdPs+IjFnJPmlX0imm95IbpEKC9+qS+AFZRZ2y3y6Wk6l/ie4QqVIh+Yb9n3k9POyG8hXeq+R9odSdtoSsz9bjJYLmIAd59QVHr9woRTe47fujwHulsBBjBPLKfxQwEzL1vC++7ciMb2LaTVSZezip8E4ZQrH3AoG8foS9VyWS9zrI+BF5r0PK66MAK2i6fx1eEoGiCjCeGSPy+rLAhsnyIwJlbx9zNIM5KZhD+bLAWiivA233IukR2WWYL9ueacCMYhN+TF/TNQYzKZX80KMiQikyT9wpeFU4kxkZTjiUvPcdxe2vBcHUty3XLQNZh57ynlZGKodeyyI5tTCSG8R5kXt82dxlx3Mx6cdB5FUs9rqrACsU/qmhsA6RQZS+zofFJfV4iAKJbM4NIe4b7zmuipM2p2MHJhp7fRY2nxx7lSavVPtC6L7iKq/szhWdzDuQvVkRlm5iI3RfhLxSWYjSCEullS8p078IkuWV/9DPErIKyA51FNWaERmf5Q7B6ic0PsRJIK9oFNURn8wAG5+wBlJ0TyMZ33B6Bs3CuwYvEYjGXpEGRWKvQ8lrd8pGusLaqwKLSFBUAcY1Y0ReeY88wrz0OLmXGx5xKzMWhnk7FLfj1wuvbluol1FyIaexLrnimj3L36X6Dea6vKuNU2Kl3UTXYVrvXlCKzK/GSwhP4U9CYs80ok/5n71BnUY+/3P9rvCTVmklKU31GTWF6yK9p99oxeML3dUbz3s73O5Aij3VG1inFlSQIrnSGsRAnCxk3IqHVnEQeTW1ct6KzBxgIzMHtD2yBTMHDpvKGzv7xqfnZCeH77BVUVlzGX9+03PX00IOfS6fhT2X19+egxvSU3HcXG7ywoNsbiaXfXDhZDlzzwrUekp5pdgXyuv41XSVFTHkj+CjDZuvSJ++iZWUlZPOCfL4zW6aUF4pLET5yHVXlbPyiE1HJg7kVGM3zr6OB+jEAXTmgN6mi1ihTjhoqTk5DbKzt5czP0UW5hEZ3xriBMmbbwjiZGanJTC3rJ85VSivPRXHzCagMwcysZkDOtuIiRkoH7kb6RMstkanIRMHcu7jd/2e8qOmE9TnoRMYIvfPU59gis/ZgKuGlteOqGWTlJ0TJMWVKKoA45ux8mhr4GVb0ab4IF2Wn3FU9J7Kpy+FT48GOp/e2BAXqMM6bRZ7+ejDTsEc1eriIKX4EvwBCJ9/M9dX6VqVyO92uusPc85podFVpeQqwkUd6Gq/5R4PN+hryI7aWd7cie2r/2VEko8G5w4RvO27XXBWKSK9iBwKkNwgRlPUGn2G/pookR+9I/K6MjQ3eO0MbVV1A9uNgaWkq6inKeXoKuspKsoMXcvFO86Tn+z1PMk4tc5+qpaqmsGMZfsSRee9cj2dZxlrqmoaz3L2FMy+pJRXyn0h8KoDbJXVFvmVdQlH3XxeE/fACqspjEnqRg6/R9yL3ySUV0oLEfpaUnfNN2KgcVtyxBaNnYogbJLPv+dpBn8yyLEdofH7llpMVlZU0bNzC78bu0Eor3CDzeleLrMM1eiTdC2X/H1ZfJZq35OUHU56ymjclrQVOu/VWp9BZ+hbS5j3KlVe+7vK/BYxlGcza0WnocBQVAHGP2NFXgH/OV0lPvM15LVt3RMb8U/GEWPX+MZEdzsdec0FfqUiAyEEiirANwGQV4CQ3pcPuMGHY0fhrSj/AWPU+Puxh4O5D15Jck4pqgDfBEBeAQAAQCYAeQUAAACZAOQVAAAAZAKQVwAAAJAJQF4BAABAJgB5BQAAAJkA5BUAAABkApBXAAAAkAlAXgEAAEAmAHkFAAAAmQDkFQAAAGQCkNfvj76uuuz4fJEXe40BmvLjsh92kV9PBgCMc4C8jlle3Wafib4zOCGNVNCXHwoTz0ikt4W7x1FLQdM+cBReffKq+JI/u+QLLKTifqC9poKW4x5uC3jFCeAb4ZuX16dpusy4eNFX2X8Vo96gNKjzqUhgaHl9neNhomjqFlMn8lbcESM5o+rIeV8Xs9FUcapHDnizNOCb4FuX147KS0oXcu/hpVFg1BuUyqjLK694n7GcjXeNaIKbr2C05RWGV3PKRs54X/Go2QgA/HeMJXl9/6raMzXCIsxH+0KYa1FdKym73LuXVUdTwqeF+uhGRriVtgjSh3yoS1AKTk1oKXCN8tcKDZyfVVmPR++a9oadFEsHq8TkpBADz264wWuhRiyfKZciPSqfC7y5tiq2SlBsHP72+o952efokWk3kNfSD9GgJP6JXw0tZSOuWOkhXUjvSBm8huQidEnENJD3JM1rna2BqrKavtXSvQnEO/Mfn5kBDcqN6iTIDcVrzfb5ZbbZZFV1wxnL93OEaQJQeQ3PZ7laTWZoGM12Z5FzksPb5Xtoyq+MHTyW5zVf93Sx0aUrTNKx+GlPfA3p1f28lizvtbbG6nSVKZY/Cy185G+J5l4VwSGYsBB9q7+NAYPOMLCR8Fb/6PwTi01U6erGcz3Y4nkC+PxXsSvlNLcXgAgBYPwzZuS175+KNaHeM9OLOA2PrpVzpgd6/1yJJ1jte1O2KtR3dlZJcmMdpzjGkBmwvQn3bupKWEoXzrtmFCY0wFXR+kzv1dXYBfu+tqWpqOX+3mgvvetlSGoseGl7ienNwNu7q0N9ZmXcuoJsBTcYeLSdSCPS+3hHuNfsUkSEXjVcMQwMO/UMu9KpGpTGnYM6SOpT/rtEF3Nzc1fOOz6//rS1/tFypLLnzqGpcupOf11IzUqPObZYGzLcfQO1vbupGMlQdel3Y8h08yVkFab0CRaP6LnnZSmPJrnKxJJc6XkQeaIQeTWfuXYz61o6N/JvJ3Voys58kno9YdlDFn4P8ZKAnpIDhhNUHP48n5KZFnVkoQZtyq5CfKueu57TJqI5qTKwnFTaW7LQfXU33kLSUF1006cZuV9EVmHuNOMWlh+ZOoHhtPcCN517ca8TY8LUI2XknFQmDu6Horjp10K32yjTjPYW43UCan3Nsaw2AMA4Z6zIa39xQQA94U4rnmLrQ3yyl1p2A7refys/QJlT1o4W+PznfmyvWSVYBqm+9IxTSuy8KtzPfebN9rIs6sAKKC2HI7x+qhTNicXvK8oLoF++Q1zAL87FeNnfETjEA/WlYfQL2aXvqn4J81lU/kLUjZLYoFSeRy6U33i9l1/tPctj11Yb7wf8gdxtk36OQfOctucFn2AVENlxnwY7QnoHSvASguTgAJKidV4o0RndSeuVlP9Iw2xE5NX4QBnuvj/ynQEZHCrFCghVXiaQUzjhYQpozw08HpxPmNEaaE/T3oemnsVyo85hCfbFcZVT2AQfjQDJwQHRjKrtrDmiGVVp9iFPsdJArc90mu4B9F5DAiT9B3wrjBV57fBhezmKp6jDQKrmCse5Hb7C/3zNivcyKyKuf1Re55FHxLxKV6bPziZhWkQUpEH728+7eTx06TwXB7urpMzOn+7/yvK3ZgfoJFe2iW0quUHpFGxnOIS09qa6zQ7k+tts4vbCgjt5D65eKAOfez50w7yJcyEnCoSRKK+fOK6Q6o5cvCQKIq/Lo4nDR6IQilsy8BJM5QljSfKKITAjZrUged+nhDU0uocws/8gJMrrp0RnmtI24VY525RozolYfACR14luApt42X8Zm+zJI+UfREDk1Xhwlm4AYNwxRuS1r8Yt0HsrkaNVBLTKo5FQtP6HfwSd+v0x5q827A7xcnlAjC7R/9xGbqQzbzrzfKCYaCP/Jh5FXVtLepYy0Hk2Dv4w/NzgMKXEBiloCZytufdW8zlHt7S3V1xnM5+UH9VfeB5LGd3ziLNjvpEqmksVYxjyiiRbZezMw0uiiD7a6klaJ6rXUuS1py7Bw0mPjmZFxSDktTt+FU3ZQ7KUo0iUV/Gtcj2UaavisXDDEBlVMYD3CvhWGCPy+qbIgRkaIEx438/73IcPcsWqkGKIPxYb6C5bwjx7WCAYXTftmSKayKtPmsS8whWbqo60ELy7rq3imXBpFjx94fdW3T7PiIxZyT5pV9IppveSG6TgM9ddaXXcVY/Z3nX8e0cst6cl/aKGi2NzkIO8+oKjV26UliPc9v1xON7rR9h7VSF5r/2feT08PDYyhLzWnbaErM/W4yWCJqbdRJW5h5MK75QhFHsvEMjrR9h7VSJ5r+R9oYzIex1SXh8FWEHT/evwEgAwfhkj8vqywIbJ8iMCgG8fczSDOSmYQ/mywFoorwNt9yLpEdllmC/bnmnAjGITT2/6mq4xmEmpJO17UhGhFJkn7ge9KpzJjAwnVIj3vqO4/bUgmPq25bplIOvQU97Tykjl0GtZohOEJDeI8yL3+LK5y47nYtKPU+Mzffr27YvWJX3kd7GXLvzrr1lzWE+QioHszYrQWo7g0dOzsPli8toYMBOy8q3FSwRI7HVuCHFLec9xVZy0OR075iHktfuKq7yyO1d0xu5AljsEq5/QjBAngbyiUVRHwYyF9wlrIEX3NFL/NpyeQbPwrsFLBKKxV6RBkdjrUPLanbKRrrD2qsAiAGDcMkbklffII8xLj5N7ueERtzJjYZi3Q3E7rgO8um2hXkbJhZzGuuSKa/Ysf5fqN5hT+a42TomVdhNdh2m9e0EpMr8aLyE8hT8JiT3TiD7lf/bmA/bp5/pd4Set0kpSmuozagrXRXpPv9GKxxe6qzee93a43YEUe6o3sE4tqCBFcqU1iIH4lfAAH3LlkAWsO2mdipnZPE9kouzNv2aYm2ttzcQE6mnYfEX69E2spKycdE6Qx29208Tk9SPXXVXOyiM2HZk4kFON33t67npayKEzB7KwmQP623NwG4eQV/7r+NV0lRUxWGiCoDXECZI33xDEycxOS2BuWT9zqlBeeyqOmU1AZw5kYjMHdLYRsxRQPnI30idYbI1OQyYO5NwnLCw/ajpBfd7+SG4GN3L/PPUJpsfKyTMHqOW1I2rZJGXnhOHHXwCAMctYebQ18LKtaFN8kC7Lzzgqek/l05fCp0cDnU9vbIgL1GGdNou9fPRhp2COanVxkFJ8SSte4t/M9VW6ViXye6Tu+sOcc1podFUpuYpwUQe62m+5x8MN+hqyo3aWN3di++p/GZHko8G5QwRv+24XnFWKSC8ihwIkN4jRFLVGn6G/Jkr0x/wVxwwgaFUcokpPQ+dBpOE5r4l7YIXVFMYkdSOH3yPuxW8SU0N+X0vqrvlGDDQ4S6rqeZJxap39VC1VNYMZy/Ylis17pZBXPq86wFZZbZFfWRcp6AGbsW+pxWRlRRU9O7fwu7EbhPIKN9Kc7uUyy1CNPknXcsnfl8VnqfY9SdnhpKeMxm1JW6HzXq31GXSGvrWEea9S5bW/q8xvEUN5NrMWzHoFfAuMFXkF/Dt0lfjM15DXtnVPbMQ/GSs0Jrrb6chrLvArFRkwAADjFyCv3x29Lx9wgw/HjsIrXUaV+7GHg7kPXgG/FfDtAOQVAAAAZAKQVwAAAJAJQF4BAABAJgB5BQAAAJkA5BUAAABkwjiW1/83XQX9ifx/CWwDbg0AAACIMo7lFVY3fuea/3ZBbAAAAABJAHn9qgXIKwAAkAaQ169agLwCAABpAHn9qgXIKwAAkAaQ169agLwCAABpAHn9quXfkNe+rrrs+HzBe7ia8uOyH3aRX+MFAADGJN+0vD5fWnxuGjttqfjnI1py3X6gLbJ++3w1+UOyvD7wtvzf//5nfkr4rpTKE2ZIjhcUsXcDUlSR6W3h7nHUUtC0DxS0ej/QXlNBy3EPtwW8/QQAGNN82/K6yMeMZn1skfjnI1qGkteXkT9Benp60KIIIukC/11T6Q2EXE/xTARUVUJe53iYKJq6xdSJvMSWz39fF7PRVHGqRw546TQAMIYB8jrcZQh55aVvUtb488hOBn3jdfHM/RLebE1AUcUr3mcsZ+NdI5qPBodXc8pGznhfscRKAAAwFhgr8pq+WQFal0TokojooC/hD89nuVpNZmgYzXZn4am2EWl7vqzMd4qjvpzixAlK6koL3axrmlH5K55mCVeLMcuiDRPH5yubY6a6WCrQ5X/QMdXYE7qgWyCa0hrE5dUy79RkC8YPqjoqG73nvnm+Gm4VtYXPLzuiDy2La4j5GdI7XIZ/RjAieeXle2jKr4wdnK0W51XsSjnN7QUgQgAAjFXGibyaz1q/lXUtgxv5t5M6NGVnPpKUBJa2gQxjbZrCmmMzc646ZIZN/VGNZrZvPqKGTT/eumyfddnKTZdmtM4qC1m3z0pf/BGV0Z40I8MJkMMf01Mu20X9qa5BU9iVvBzTUKkNYvJqNMl5nUVyrO2FLaoqNPntScsF8vqENQey8H7Irzk5DXIIEs0HMzJ5fcKyhyz8HuIlCdT6mkOzWS14CQAAjDXGibyaHKrAM0A/9rOGDA6VwmuwtL0K1KBNNirDfdLVb6sWPa7ChRL9RHJwoJ1jcdzboRPfanGgDU3bwwmromgQkVddo7I2rGqhtxlNd4cTIa/dHFcFFSRJ4ef0zSryLomiwdIRyWuVlwnkFC7IMj6YtnAnyMRLStpaAADwnzNO5HV5NJGA6RNnLaS4JQNeQ7zXHBNDmpzTZsurSXMbHq7EdFC4UMZeB9pWfmha0d20LGYJ7Yd1dviH0htE5HXBjDe48q5IXEqD1tvj8tp/c6cmtPhiB7z67MKPkObOm6RcgSOU18oTxkPLq/GJSrwEAADGGuNEXiUlQEWk7fmKunDjVZbyCnBhwg+GC0wKqlH5wxYp8tpzy8bDToGO5jfFEMgrRYMij7aer+QsQ7aC/wsxqu60JWRwtOwzQtlRA/FBvezkFXivAMDYZazIa9Y2OuTK+YiXPnJcIfo2PGEzlbximti55nPTkrpr09fp0dTcHfowBUREUJK8Pv+RaT1Bxd44KdmpLHNuWeYcb0eSvBLL4AYp5PUFeyk+hZVgKfsFYizOiOQVkWxh1m4JPAqwgqb71+ElAAAw1hgr8lrjMx2yOFkzgBb6q0+YQzMID5BCXjvz7FNTf/xE6GnZLkXaXKvXJHk9bUGzOLgAL2JLh707RHMOJ0K0z5eE2AnllaJB6fLam/aHCjTX+3Y1xh3fBXIqm9NJU6Y+p7rJy2/iigQMcKRXdV9xlVd25xJ3nEF0p2ykK6y9ijzkAwAAY5GxIq99j4NmKzJm74rgZqSG77BVUZrDasAfZlHI69MAdUh+0tbTtuiDftOftWgmf8/DlBEVwRVclx8mmOpFxyIzB3IKfkY/XBxiN0F+qk5QhH12rA3zV+2ZRkJ5pWhQurzeO2IE2ZDcyPqztpDRkXt4CaEp2FFee7k/Nx/9KcHtRlImf+lVr+NX01VWxDzHi2J0RC2bpOycAH5YAACMWcaKvMI+YFv+6V/sp2oytEwdN5y58Uzwq3qq4ED7T5l7J9toQ3ITJtA16As3znjQRLiu6NJXbrvDTkEZDbMKNJRXartvofJk+kQVHVW30/NinYVVFA1KldenoY6Q7sE7mOONgsyBnRNGDpt+rIva4mjAUPjf//4HQToH7+AfI0iv4lUH2CqrLfIr6xJzbvu7yvwWMZRnM2vBrFcAYOwyduT1i0GkDdPE/25BbJAlXSU+8zXktW3dExvxT/iNie52OvKaC/xKST4wAAAYewB5/apF1vIK0/vyATf4cKzwlS6xh4O5D14BvxUAGOsAef2q5V+QVwAAME4B8vpVC5BXAAAgDSCvX7UAeQUAANIA8vpVC5BXAAAgjXEsr/9vugqsbv8tsA24NQAAACDK6MgrAAAAAMQA8goAAAAyAcgrAAAAyAQgrwAAACATgLwCAACATADyCgAAADIByCsAAADIBCCvAAAAIAP4/P8P0iIT/iv0wAgAAAAASUVORK5CYII=;sketch=1;curveFitting=1;jiggle=2;" vertex="1" parent="1">
          <mxGeometry x="-360" y="1570" width="458" height="166" as="geometry" />
        </mxCell>
        <mxCell id="w7ae5QyoEXNDG0QztSoP-35" value="1. 取消RemoteLookupProxy子Actor响应超时&lt;br&gt;&lt;br style=&quot;font-size: 13px;&quot;&gt;2.context.become()接受了一个新的 Receive()作为参数，并将其设置为Actor的当前行为，意思就是说 Actor接受到所有的消息都将按照新的 Receive()来处理，也就是active(actor)&lt;br style=&quot;font-size: 13px;&quot;&gt;&lt;br&gt;3.此时的actor是真实的actorRef，RemoteLookupProxy Actor会监听这个远程actor，如果远程Actor被停止，那么RemoteLookupProxy Actor会收到 Terminated的消息&lt;br style=&quot;font-size: 13px;&quot;&gt;&lt;br&gt;4.unstashAll()&amp;nbsp; 是Akka的Stash特性，而Stash是用帮助处理消息的暂存和取消暂存的，这点比较好理解，如果remote Actor挂了，那么RemoteLookupProxy Actor的消息就发不出来，那就需要利用这种机制将消息暂存起来，当BackendMain返回的是 ActorIdentity消息时，说明该remote Actor是可用的，那么就会将暂存的消息通过 unstashAll()方法取消暂存，从而达到重新开始处理它们。&lt;br&gt;&lt;br&gt;&lt;br&gt;&lt;b&gt;注意：identify的Receive()，处理多个类型消息，例如未查到远程Actor引用，响应超时以及远程Actor不可用就将消息暂存起来等操作。&lt;/b&gt;" style="text;html=1;strokeColor=#82b366;fillColor=#d5e8d4;align=left;verticalAlign=middle;whiteSpace=wrap;rounded=0;fontFamily=Lucida Console;fontSize=13;sketch=1;curveFitting=1;jiggle=2;" vertex="1" parent="1">
          <mxGeometry x="-200" y="1700" width="700" height="260" as="geometry" />
        </mxCell>
        <mxCell id="w7ae5QyoEXNDG0QztSoP-36" value="" style="shape=image;imageAspect=0;aspect=fixed;verticalLabelPosition=bottom;verticalAlign=top;image=data:image/png,iVBORw0KGgoAAAANSUhEUgAAAdEAAAEdCAIAAADci8oDAAAAAXNSR0IArs4c6QAAAARnQU1BAACxjwv8YQUAAAAJcEhZcwAAEnQAABJ0Ad5mH3gAAHLhSURBVHhe7Z0HUFPZ+/czjuP9MTDwgkP+lAEHcEAZEBhU1FFsy9h2XdeCCoy6a4FdC5Z1FaRYAKUoKkgERKWKEAUh9CCgCEpRqSJIUxBRBAtCQst7axrJJSBG0POZDHNPbu65zz0595vnPPdwHgoHAAAAANICaC4AAABID6C5AAAAID2A5gIAAID0AJoLAAAA0gNoLgAAAEiPsaq5nVV3Lp2jpb5g4+XvzVizBwAAjE9GWXNrG5uSs/PgF7yBvzUyPj6N8nT3uV3xBS8Pl895QQ6ut6rw0tfztfaIY7TtBAAAY5vR1Ny2jo+307K5L7iI7/gOjBctA5oLAPxcjKbm1jS84tdcuIjvGEzfa+bFY65XCz6gpS8VMe4OngkvWPB2Y5KnI4qDgxujDt2NgGjTyVv5xbH+7q7HT1+MyGnAPc7SGw7Y5zEcHMJKevDPH6c/GPT5jnsBDm4Jteg2h9PCPOvglQ575MO2h8Ppba9MDzvv4ers6n42OK64BfkwiZ0cdlN+DM3rlIujo4ubT1Bc8RvETLF2cjj9Hc/Swy6cdnV2cTsXkvikFYtqiK+/t+1pXKDnSddT58PzCxI9HS5kv8X3AACAscN383N7m5gXjp2MKu3ksF/EeTp4xlVjosXqaGqEKUs4O0hzXc8ExuVV1jx/zKCdcDh9p64P2dH5Fvk4Qv0Turejo3fKq37i86dpt3PhzxcnBhwnPi9Gc4dtz8DLFC8H95C0woqaF+X3I7wczyTWI/WLtbM166LDySvMstqGuqonyUEnnWgPOojPi7CT05rjf8zjKvNpdW1NaQ5cv2diQy/xeVH1v8+lHTt2NibvWfWzvNjAM6eA5gIAY5LvGM/tfZV23vHM7XtJvo5n6M+78Xdx3t/zH6S5jmGPMWdvoC7RTVhT2C/TLzq50u6/QZQJ/3xoMaabfJ8Xq7nDtGegl9X5hd070N/bA/My1cvhfFYr/L5YO+sSPRz87r4dQHfwEG/nJYezaS+RymHa7gc4eKYiwwZx9XcXXnVwjkRdfLgtSqOchNsHAACMCUZZc4dHz6vksw4ODu6xlcQAmYsozeXFPQW0EqHzGd3T8XR0GdezFvd5Es0dlj2cL433Iy+6uzjikQ0HvB6xdvY25dBOOJ7wpoXdvMPMK3vdiamvuM+3pJ8VipmcRK0W9/l3dy86nElqwN7mvEw5AzQXABiTjI7mDgwMvGppLSx9lpFbcCfjHvyCN+Bic+s7YceOn08l4aecnJxcgvPbhD82HM3tb3sUcsLJL62RbyKXWM29TxPSXO+MZrw0DHsGGhlnHE6H5lQ1NiGUxHni9ZPZ2fe5pao4NzP5Voi3C+xKV3XB75Fp7rnECrR2jJYOxBkm01zPpEbsbc6rVBDPBQDGJqOjufcLS/gjufyv3KIS/EPCfH4a4XbM/25VfoiLa/DD94IqJ7nmsl+lXnR2u17YLlCBuM+zi8McnaJKsABEf038SQdaHvbgbFj2dBYEOzjRq/DPoGN8rH5x5+3v/tTx4Qs29IfF/WGgg8ut5/CWuM8jsYXTjDr8BOwPLa9aPiI/KeI+35kf7OBKGDRQdcsFaC4AMCYZHc0V0lmhF/4hQT49jTjl6JvR1MsZeJsT4Ox65WEHIhjsjtfoAzHkmdXJqIfo9puPPeI1tCbe0+F4UGYV+kmE5g4ybeJ0FF51dTpHf1hVU1UY7+/qfCkHk6bh2YP6uScDk588r60pzY254uWO1y/uvD1lN1wcz0bnldU0NLwoY4accuTFf0Xa2Zrlf+z4JUZhVe2LitwbPo7ucS+4z9BEfb4pzcfhRMj9lx87PzZmh51xBZoLAIxJvlM89zM8inc8m9SAOX69zcwLx1yvPmrv57QyfQXimDAOtNwPYrXmYy5NKO55ltkCvy9WmzgDn17cjfL3POl64szFsLSqDvSp/zDt+YjEc3Oj/M+ccHE9cymmoDTjAl6/2PMOfKphRsAHODsec3HzDqQXNKOREPF29ndUpoVdQOeinQuJL3qNBU7Ef77zRfKlE4h5zl70VLoX0FwAYEzyXZ+hAUaXgZ7O92/bv/Siz9Au5bbjbwMAgLED0Nwfht6Pb9DQR8OLJ3EXHN1uv0DmKQMAgLEF0NwfBjzM4uDo4n4+lPniE/42AAAYSwDNBQAAAOkBNBcAAACkB9BcAAAAkB5AcwEAAEB6AM0FAAAA6QE0FwAAAKQH0FwAAACQHkBzAQAAQHoAzQUAAADpATQXAABIhT52NxtdUurnBmguzEBPbx++Uu0o0tdelRGdxZdaAjDmqMu6kfGsHVtNebwy0NP3DXrvqDLwOvu0lZmmooye8yP8rZ+Y0dVcdoR9gpLHG7w0JB/bzh66qz4ngWKaSDF5FMeX5mG06czLuhv2vBMvCdKSGzr5z+ObkAUaR42eRsaRpZpyGov8S/F3voK2/LDzEY/a8NL3o+yMCYVCMfIQtwi9SNryQs+FPRwd4zPtlWADUGSUpy2xDcgXWlmejI5HZzfPUpebgB5uHYdloCv1X6Qhp7n0CKORWE7+68iM86W4eCEvZx9lnzDb3JfDsHBEtDymT3b23fR4LC+v8enODlW52XvCmPklr8AyIN9Vc0toTMqqwuD7rTkF8OtD6zdcB6vV65jD3ERkkfDBtD6M0rL12PFw9HrDe6a9obzRrsiqz/gbX0e1zxxowflqvPTdeHf1V4qWlhZlRbDodhTNc69ZlLnnkJQYXw+iuQudU3JycrLT6We3TJ8ktzxQ0nFEiYcRRe/P4LRs+OicnHJeZ/tcFbnTSH6GPXM0lr5ENJeWmfKiLqemhp51e7rr2eV533ZJzdaSO1on/XeUiPYnxgbPvc2ghRdf4KWfnu+ouf23jyRMcuEmI/umkGnuaMPOczSQmedZMWpu+9jQXHbyDjnqQZf9SrJ/MTAnUSJGW3PXRRDjEXbOIW3KDPdyvEhOz+2tlEm2SXhJCHbFmXkyBo55X/+NIZobWkJY2JuTcInimyOZhT8wrwKWQsbDGx79yHy95rILIwoXrExW+iVrx613VwU0t7/uboXlpjTFOUk61o+88rrwuNlAf3dXb2cXO/JgwqRjTZ3INvzqkyCq1ltfnGrtclpx13FtxytHcl/z/bj3Nj7N2HLcS83uxNRjIQ4PWvBdzXdn/elA+ctR4HXqHpZa4W3WFe6bBnQklTnOh4er/jphX8qziP2UPvmv4DD8ZuqtK0y1dPZQ3OWq4xrmVdIhYDk7y15D1jJq8Gia3ZDssdV8GlVJVc9srUNMJZ/x7JcZXn8uNp5CVZs+Z/0x+jN8V/X5ORD0P0EgCxpmPIfTXZfkZmVuqEHVMDS3ckuq46aHZ8Vvh+R2R2Wf/sNYnTrFeOWBcKJGjP6ySyu1lLVWXiobxtCi0EWbsiayJnw1Rcu5AH8Phd2Y7rnF3EBNUXnqrD941/X83Cx0GC/AkgCe8YyTG+dNU1FUmTZv40kGn/Fx2yiT7CKy3FcbUhXVDJbZh3FbSlBzOe/D11Im7EjGr4FdxzhlOUdLUU5JZ761F7OZ6Gw93Z0wHZGbKJN2xCGbCCyhztYWZSmjsT9bOMAw7IYS1FzO+8KbFJc7yXh4obeuPNvS31/xhK9OwC2v5x/5bOhtrLq/hXZZ7dT5qRdvOjxp5fu6xB71tiAaj2O4eBmkv8bfhfn8ZJXLefvnvKdV7CrGZJcbYfioi8QMsfSy8IbjIdyEJHTe3AxRD2TipZ+er9XcT7mPNUxSlp+vY9xrop0sXGzJ01xWSZm+aYrF2brEe03Xzt5XnXXXuxrtfe/rVpmgMVz+lwTxXNZzxvS/TiwJy0t4UhEeE6T+55lDFbjHxapLNUF2PYB3Rd2+pvOXx56naL707rcPnj5Lf5q/65CDflB+OrL9LL26DUm5C/fF9005FTU5FU8OODgIaC7nY/BpR/XQaqJb9WeFuk04k4ddGKs6Sf+vkxaR+YmPS69F0lS3n/d+yXdLNtAWQTN9nuElLqxHLjNk1Cz+u5qYnhJ5crUWNP3wPfzOYj3xmCWrbnEkJDEtJdpz4zQZXfuMDmRHZ11eBkzo3waQ0e5QZBOmoAEznlV80kRGY8Wx64xURuixFRoyJieLiNZANNfYYvfxyKTUhOCD5iqQ0bF8Pt+0J9dRXxaS1XfMlTyKWX9pMcX4dCWn3H0GZaEfb0TPeuxmMpG65HBwQmpy1Jn1OhO09qRjxtc+SIe5tkuPom93DdmEeVSPG190fMYEFQuHq4wUxjUHC5UJM44XEsYjmmu4xM4lnJFyJ3D/PCWKvkMetk9Ic0tPm1A0j2IPZeDm1Z+gCleYmJJ4zWGZ6iQz73L023sbugrXe36IeC6XSm9TaDGNyJtMMOyGEtLcUmYw5UwGbmFDpr7LBQtGcWJl1TVGhKpriPdrvNuwXuWYuJxfkliU8Ox5FDNGx8V/TxX+G0RyFPtDS86LupwX5QcueApoLudz8BUv9Tt1vN575+KEK0V47xVfoXg6Y6wG/fZbxQj8jpOS9LcMtOMOmLKA8bWam3U6mbKjFslABtPX7vwbT3OzzyRTdtYSTm9X4I4EnfOo99fbXVX6vrD0nadtwiT76kJkG359GvJpQ3NpzqnU50SAoN3/pINWFH7zP4hwp7jlEnEKFt3PSS6wnO8+IY8tdAScEtJczqt0GsU+Pg/rjQN1/9k7LMOkBL6u0BMUj1ziuj4Gejjo3KjHSzAlHoaQRTDhznFpvhvgTssmLEBGW7pOD7FCnqMOtDyQML7z1jYFpX+S+YwXHVtAjloRRNxqzYHLoanH8rECornQ0iDchoFnPnOhaS7FWAljoOtd07uuYTze6YzZPEnhn9ReTm+yncLETTe5keoHRzUpv9C4xtNtZORsk/iMFx1bQI6yuMw1nvYLZYpDHlZANJey6DL+bQxUes2m6DgVoQVEc9dcfYN4We2NuRd+U6XoOeRh58o+SKUsDyK+lJbAZfBBqNb1tFYVwuR5rqRMWncR2USoEe5sTcEWkKGI4e8wGwrR3OvFb9jsTnZXY23+bx6eeoyXuIV3zlOCCwkLPwUGeeok4xf5gOFHCSwg2pBNj/KRi30+5FEEHwIuC2ku59WDcMqZdKL3vvzP03MZkd1aggoH0/+upkiYmndDSXU/uwv+pj611TMPz5I1vzA68aUfgK/U3N6bBxMU3YlvkMMO38fV3L6YQwkqHi1E6KA33SOZcvgVny/bR/83YZKrQF+RhIG+ni8sdifrS+R5h0lBFeh7PTEXHBSvEZkZRTBszeW03jP/08MJdcwHapN1/7xEw1M6suFzqVx71onYgLzSr52g+D3hXddTdwNRmosx0Mv6gkhGxw1rePSfgr7XTbchH3mJ1Nxu+hZIeT8TL3E4zP3K0BY65h0hmiv7dxq6DcNmHjU2dsga0pshof/efhXKqhDkt/X1lZUUlf338Nq6YzZTFO15ZgxCpOZ2x1pRFPbxGb9PgWIVixsPa+7EXanoNgw74z8DwyN30dMhmstDRm+d3xPc1+qCzVCxT0eaFiXdnkqxofN1NhbdmjLJLhkvDQbRXAP3p3hpxCCaS4z3Kc4+eqEPiZ7RExPhqRJX04nIMfJKjztPiSpHdyK7FONq0Y8JQXIUFxGay3n/yNzZ36kB7b0v7+o6h9HwJ3mSVDhalLkbI94xBMlMXXf1ueShiB+dr9Xc6AP8AVz+Z2jILuEAwoFGvvHIsDWX1VRs735GcTsvPktoLjv6vIPS6Goup+28q8O0m41wty2h+1COZxGuLHIurgH463wR77rEaC7rOf3ACn2qHG+MRmguMnBTOXgX3RaJSM0VPuruQRXucA+L52ag26PDM28Tio5rYS9CgasOxdirEtvRGb2RomRP8oMhUnOFj0LEdGM0bjwaz01Ht4VAPrbULaew8P6532Vl/ojiJTZGKhSGqBBFEs0V5ecOE0RzA3NyXjbdz46WPX4zijdxhR0d7smTY+wVXopaiOxSEq25JEdxEaW5nPbzAZ7TUpuQ3psRRAnI5/XeoSsUwYjiuZ1NZbA/XJDLOG+pQ90UPWzv6kflG/u5R+uI0AH6qmfxOVvD1dw2vxOOyh5JtyrqC180Fr6o8zzD9XMR31OBT3P7+3pZvfx+3Qg0l1OVcIFyOKVE+FjUz72Uh9pAvJo/805WdXYWNPdCDV4iqL+0RFZt5Ynb9wrQgVm+929cP7cL9nOV+fzc/l42S+DfdUbk546q5r4N/R0XMoLfQzHBQxxMBT4/d5DxI/JzSTQXi+d2Z+3ToMw8XUo0O+rnbgvBIwcY1fyD36E097mvGTT7HMmvtmTw4rk9dfvOeM5kviFsQB3MG8WFL5t4r9ZOdC+yS4FPc/v7e1l92HEkR3ERqbmcqqyrlLNZJZx3Xhc952a/w9+VqMLBjEY8d2fCUGf5WfjaeO5dD7J47qR/XxJfzEDri3f59fyDmGFq7sAzux0OVg+4zz4+XHbnai4Wz71POJesmAvH5IMq+H6I3551dpgZL+5cojWX84pp8ue5s09zF/15zofPb80OPTHpIjGo5fS3vqrLb+brfp23bWSV7BjYsyKCgYzd8rAkcj/2OmgFV3PRyOyyy8QZPtNt5CfvTuEzvtZ3PmTmjTuWXATjuUiFAvFccs0d6HrXLHmYsifJVoGy9HReKcZDz2UTFOySse8Sicwu5U6l+ByzGZK3S+Yz/sXZOZSZnvjXxEUwnvv6soVgPHdIzeUMVHjOplB3JBOTqrMPUidZc9u3r7XyQX71e7yEMITmdibsVJTbEsf3NeIMr6H4n6ENVGSGUNzvJOMPw5BA6qTIcl63edOY34o+5iXiuUQbsmMivOXp+Fic5CgC0ZrLeZNr4nzlbFXBIudgHz5nQ4IKBzOyeC4XxD9Q3MuNdf3sUPr7v+rn59P9YnWTlBXYvIUTD2eu5mkuMm9hZvrG4IbkBy1x0U/mzWNYMogOiDBcP7f9svsxWYcbl/IrM4qL/a5EzD/C01xWbYqxwLyF0/tK+HsSm3HZdYIjPaIYmbfAbMDu1P6WxhruvAUtWh66XfOM+9SZ89r9iMP8434TjqTxawarmqH/l+fG+MLkkmdx6fR5ti6WAv/D9j56k6Lyhkiu84/yKmiFvOJsW9qtdGYK/ZL99oUmPM1lPXabKYPOW0jH5i3o7Wfiz+tQuhh2VBkz+6gUZNoCswy/gVjFp0xlpqxyDmOkMcKcV02RMXUrJh79D6G5w30c/9hFl2Lmw3MCq33nUXRdHqPbrOKTxhPQeQtp2LwF7X3YpAucLsZOxQkz90YkI9MWmKWE8UUnjCaoLUcnXVw/tlxtghFv0oVEmgsPXcJXy0xcGoA/RGU9ctafqLfRMyqZmR4XaD9PQcHyBv83QK65LeHrJitZxQz674Wvm7fw6enq415Lc/Fa0QkDtI2ZJclVNXF5yfNOnrMsxkMPrFdZxti8hSps3sKlfQLzFkQe1d/yuo47b0ErphjdruObFNjq7us5P+D6BN97Ar1XvBnfDOQBr+FJgYe4PzNf6+fCcvYorHD+imTFJXetI1svC8zP7atllq+3TFWYk6S5Ltf+Zptgnx52PJf9pszR59yUv12UD/rvYr6MovE0F7496h+nWR/3VLU7rnMs5GguMT+XoK+19ID7GSU0FswfBRYIy6IvO76+8TjWC35nkAvcU1uQtP6Yu8IuV02HIPuMBqF7lV3ma66k+qtPYTvfzxm7juG0wWyqymQ1/SV/hzyJtuVpLnIjpJ7ZumiGJlV12px1jrGCs2lh4xsTD63QV0FjwXxHddcx3KwWGGhQNQwWWLnxT3EdQnP7Sy+t1Jos8bTTl7RFFM1jD/mcPWSu7mJiagGrPsXDesF0VcXJOrPWHL3JP+8Yoa8h4YCFrtIkJCLBp3ro/Ny5eiqKKnpzRczPHVpzOV3pe9QpOody8bETq/aO6/rZUxTklDRNVtkHFQh+KeI1t7+90OdXFaXFfpWDdXWYDSWkuZye9FsXKV5pubjb31tbene9n7/CCV/NC1H2eU18FvbWV96zDqCpnvLVuRh99LHA/FwxR4mKzLp42fENhx6nXYbfGeQCk5jxjajymg0t8hMZsP4Z+XrNBYig/aHXCnVZLXO7WNDTxjK1sXYLtWU1VvoU8PvmgNHlXdhaWZU1Fx+//vAFrCsGNPfb0fOunBHgGjUKa9wAvhmlUa4BjPI2CSMHgBHSXRK8wUABHqWBdcVgxo3mPn/+nM1GhpHw3zG7DQAARMP+0FRdWgrWFRtHmvvp0ydY2sbyX9xQAAAAEM94ii2I8y7HyDb8FwAAAMgB8VwAAACQHkBzAQAAQHqMRHNfvx7GpFoAAAAAcAGaCwAAANIDaC4AAABID6C5AAAAID2A5gIAAID0AJoLAAAA0gNorpQZ6GH3SLwc6/ejr70qIzqLl2ryB6Uu60bGs3a+5X4BgG/NT6y5IjOZQ3MGJXscTVpirVUhVetYfJH3r6YtP+x8xKPBed0l5GOUpYi0QD2NjCNLNeU0FvmPwgI9bXmh58IejthCAZC1HHFklKctsQ3IHzJvKY+OR2c3z1KXm4AeTuT9LfVfpCGnufQIoxEscwOQEj+x5nY2Ft1DuWFvCBna38AKRfwp20ad1rhdusq6tnF8C/d/FaJTAkuMKM19z7Q3lDfaFVk1OitZi877OzIQzV3onJKTk5OdTj+7ZfokueWBkrriJR5GFL0/g9Oy4aNzcspbuQvifq6K3GkkP8Oe+e3XkQUAYEBsAXN4v617+80Ydc1l5zkayMzzrBi11SNGW3N5a5azcw5pU2a4l+NFcnpub6VMsk3CS0KwK87MkzFwzANLZgCkwPfS3P7G3GdbbJhq85OnbshzSP7A51z212dXWFulKc5J0t7w4AiDfxe7MLp46eoU+ZmJCkuZqzwaKni5fvrr7lZYbkKO0rF+5JXXNYwYnWjNZdcz3DfP16UqqUxbuNUns5lbIZaFISr79B/G6tQpxisPhON5Hd6GrYbWeobYGatPtw4vLzy3UltjxpZQPLHV27C1ePzif/8zFkzqjaTstQzOotmYTVFR119sRyviW0Cb3ZDssdV8GlVJVc9srUMMkYVBZGDEgpuXTKzx8Bi7kGa7SF9dRcfcNvTh9U2CmsvOsteQtYwaHApg1ye5Wc/TUZSbrD3z9yPRFfxfSmO65xZzAzVF5amz/uBZ+PzcLHQYL8CSAMJCNE/EvGkqiirT5onIExGR5b7akKqoZrDMPoybeUJQcznvw9dSJuxIxj1Wdh3jlOUcLUU5JZ351l5M4pIHerqRLLUdkZsok3bEoRlrYYST1rZFWcpo7M+WLMAgPgluV5rnPhqzjq9xAABhvo/msioqTGYmL/GqTbj/OiowX8c0bQ83xcrTsummyUs86+Bd4X656ibphwrwW2GgpEzLJH3ztVfMR61pyZW/LUkwvoyrE5J7zTTF4mxd4r2ma2fvq866610tcahPlOayCo4byWiuQBN2hR5bqSk37yyR0xLVXGOL3ccjk1ITgg+aq0BGx/KR8CCiubqWZ28lnF2voT1vv3/iLZdliir2d9Gl8dnNJWjs4tah2ZAIzTVdsG0v7U4q4/pRCzVo6sEs/LZlPXKZIaNm8d/VxPSUyJOrtaDph++huzrr8pDsaKF/G0BGu0ORTZiCBizzJYnxn5j22tCUVS5hjNSEy/a2v8wV1NwG2iJops8zvMSF9dBp+gTlJf9eSUhLDj++Sp0y9VAOYeFjN5OJaD60VCwfmtaedPRL6ax9gKRAu7ZLj6Jvdw3ZhHlUj1tYdHzGBBULh6uMFMY1BwuVCTOOF/LnQzNcYucSzki5E7h/nhJF3yEP2yekuaWnTSiaR7FFsOGG0p+gCleYmJJ4zWGZ6iQz73L0kt+GrsL1nh8insul0tsUWkxrxEukkCTB7SkP/ctMVU57KVBegFi+j+Y+8EmlbH/RjJd66IcZci7NmLI251efimwl4p2d/lsTtM7hmaLb4vMoy0sLsQI8MG79VN2Ky3H2mWTKzloiEVtX4I4EnfMSP7cRpbk5/6pDq64QFbYEr4SmuRRgBURzoaVBuMM28MxnLrwPSaKGaO58JO3TZ/omaMPNDxxOfcBCaE2EgCFNNAtRmmvoUoxnLalG68PP1Xw3wJ2WTbTGq4ClkK7TQ7yEIDq2QGJ89iF1aGUwkaf5sesMQc0t8TCELIIJX5RLc6b/qYAswoyX/osoWo54jmEkg+8vNOKr7KTbyMjZJvH5i6JjC4J5f5tpvwjm/aUsIpKtDVR6zaboOBWhBURz11x9gziW7Y25F35Tpeg55GHnyj5IpSwP4l5y4DL4IFSNe1qrkMTreZ4rKZPWXUSTsMPUCD98awq2gAw9SvASKUMkwe3rqIz33jFXDSgvQDTfRXP7Yg4lKLpzU1WKYKCv70tXb2cXO/IgL0/lQGXFdJMUC6/auIfvX3TwJ1ZCKlTxaOlEDkFe6R7JlMOvJA3PidDcLroNpHEwAx03ImQcVIe23cIqRDRX9m9u5mg286ixsUMWfM8hmov6Sp23rCCrW/Dd1khbDK0Oe4t/EkWM5q6PIOIJSGJq+T2peAlloJf1BbGi44Y1f+ZKGJGaS2L8l1hriHogE/0YzIfIDYKa+9TdQJTmYnDNQMbpeD7H7pjNFEV7JrotEpGa2x1rRVHYxzuKuU+BYhWLhRcQzZ24i3v97Iz/DAyP3EUlDdFcHjJ66/yIlPddsBkq9uno5SKk21MpNnS+DjBErnVUcw0Ev5avor+jKvGc7XwNee0DTCGXGvCT8100tzf6AH96YAFYdS/tt6crzkqgmCZiL77cwL1VKWUbrdLkTOC9jOl7K7JxDxipkPt5/HVA4gkIIjSXZPwoPqvu12iuZRQxZGbd2soTVtZz+oEV+lQ04y+GBJpLYjyyi09kBz1DE6O5rKoYewtdRTR3LwahX53RGylK9lwRH4xIzRU+ChHTjdF485Ln/V3qllNYeP/c77Iyf0TxGhapUBiiQhRJNFdCP5cknstHX0dFwrl/FmtP3pnAe+gAAHxHP1eBz8/t7+tn4f8o0Om3JVF5R/mtgrbC0veFpe88bUXkY+/90l1VWLf1twTV062ou4v6uUfr0EOIVz2LO9wbAnF+7vZr+MgRgxg/SlFz6y8tkVVbeeL2vQLUgnzv3yT2c0UbP5SfW3V2FjT3Qg1eIqjzWzhReZnrrZxH6MAcHafj+oU4mAp8fm5/L5slkNt1RH7ukLnWu7P2aVBmni4lvmLUz90WgppHUM0b7w+tuc99zaDZ56rwEilkv8cIve9Lb3luM1NVMljjGJb3WtLRFuBn4fvFc/+qIdypnphDifKurxFXYaDFblaCVQo3Hth1eTtPc1urXicWf+Z6DYUX0yn/1L1Ht7PPJE/69yXR7wdaX7zLr5e4s4uJ58ptRWQTpa/1Wd7DGuxUUtTcgYzd8tAWOvd2fh20Qkhza33nQ2belXiJgMT4rINqZPHczts2skp2DOxBF8FAuh0ESyLPjMsWPP1CIrNLufMlPsdshuTtkvm8vhdn51BmelbgJQLBeC5SoUA8d0jN5QxUeM6mUHckEykNsw9SJ1lzW6qvtfJBfjV+yShDaG5nwk5FuS1x3EskgySe29eQ4m5lSgVqCyDh+2guq7zC2FRg3sI+fN5C5+XtibLrCy+ltmTkvPQ7WTh/DU9zX9FzoTl398Y0ofMWqv5YlmBIwyeyI/MWZqZvDG5IftASF/1k3jyGJUPiIZ0ozWUVuBrJGlh5R6cwM+KDD5grK2++iTvmI9LcvpZydNoCOm9B1/YaVqhCYyPi/dxXQSvkFWfb0m6lM1Pol+y3LzQR0twuhh1Vxsw+KgWZtsAsw59ykRj/KX2fFjTlV5ewpNSEwH3WZkaCmst5H71JUXlDpGDc5+VlC0jWdMclelpGcozfnm3zZ/D0i1V80ngCOm8hDZu3oL0vg2+qG2zhTsUJM/dGJCPTFpilhIVFJ4wmqC1HZ1ZcP7ZcbYLRySL+eQtDai78Cxy+Wmbi0gD8fyJYj5z1J+pt9IxKZqbHBdrPU1CwvMF/EeSa2xK+brKSVcxX/1dEZ9xhoLaAIfg+mgtrUP29SmubDNX5STobHhxN4k3CZb9qdtyXOWU+Q3llzq6Y9qhjfLGFvs402qN5K5JlTBMVf2Gucq8v/4LvgffVMsvXW6YqzEnSXJdrf7NtGPePKM2F79K6hBMb505VVlLRmbX6wJVCboUj0lwRA1IYTD9J4rnsOobTBrOpKpPV9Jf8HfIk2lZIczl9jYmHVuiroAFfvl1ijedw2gsu7Vo4TY2qNXcrLSto0P+hsct8zZVUf/UpbOcbmcNmOK6dOUVJXll34a7gx1E7+PWLVZ/iYb1guqriZJ1Za47e5M6mxelrSDhgoauExoL5jkLn587VU1FU0ZsrYn7u0JrL6Urfo07ROcSdZFh7x3X97CkKckqaJqvsgwoEO4B4ze1vL/T5VUVpsV8l32wLAOCb8b00FzB2aX/otUJdVsvcLrYWf+eHpTbWbqG2rMZKnwJ+3xwA+IYAzQWIoOddOSPANWoU1rgZ25RGuQYwytuAhwuQHkBzAQAAQHoAzQUAAADpATQXAAAApAfQXAAAAJAeQHMBAABAekhPc4FSAwAAANBcAAAAkB5AcwEAAEB6AM0FAAAA6QE0FwAAAKQH0FzAd+TtHmYZyYLnAMCPB9BccgZ62Phq6lKir70qIzoLX6Hwhwdo7vdioKdPuh37W1OXdSPjWfugfB1jkHGjuU/djbH1D2GE1jP8drTEWqtCqtax+BrfktJR4GszR0tJBjYVgrbGS5wPq6eRcWSpppzGIn+JFpfpCLtKnRgBV8+iR1AnXo0SWr6yjLlwkvP/mWSU42WJeJ9fcCm8nn+1729EX11Lza6CXGoKc3reE+dXnz7j738NbXmh58IeSpx7lBRk3UgcGeVpS2wD8oXTVpLQ8ejs5lnqchPQwwflGBaN1FoeoeXxdqrT1M2PibSiX8tXGv8pMpSqHJeDl8gQ3+dL/RdpyGkuPcJoHOsrFo0bzf1UV4Au853pJpwr4RvSGrdLV1nXNm54XbP0jClksCMkPQc1uKKVbyFaMt4z7Q3ljXZFVkkqPx/Cr1EnRiawOezbkdSJ16IFlyNsuxZC1fE0nhgcOhzra7wvUOdnCSfnGXXeNj9VTUmnpDMVUpmK6emUFObqhi9f7XaJzjE8MhDNXeickpOTk51OP7tl+iS55YGSjj5KPIwoen8Gp2XDR+fklEvWAaTU8hitJXt0ThjvLBFIYfIVfKXxkmsuaZ//XBW500h+hj1TyPsYY4y72ILAkt5jkp64vyC5f8SlJBAHO8/RQGaeZ8UwUgywb0VSZWKRxdNTYtUnRt4ROLQ3Y+dxvUPJDsque/hTnw+FdO787sv5sM7m+3W27mGWpX9pWJGaTrlXI1E2MjJGW3N566Ozcw5pU2a4SzZk6Lm9lTLJNgkvSYpUNXe0kZrmkvZ5GHbFmXkyBo55YzlTxw+jud11SW5W5oYaVA1Dcyu3JF7eAXg8UkSzW2ygTp0y29qPedkS0jh8D98jnrdha7E4Boyo9GXBWTQbsykq6vqL7WhF+I/tQE83kgMWzYhuG4/mg4XhpoQlsRDuK1n2GrKWUYPHxR8LHxyw8DFQdFZVOj3/t7gYflFOp2uq3cmFN+4nTJejCyY8b/SY6mQV9fbmGidjlwb8PRR2Y5Xv1oC5Gid19S5YOz6pwtM6tF4yc6JOcv4//tdE2hUi0Vl3XbnnJv/Zaien6fv/daq8npfWoeSfiS77I6t91pzVm+wxd8XtG5VD9/cPJ7PTKalPGf1YPLenvqP9YXsn4bOw65PcrOfpKMpN1p75+5HoCr7EE+zGdM8t5gZqispTZ/3hEEPkpHh+bhY6jBdgSQDPeMbJjfOmqSiqTJsnIidFRJb7akOqoprBMvswbpYLQc3lvA9fS5mwIxn3WNl1jFOWc7QU5ZR05lt7MZvxr5joAEgu+h1x6LcPMzgnsCBDtDy7rtxro5/x5OM6upd2eT9v4dYmtuU/R/3mZHUmb98Mt5mbCyoL7q6d4m5m/agaO/BtgRX3LDPSBBId343TmRh6Lev+jtkeOqpeK3flPubzItn1Fd42/qaTj0+desHqaLGE3Uas8fBdWXh/70IvPeUzy3c+KrwWJqHmkvZ5lLYoSxmN/dljOMDwg2guq/ikiYzGCjS/VuixFRoyJtz8Wp13D06F1Jc7hjJSEy7v2zTLQCLNZTeXoJEBJH2ZCM01XbBtL+1OKuP6UQs1aOrBLLQHIrl5BmWEJeK5JBYiNNAWQTN9nuElLgMN7jpOs6yy7jBr7qc/Ofu7B9WUycvnmMeYMS25GN4oTjXTSMBzOGLU3/9tou/ZSs4zj3PUxffq8XdhM155z3TW+yUhNPFZxg3mVl1n471VH5Ad7Lq8qsyMqghbb6phbEQGsp2Z0dCIZaNkvTxj7DxtOSOcUZl6nfGHmvP8E4248eidP++XWI+IcmbCA4cFJ6mGjIKhApg99CImJYU5q6R05aBnaKyHTtMnKC/590pCWnL48VXqlKmHcvAbnPXYzWQimnstFcu9prUnHZWFztoHSLq1a7v0KPp215BNmEf1uPFFx2dMULFwuMpIYVxzsFCZMON4IWE8ormGS+xcwhkpdwL3z1Oi6DvkYfuENLf0tAlF8+gjdJv1yEV/gipcYWJK4jWHZaqTzLzLUTF5G7oK13t+hornkrd8g4eh83S05VOuM9aqu/zigyZrRXaJa3lEc43XZ95JyLRWO/2L/b3kW0m/y5/89y76g8H+UHavJvdezZ2D56kiNNd32Rb6lTuVqdcSV6s4GR2oJlq+3s3AWfeXhDC420SkWmo6zfy3Bt01UuM/VR2e4qS/MimSUZlEo+9delFSzSXp8ziV3qZYiqyxyg+iuXmOOtCKIOIEzYHLoanH8rECsmvhRVx1+p4cnyGR5hKISdNr6FKMJxSv9pkLTXMpQDZ7Wp8jOWDRjOiW/mg+WJgX2LMXEgsRSjwMIYtgwj3g0lZoPdHzVCFeGvj4oab6gyTh3s7YcDUlOrOX05sSqw2F3+IeA3fZiYEhzXip81akhkJsOp9PIHqQiB51lTC+5XIgVZuBXjJ25zv9Gki4+pWZSyd6uhVhJfGwP9QtyoBd3QxYefUflZ1/08n1PZsz/U8FZBEx6Jf+iyhajnhDIdmCf6FxjafbyMjZ8gdORMcWBHMMN9N+EcwxTFl0+RVWGqj0mk3RccKMRzR3zdU3iKPa3ph74TdVip5DHnau7INUyvIgIsNlS+Ay+CBUjXtaq5Ak72gu+nUX0YTvMDWSPXwT3fI58XoTg64T52oNCqLqJuHdQWzLI5prcfEt/Inblk420bD+tQWZO20Kx/UTo5lGE6W53m5FuC9f432Rd67m50FuufeJL6XpEo2qwyB6JcKwjc9Gdl3Dn033P3XxkVRzh6Yp2AIy9BC4srHFj6G53fQtkPJ+3kCDuV8Z2kJHb+O+OzsgaFci0e0/RG4YDc1dH0EMu5BTy+9JxUsIw7UQ5am7gSjNHWjyMnCavjzhWnz1kxedQ7mPXAYeHHCn/paP3COv8zdMdHe4j19/d2w4dfLtbKwgCpE3Tzc9gqp0Owsvwcbf1p4YEYcZj9z5zvZp6DYMu8plxlnXLAlUpvPzm3MlDzVTMOW9u7ZRQBIGellfEL1Dx+l47sjumM0URXsRw0kCkZrbHWtFUdjH1/L7FChWsbjxsOZO3MX98tgZ/xkYHsH8QURzecjorfN7ghvYBZuhYp+OWIeSbk+l2ND5AipD5HUXg+iWh78vtbjMTvYX7JURp8cNYopteURzV9Lew2/Fb3L6C7Hs/ZVFTpZhAj/WYjSX91QK+dJlBQfvA/2sL4gZHVHheFCVYLjGd8UI9MOPEddHV3MNBG/ZscWPoblIVl3+/LWILFrFoPdIb/x2CLJloG/DfIySLJ5LIEZzxaTpRRmuhShiNJfD+VL1xH2Tv7GCE3Wis7bBNa8c7nCXhDcXZzqZHm/s7e3v7W04retk7o17FF9uDhE4E3nzCB+F3JxhdMx4dIS7X0QWZIl4u4dZ7NNYMg1WXmYFEqWDK6yKsbfQVUTzBGMQ+tUZvZGiZE8ynVek5gofhYjpxmjcePIcw0vdcgoL75/7XVbmjyjeE36kQmGIClFGUXORlheOlg7Z8l+juaEx3I4Nay5XWFmtt+0DZ0124RkjgeaSGC/UoyR/hiYBwM/l8p38XE7WQTXojzBi6mDdBfPvorlD+blVZ2dBcy8IdVo+etmtVS/CtvmoqMffx6Ma4uF/ToK9/ih4h+5BXA8lPj+3v5/N6uOvT7TDMoSfO1zN7ftS0Nqa3v6Fjf9PRDctL52SUnAd8ePr/BZOVF7meivnETowR8fpuH4hDqYCn5/b38tmsfmNH5GfO2Re9+6sfRqUmadLiRlfqJ+7LQQ1j6D6HbEXZrT93BthhY2Pea/WNuxcUtTcBn+aqkrQ6ds1hagNBV7BEvu5oo3/ln7uc18zaPa5r54E8+0Yd5rbm7hLVtaWwdfFEQSjpa+DVvCipa3Rm5RkZx9KrGx99/pJxKH5msKa+zbz1Lpl605lipyrOFqaS2YhQudtG1klOwb27IFHaxOTUcebJFCYMnvi1cihpp73JMdqT7x8Nr+5ohR5FXoFqSjFZmADUiQyezmE8Kc7Y8PVFWMz+J4m153zo85mCndYwXjum0CheO5wNbe/dWca7NiWJLFRze15uzsznZJWkgqPiwfS7SBYErle4+vLFjz9QiKzS2mE8Z9jNkPydsl8xr84O4cy05P3jBFDMJ6LVCgQzx1SczkDFZ6zKdQdyZ/QHWg8d5I17mzCPyCtlQ/yq/m/k5FpruiWz4nXk4mI552r5dHDVnz2qfQ0dyDzbxeqNRFbwTqAoOYO2/isOF3yeO7b555/XLY6+RzzFYZBZ8JORbktcVxjxx6U/n4h+Rqa76q5nLqApbJa688xstB5Bfm1aPyJVXzKVGbKKucwRhojzHnVFBlTt2Ii+tlTHbHNSB6CkdO18j+xVkhzu+g2yGQDyIbOJ3h9LeVo9ei8BV3ba1ihCu0AI9NcMgsR3kdvUlTeEEk8cMB5lW8pe/yXfXnJmci8hfNrPalG6UOOmkpcvahz71bjJQ6nOnv5RC+Px+g265WnqcC8BRN7bN4CTjfjpvakC4cjK5EH0Mxm/KkJ66WniTP6lPlZamjSOg3nBade4saPRHM5fY+e5U5ISZ/IvEtNvTuFyaSkpJtWdaA1vrxsAcma7rhET8tIjvHbs23+DJ5+sYpPGk9A5y2kYfMWtPdlEOFHhC7GTsUJM/dGJCPTFpilhPFFJ4wmqC1HZ4xcP7ZcbYIRd8aIZJoL//SFr5aZuDQA/58I1iNn/Yl6Gz2jkpnpcYH28xQULG/wf28j01wxLd/gbug8exOTnlKVGf/gyIIT2huLiV0j0dy+lte53HkLOjfD0O3cZ6hCifdzmwID1eXP7w14ymRW3van/2N+Tkhzh238p2eHNJ30VyVFJlUmXaZvny2suYiPDI/PJobfFnZDhqAlfN1kJauYsfxfEePOz4XvrKrwPUunqcihM7G0nbH5O8gcTDerBQYaVA2DBVZufHMwUdgfmp5X1rR2cdrDhDWXUxe+WU9Fb3M4/38ZIeFXdK6XAJiQjkxzh7KQwy7zNVdS/dWnsJ3/R7C/KT191wJPPTlntclnFvx2O7oc81dJaA9Z4jTDqZ7vMRYyV/c34gE3q77yrE2AmfrJqboXrBweExMtCfreJx8MnKWMRu747ive/NzpoubnDlNzYdeJ9aCufF1ujkIKUzu30L7u/TvCXnYdw3HtzClK8sq6C3cFP47awa9frPoUD+sF01UVJ+vMWnP0Jnc2LU5fQ8IBC10lNBbMdxQ6P3eunoqiit5cEfNzh9ZcTlf6HnWKzqFcvPFZtXdc18+eoiCnpGmyyj6oQPAOH5nmimt5Vm3p6Q0XjZSO62idt7TPK+Kea0SaKyLGCr/+rkSOI4nnsttSj11frH1SS8VrlW1eyY2bQpo7bOOR/4++t8fcU3eyx1Kb3HuBg+K5tQV/Tj1psrFgOCuP9LcX+vyqorTYr3IMz84dl5r7VbSG/EpM7Rp7tD/0WqEuq2VuF1uLv/OjA9a4AYwStbF2C7VlNVb6FPAPfcYiP4XmdtQ+RGMDORnRhxcoUP+KG7vfSs+7ckaAa5REa9z8AADNBYwSpVGuAYzytjHt4WL8FJr7yFnvf0ggQmay9izLE+lNw45gAwAAwOjws8UWAAAA4HsCNBcAAACkB9BcAAAAkB5AcwEAAEB6AM0FAAAA6QE0FwAAAKQH0FwAAACQHkBzAQAAQHoAzQUAAADpATQXAAAApAfQXHIGetg9EiSaGT362qsyorOGs5rSiBjo6ZPadUnzXKPOGDF+XLfh6FGXdSPjWTvfksnjkXGjuU/djbEFFWFErZT4TWiJtVaFVK1j8bWVJaWjwNdmjpaSDGwqN++vJPQ0Mo4s1ZTTWOTPW+OmI+wqdWIEXAeytt7Eq1GjsjBoy+PtVKepmx/ji5ny8T6/4FJ4/VCrovMhuACgCMSfa9QZtvFDIoHxo5VXhsx4MjO+FJ4LX6J5XGWS8/9NdNoV/w3XeBlZ847gKPF9vtR/kYac5tIjjMZxsJaNOMaN5n6qK0DXBst0WyFyddpvQmvcLl1lXdu44elF6RlTyGBHSHoOanBFq4RL6rxn2hvKG+2KrBJYz/9D+DXqxMgENod9O5LKlyLwq2gt2aNzwnhnyeDUGCKTrJAxpOaKP9eoM2zjh0QC40dLc8mMJzGjJGPBRO/dV55hK5E/a/2GzvDImncER5H2+c9VkTuN5GfYM0fF+/gejLvYgrgVwccOPXF/QXL/DHfJanaeo4HMPM8K4SXJ2bci8fWhU2LVuTlfvxmjr7lSZPQ1VwKkobni6YmLgruHyFXXRx2pae5QfZ5dcWaejIFj3je+F74VP4zmdtcluVmZG2pQNQzNrdyS+LMwdBTR7BYbqFOnzLb2Y16WLO/v27C1WBwDRlQ+tOAsmo3ZFBV1/cV2tCL8d3igpxvJvd1xwxqSs41H83DDsIjoE4mFcDfKsteQtYxqw4t8pNM11e4gKXHvJ0yXE8h9/bHwwQELHwNFZ1Wl0/N/i4vB9PpD0TZ8ONbgpuVk7NoIbyFJJDc/RvJ58aenFEiH1XrJzEk4g8BE2hUi+Ri7scp3a8BcjZO6ehesHZ/wskugmnst6/6O2R46ql4rd+U+5nolYs9FehR8BYW5+xZ56032WLQ55y4tlIpdPhlDGM9LcqEvmOSCBBLj4R5VeH/vQi895TPLdz4qvCaQwpZdV+610c948nEd3Uu7vJ+3cGOPYi+Z1HixZsCdjZv2/CaDyGeOdrZO+joX9Y3FPD+wq/KAsotV1NApwkT3qCH7Rn2Ft42/6eTjU6desDpaTPSNoY4S11Aw4vs8TluUpYzG/uzxGWD4QTSXVXzSREZjBZrzKvTYCg0ZE27Oq867B6dC6ssdQxmpCZf3bZplIJHmsptL0MgAkg9NhOaaLti2l3YnlXH9qIUaNPVgFtrN3oathoQz+nDjuSQWIjTQFkEzfZ7hJX7yGDOmJRfDG8WpZhoJePJEmIEGdx2nWVZZd5hIqrSzv3tQTZlo+sX6U1N8POG789Pj7Sa+C6yefOZwXvhcNDmOiC+H/aGMmw5L4B5m1+VVZWZURdh6Uw1jIzKQ7cyMhkYsGxXrlfdMgSxqxnuJLGqIlPhaWMcG36lMvZa4WsXJ6EA1ftOJPRd+1LIt9CuDj+p8flTbSW8ZI4JRmUSjb5vpLYHmkhv/8oyx87TljHBGZep1xh9qzvNPNA4dYicx/lPV4SlOaHY4xMK9Sy/yNJfV4GHoPB09V8p1xlp1l198XuNiIvaSSY0XawaSgGeQouHx3M+3I7VkrnLTw7NSYqfKhtEFRuiiENujyJu33s3AWfeXhDC4b0SkWmo6zfy3ZujrImkoGHF9nkeltym0mIZ26XHHD6K5gll1mwOX87LqIrsWXqzHCn1Pjs+QSHMJxOT9NXQpxpN8V/vMJZL99LQ+L4LJ9/4NkrP0RzYRXrxHQ2wkFiKUeBhCFsGEDyAJbYXWEz1PFeKlgY8faqo/oJHgj+Ernfck9XFKmcv2xR+cy6zkDGTvObE5Atc0DBFpX1FEjwTRvL8hzXip81akhkJsOuZkIFLifbIQj1lXe12g6iYRRuGISTHr7VaEH1XjfZF3FHKuSzR84kZ/iauPBJqLQ2I8N2lxy2W+pMUSIML47Hg9cTlrc5Bd14mElK1BQbzrIrlkFPIx+CAz+t5WcdOeh14mkpnXYp3tS+UBqvPaq9jPYg/T7pSG9ZMhJVd8j8IRbWHz8yC33PvEE4+mSzSqDmPo6yJpKIloCraADD0G99/xwI+hud30LZDyft4YhLlfGdpCR4eQfXd2QNCuROLRwofIDaOhuesjiC6MnFp+TypeQhiuhShP3Q2GqbkDTV4GTtOXJ1yLr37yopPfcbtvf3IVrb0nMXqlX7nf3JspPbAKezjzCTzMsDQXScI6+XY2XhIEkRLeUw4kiCErPBgUo7mij+q7c4M6MTqZ+L4+Rlz/Ss1FKle6nYWX4Ja/rT0xIk6S8ALKYOO7YgRaA7GQ0FykodTiMomR/peMOD1uOHKohhqm5uIIZIrk0Zdr70G1yH0Jb3Y/O6jsulOSCxbfozDILBzoZ33hxjoE7BHbo8Q1lEQgmmsgeF+OG34MzUXS9KocvIuXMFm0ikEdu9747RBky0DfhvkYJVk8l0CM5g477y+JhSjD11zYm6l64r7J31jBiTrRWdvgmlcObtNLv4BpR+saLtD2JHcnWAXQ6htPT+X5FBjD0lwkWay4x0SIlIhJFksgRnNFH9UbD2vuTW7rIU+ovk5zhY1HTh1GF3D6yRhsvFCF/M/QRGTV5Z5rqIYaVc3l9OUzZk70D6jjsFLpuoo3GJJdr7gehSHaQlbrbfvAWZPRjL/YS4LrImsoiQB+riR8Jz+Xk3VQDfojjJgfWHfB/Lto7lB+btXZWdDcC+LuOFJ62a1VL8K2+aiox99HAx69jJsalkWJ+wLOPeOUuJ7/L/mpHVVYMYeluYhXosTn5/b3s1l9eGxltDWXkxWnO/FqJPF91Z/3H29+7o0wYqSPvlrbsHCCdDUXdlq9DZ0Wn2vK/PuU9q7yYagZzKAehSHSwgZ/mqpK0OnbNYXo9aKxjqGvi6yhJOK5rxk0+1wVXhpfjDvN7U3cJStryxD6egSjpa+DVvCipa3Rm5RkZx9KrGx99/pJxKH5msKa+zbz1Lpl605lipyDOVqaS2YhQudtG1klOwb2gEEiWpuYjDreI/jClNlcqSpnLpp1+79VEfFdyPTydYcTli29L/S4Qdw9XHfOjzqbKdyXkZDo5RDCC++MDVdXjM3AHnmMuua2Fm1TcF50sKyqtfPN40LHee6Sa65443nx3DeBXx3PRX4VxMdzZSLiCYXra2159LAVnz8wVEOJNp5g2JoLi53XBeqikE0qJ/elSjZoJ+lRKKIsHMj824Vq/YSr6UjzSnJdJA0lCZ0JOxXltsQN76dkrDDuNJdTF7BUVmv9OUYWOq8gvxaNkLGKT5nKTFnlHMZIY4Q5r5oiY+pWTASkeqojthnJQzByulb+J9YKaW4X3QaZbADZ0PkEr6+lHK0enbega3sNK1S9Q/aNTHPJLER4H71JUXlDpGAEgIxX+Zayx3/Zl5eciTxlPr/Wk2qUjt+TnU93KZ2dtwy9Re8nLDHxnb77GaaQfS2vc7nPwXVuhqHbuc94fbebcVN70oXDkZXIU2ZmM/5ohPXK01Rg3oKJPf+8BdFSQnYuMgHqqwmPnCMLD2+d1HTCLh+/KrnmijH+paeJMzrN4FlqaNI6DecFp14OOW+BzPhPzw5pOumvSopMqky6TN8+m09zWQ3uhs6zNzHpKVWZ8Q+OLDihvbEYN2MozRVp/JDfF4nmcuru/wqP2VXozCGvFoOkR6GItLApMFBd/vzegKdMZuVtf/o/5uckuS6yhpKAlvB1k5WsYsbpf0WMP83ldFWF71k6TUUOnYml7fwIe7e7juFmtcBAg6phsMDKjSE4+5XD/tD0vLKmtYvTHiasuZy68M16Knqbw/nXOEDCr+hcLwEwIR2Z5g5lIYdd5muupPqrT2G7hEOs/qb09F0LPPXknNUmn1nw2+3ocq478/KMrhN1Azpv+GXumolOS8/j/VlEHA1+/V2J7UXoe598MHCWMhqe47t5WPWVZ20CzNRPTtW9YOXwWGh+rkgpITvXUALE/tBRXdH6FvXTJddcccbz5udOl3R+LnlDdTy6t8fcU3eyx1Kb3HuBAv8TwaotPb3hopHScR2t85b2eUVcXRjqkkUaP+T3Raa5nDcXZzrp2T+XUHJJexSKyOZlt6Ueu75Y+6SWitcq27ySGzcluS4YsQ01BP3thT6/qigt9qscr//+Ow4196toDfmVmNo19mh/6LVCXVbL3C62Fn/np6f1SvAwZxEBCF7nW05yP5LDF5Ed99TG2i3UltVY6VNATAAZh/wUmttR+xCNDeRkRB9eoED9K27sfmE978oZAa5RvDVufkY63hZig+iMIqf5rtrbSsbxDfb9aLkcqKJ1J5f//7vGPaVRrgGM8rZxvMANzE+huY+c9f6HBCJkJmvPsjyR3jSM56OA78CjJBN4HDrRSUXx9ML1Kcymb7huy49Le8hipxlH634oyf0x+NliCwAAAPA9AZoLAAAA0gNoLgAAAEgPoLkAAAAgPYDmAgAAgPQAmgsAAADSA2guAAAASA+guQAAACA9gOYCAACA9ACaCwAAANIDaC5gmPS1V2VEZ/GvwoYw0MPuGQP/ozt6ZtRl3ch41g7+dRYw2gDN/f4ILg45pulpZBxZqimnschfcBWellhrVUjVOhZfyFsUSFYk/uxEI6UtP+x8xCMRSelhyMzoKPC1maOlJIOuvIEnYyaj1H+Rhpzm0iOMxvG9ogpgrAE0F+ZVso7fjehh5GgYiuFVOG409z3T3lDeaFdkFX82WJTWuF26yrq2cSTLTo+W5lb7zIEWnK/GS4KQmFF6xhQy2BGSnoOuMFfRKsk6R5+rIncayc+wZ47TxbEBYxKgubB39DRU4WrmE7w0CgyzQkRzN974hJfGLOw8RwOZeZ4Vw8jOyo80NFc8PXF/QXL/JOMlyWFXnJknY+CYN8KLBgAGMd4093NbmVtiyMwgL62rQTa5VS/5FmT+9K7kREKwSaCXzvWQXQWNaB4dhC9VMQoBiTGN2Tbh5zQD/VekP63Bo3R1DkGn/58//8tDwY+eQIwlO+EK7wTq07ymhl63f/qG69w1lYQpX4q6gadK6LqbcVHxevI9JPnAEBWKAdHczdfzr+1coKOirr/IloYmeMBh1zPcN8/XpSqpTFu41SezmS/AyH6Z4fXnYuMpVLXpc9Yfo/NlbOF01yW5WZkbalA1DM2t3JKInBRvw1ZDaz1D7IzVp1uHlxeeW6mtMWNL6HOiTpJzwTuz7DVkLaOEB/Vvw9aiOTQQhBLHweP5QprtIn11FR1z29CH1zfxa67Yc6Fef3AWzcZsCtwai+24rVF9fg4knLwDsqBhWdrEmjHQ090J03HDGpKzjUc2EVjI6d7f3CAvv/kmL+NXV+oeFbl1NwQvsS3KUkZjfzYIMABGiXGluX0fijcHes5PyaW/eH6niD7b3/OPp3harr6Owo2B3ovTH8bXVtHzIqf7+e6vw32Tqoc0hatXbFJzYl7AuyL0/Dw3lWHy9LmysS63sdQhwkM3qTAX2a7LbXqH3eIDHx9vCvRakPrgNnIUXKH/iWZiPNpTfSDYY3EBcm+2vbg93T/ozGvsliSrUDyIysxdumvf5YRURqjTSg1I256Je72sguNGMporjl1nwLuOrdSUm3e2Alcn1hOPWbLqFkdCEtNSoj03TpPRtc/Az8QqPmkio0EctUJDxuRkERq/RDRX1/LsrYSz6zW05+33T7zlskxRxf4u+stFci6EBtoiaKbPM7zEhd1cgo7WkcRxQpr7iWmvDU1Z5RLGSE24bG/7y1ye5pKcC2kN0wXb9tLupDKuH7VQg6YezEK/rs66vAyY0L8NIKPdocgmTEEDFsERawZyyYOUGo/nfrr952S5tWFE8lFWym5V+U3Rwl9XpbcptJgmlMMTABgp40lz+/OyfRVjHr3En0t/iY73UM14gW73P8jyVaIXNqMFDueNT5jHgofYvdSXknpGIexuCe4Rv/YM85iVy/+QpdE1xOP3p0JD+77cu76KNx8Rd9rbi5Eeix5xXeeBmoIgxasZBZ9K/gzy+rXoraATJLJCEhCVmXH8CW5gc+BySP1fIo/sv+rQqitEYsqW4JW8xEJIIuHlgcQVd97apqD0TzJmiGCOYaRCPMcwIkDz/WrhHwf6JmjDTfj3qj5gIbQmAvXsSM6FUOJhCFkEE7l/ByEiQXL2IXVoZTDe1H2PXWfwNJfkXEhrGLoU461R7TNXKJcSeWxhkBk9rc+LYPK9f4PkLP2RTYQX79FO9CV1j6rMymtYI3an/6OqsIU+6BeyKdgCMvQYnHIXABgR40lzW7zCPJYWinyegexaxhuSt3jzPvmeFu1hnEtoE6q5ywUG709t/LwO1glNMEIqXJT/ppPNRl+tF2/Aji1f3unu0r9o5+aG+WrHPxVOYyC6QhIQldkQiTvsHA5zP5VIQozkJNY4mIEPiDs7Mw6qQ9tuof57N7yLeiAT2RSmm74FUt7PxEtIhcrQFjoSXkA0F3XZOm9ZQVa3YPexkbYYWo16eiTnQnnqbjA8zf0Sa81v4YfIDVzNJTsX0hrrI4gvCLkW+T2peAlhmJqLIyYxKDvngBa07DLy09qdtldFcUvc4EeZiOYaiKgSABgR40hz+yp2+XvufSHqgTO6y76WkLn+Z/9cOvN3NeYqvTh82cO6nJgahH5yH38lrXdn+13xF1Jy5GPCkdktlXwPUgZaL9yA3wy+OHjSksgKyUBUhm/eAlK0isGG04PTD/PvEvNISngXr0IyzSU5F8qwNVfIDP5naGTnEmyNwVo5qprL6cs/Nh0yv1DHYaXuUZu8PZ53vVyAnwsYVcaR5nbkLvEL9OWO7zn97N4+PAYotAspXj6HhRY6C9f4XXDlSkX7/UV+AkLJrrk12e82gy9wiYDUEHC4qqn4Ne/Fl6K7pyT/isr1SMuw0wsfCs86El0hGYjKCPm51rFfkE3UH9x+DR8QY9S8Q0+I7FLm83P7e9ksNvYr8xV+ruhzoVSdnQXNvVCDlwYxfD9XzLmkq7mcgRIPI8jMtyRjt6qyHUOE5HKe+5pBs89V4SUA4CsZR5r7LnueH82HmHr5sZquEUBPwFzPd9lzeZo70PTkumJIRiHm9TanTfMLDyPupb66Oyp+txL5Hw0VhyhcvyvsxbTlzPe7Hkzc+OzPLXnN77kB2o+NSbP8aS6v2K+eXlcKvJPO5/7CiK4Q523mqXXL1p3KxH4PcBCVEYrnHsrGCjn/qsttRbQRpa/1Wd7DGjzCgQRtl10mfkw+023kJ+9OwS5MMJ77OmgFfzxXnOaSnQuh87aNrJIdQ9ykYxFil3VQjSSeK+5cQ2lure98yMy7Ei8JM2zNhUXcew60eM0aNRW7VFEX15mwU1FuSxxhKwDwlYwjzWU/tw/y0KVn3nzxnPE0dVWQ55K8ZvwmYVftC/TQj8+h11bFF99ZRDtnXdaBeU2fKm8o0JLvo9swLx9fVbieVYaXEF7B71yOOl+LzjF43YG6lxxOb82h4NNmyQ8T6mpSK3K2Xvecfe8lHp7oLNt5xXNJfgtSZJXtoJ1ZWSzw2EV0hRiIf4eMo/FwLQ6iMkZmVnuReQthyLwFLfsM7rwFVyNZAyvv6BRmRnzwAXNl5c038SdPrMduM2XQeQvp2LwFvf1M3BBW8SlTmSmrnMMYaYww51VTZEzdirnzFsRqLsm5UN5Hb1JU3hDJ/xYsly3l6HwBdMKAru01rFCF/vx9St+nBU351SUsKTUhcJ+1mRFPc0nONZTmdjHsqDJm9lEpyLQFZhn2G0xmBgqJ5nLqA5bCX4ra3jQiAMVPS/i6yUpWMeC/IgCjxXh6hjbwrinXNvqSDs3HIDziyNNX73iPqQZaX93bccNfm3bWOOrmiWet3Lm0ZXmXFKIfvsRLnPuZ3gp3SgT+jaqzxpV+URON2CrElxDO7EB78wO7aLhC7+lh4QeL6luxc/W/C7nlpU5/RASE+/KzLyiEpOTyRxJEV4hRF75ZT0Vvc7jAagWoygRmBmyZo0VVm2a+07+A7w5n1SWc2Dh3qrKSis6s1Qeu8D9CZDWkntm6aIYmVXXanHWOsYLzcxluVgsMNKgaBgus3Bj883PFai7puRDYZb7mSqq/+hS28yIOIiKzMIS4tRdc2rVwmhpVa+5WWlaQwP9EiD3XUJrL6WtMPLRCX0UOOS+xi9wMGDLNRcMm6gcyB0luf3uhz68qSov9KsHsXMCoMZ40F/DdaX/otUJdVsvcLrYWf+cH4PW11TKaB3IEQ0Sc2li7hdqyGit9CgSGMQDAVwI0FzA8et6VMwJcowTXuBnPNAcul9E5fE/4oWdplGsAo7wNeLiAUQZoLuDn5uXlJZCOw4NhzDMBAL4GoLkAAAAgPYDmAgAAgPQAmgsAAADSA2guAAAASA+guQAAACA9gOYCAACA9ACaCwAAANIDaC4AAABID6C5AAAAID2A5gIAAID0AJoLGBUGetg9kqcj+jqkea6voK+9KiM6S2AJuZ+MuqwbGc/awb9VCwI0d1zTlh92PuKRcH6guwdVsMUMIUhBzdDiH9pDLOXit6Ml1loVUrWO5c/tOSJEJlSH5vDnhRi1c30VolueS08j48hSTTmNRf7EYkA19Pb/W/OO+6L+/vbfQnzXeIM/zRIppf6LNOQ0lx5hNIKlgngAzYV5lazjdyNaXAaEETDqFYpDdKIaZAnaJa6p9+7dy8m45fvnDDmlVcHf1t1qjdulq6xrG0dk8RgxnY1F2HrjN+wNIUP7G1ihqJFvbeBRO9dXQZoi6D3T3lDeaFdkFd9KzV/esHNL8Ffk+fcqGztCxSaXG+NIrLkwn6sidxrJz7BnglXfCYDmwo7T01CFq5lP8NIoMOoVikW85vKW/WbfO6wHmZyuwIvjBMThFXBvxxgkmsvOczSQmedZIbQgL8HH8s+L178/XMBb+H28MRzNhWFXnJknY+CYJ6Y9fjrGm+Z+bitzSwyZGeSldTXIJrfqJZ5EDOHTu5ITCcEmgV4610N2FTRy87J8qYpRCEiMacy2CT+nGei/Iv1pDR5hqnMIOi2U3FfBj55AjIM64QrvBOrTvKaGXrd/+obrszSVhClfirqBu15ddzMuKl5PvoekYhiiQrF8KAres8xIa7KsrLK2yeqDUZW8jD7seob75vm6VCWVaQu3+mQ246aLHINb0DDPSVBzOe8jN0Aytin4PS6mQgT2ywyvPxcbT6GqTZ+z/hidP/GE2KPehq3FT/+//wkkImsNWy2jfvAu70ZjZ9iryqyJwHNSkJiBIkpzxZ4LyX+x1jPEzlh9unV4eeG5ldoaM7aEPifqJDlXd12Sm5W5oQZVw9Dcyi2JSKjB4aTsloO23iJSR/ClmSBteQR2lr2GrGWU6LBDz+sua+t3GxN6JRag4fcNBJKvUuwlo90mOItmYzZFRV1/sR2tiG+19o5Cmu0ifXUVHXPb0IfXN/FrLomFOG1RljIa+7NBgAFlXGlu34fizYGe81Ny6S+e3ymiz/b3/OMpni63r6NwY6D34vSH8bVV9LzI6X6+++vwbl31kKZw9YpNak7MC3hXhJ6f56YyrAt+rmysy20sdYjw0E0qRNKXwa+md1hHG/j4eFOg14LUB7eRo+AK/U80E55JT/WBYI/FBchd1fbi9nT/oDOvse5EVqF4BgpddSF9m/O3mDnZ6fQza7SgmZ54yjZWwXEjGc0Vx64zUhmhx1Zqys07W4HeWZ11eUg+sNC/DSCj3aHIJkxBAxbOENLcMs9ZkI5jAbottkJ41xOPWbJogrU0LMGarn0GkWBN/FHs5hJ0+I8kIhNM/vgm5FcZrX9zCCHozT6kJfPbVSzrGUmFOKI0V+y5EM3VtTx7K+Hseg3tefv9E2+5LFNUsb+L/iKTXXLxSRMZDWLXCg0Zk5NFuMyK1VzSlkdooC2CZvo8w0uC9IUde0vd1OGczKrlSh0pI+kb8C6Sr1L8JSPdxnTBtr20O6mM60ct1KCpB7Nwrf7EtNeGpqxyCWOkJly2t/1lLk9zSSzkUeltiiWFAowvze3Py/ZVjHn0En8e9CU63kM14wW63f8gy1eJXtiMFuDb3SfMY8FDzKPqS0k9oxB2twT3iF97hnnMyuV//tLoGuLx+1PBvGWcvty7voo3HxG95O3FSI9Fj7iu80BNQZDi1YyCTyV/Bnn9WvRW8AdcZIUktEWsh/Sci/DSwMfm6ppm/Oicf9WhVVeItI8twSuhaS6YeGKIjy2su/6mE6b9Za7fGk3I4Fg+ZiNJhUi24OWBRBN23tqmoPRP8pBHEYhIuNsUtALSOZKPNXz/w6NToZXBuDs4dIVksYVB50I0d75fLZL+eBO04Sb8O1wfsBBaE4H6mkNcMi9BMpJxGU+QTKK5OOJjCyUehpAFcaFC9GeEf7T37Fhs81bbvvOJBL7uyPoGyVdJcslItzF0KcZvlGqfubwKsw+pi0vhTGIhj6ZgC8jQQ0wy7J+N8aS5LV5hHkuFEyNiILuW8YZCLd68T76nRXsY5xL9D9Xc5fyDJvZTGz+vg3VCD/aRChflv+lks9FX68UbsGPLl3m8u/Qv2rm5Yb7a8U+bhA4VXSEJA0/dZ0CaK44Ex2cV17YRtzkCkidY42AGIp4oGQfVoW23+G5VsZqLD3rRqQsGlpeeEoEQ8RV2w7uoBzLRjwkxpBkwopKcIwkudV3QwOVA8Ul9aGkgngxUggqHrbnicmuSXvIWSHk/E9lEYe5XhrbQMQd05Jr71N1ArObi9L3r2rLxrVUaX2RMDCPqGyRfJdklI5q7PoK4NZBPyu9JRbe/xFrzV/ghcgOfnyvWQj4QzTUQ6h0/LeNIc/sqdvl77iUy7gqA7rKvJWSu/9k/l878XY316BeHL3tYlxN9Af3kPv5KWu/O9rviL6TkyMeEI7NbKvlEYaD1wg34zeCLg8N2Iiskp7OK7mplrqsEQZCM8oz17jm49yIinS1kFcMXmxPv5y7zuFdUlHt+raLC+mg8hApDUiGyS8yDkSHNgBGluZz6iwshwxNF8PdSctoUWuTXgL8vQYWjprnDuGSk3Qgzvqnmwl30huvbaZcFf7ZEM4K+IXxdfJBdMrItOuOy0FFCz9DEWcgH8HP5GEea25G7xC/Qlzu+5/Sze/vw+JXQLqR4+RymNJ2Fa/wuuHLvgPb7i/wEhJJdc2uy322GYDARrSHgcFVT8Wveq54Xgespyb+icj3SMuz0woetQj8CoiuUiN7ON8/vX/1rhozmoWz0BwP1ZbZfK+Kn5h3fCcVrLnbzdGfv14bMPMuIQ0gqRHYp8zlH/b1sFhv72RrSDBiRmst57jsfMnIrFbZTggpH188VfS4ypy99nyJkQyeitEglivvS8RKCeM1FMrfPvVCDlwj6inK67hJhMfg3+5b7W82LYrxCUQynbyC7xHyVQ/m5ojWXzM/lMshCPp77mkGzz1XhpZ+ccaS577Ln+dF8iFmZH6vpGgH0BMxTeJc9l6e5A01PriuGZBRi/bs5bZpfeBj2Qw73/Lo7Kn63EvkEsaE4ROH6XeFf4Lac+X7Xg4nux/7cktf8nhuk+tiYNMuf5vKK/erpdaXAO+mC3oroCnHeZp5at2zdqUye5wnTWpLKeMB7fFx0wgD6IwyLY+T8qy63FdEQlL7WZ3kPa/giHJxaWNPMvCvxEgHfzTNQ6T0XUrdNIYwnqRCJ9C27TPw6fabbyE/enYK11FBmwIjWXM4zn1mQmW9G4FLBW27oCkdNc4e6ZF5w83XQCl5ws8JrNjTzdAXWifrL3E2hOQLPxUS3PELnbRtZJTuG0Ozs3kv2b2cGs/HIf1+Pu+3bRTcEnwOIYmR9g+SrJLlk8ZrLyTqoJi6eS2Ihl86EnYpyW+IIW39yxpHmsp/bB3no0jNvvnjOeJq6KshzSV4z3rHZVfsCPfTjc+i1VfHFdxbRzlmXdWBe06fKGwq05PvoNszLx1cVrmfxP1Z9Bb9zOep8LTrH4HUHPs2lt+ZQ8Gmz5IcJdTWpFTlbr3vOvvcSd0o6y3Ze8VyS34IUWWU7aGdWFvNFh8VViIE4IMgYkOdAITRdWy2vNM8+JDETefLrvV4XMvbABYVV4Goka2DlHZ3CzIgPPmCurLz5Jv/IrYthR5Uxs49KQR6eM8vwHySBm6c18g8F2WW0eqxEUiHrsdtMGfRhdzr2sFtvP5N42C32qL6WcnQqATqXQNf2Glao4o1GKk6bQAsXLZIxPcOvT0Ndl0jNFX8uUs0lu+TiU6YyU1Y5hzHSGGHOq6bImLoV419zX/WlxfIqiw+FMFITkYMUfqG94PfeRLc8yvvoTYrKGyIFr4fzMrlDe9373fTujEfdNJ/3mhs6QiW4IUbWN8i+SvGXTKK5n9L3aUFTfnUJS0pNCNxnbWbE01wSCwlawtdNVrKKAf8VgTGenqENvGvKtY2+pEPzMQiPOPL01TvuSI0z0Prq3o4b/tq0s8ZRN088a+XOpS3Lu6QQ/RB/dMPh3M/0VrhTwvffQfBtWuNKv6iJRmwV4ksIf3CgvfmBXTRcoff0sPCDRfWtuMPzLuSWlzr9EREQ7svPvqAQkpLLH0kQXSFGXfhmPRW9zeGC/xXW15R+eqv5dHUFGTmqjunqAxEVPI+AVZdwYuPcqcpKKjqzVh+4IvwIsa8x8dAKfRU5RMq5d4jgzdOVYa8FTTv8AHfHSSpkNaSe2bpohiZVddqcdY6x/JM6xR0lIqoIQxiC8MTNGH5nkAs8xHWJ0lzx5yLVXNJzddcx3KwWGGhQNQwWWLkxeP4ah9PTlHX2z0UzNFQ0jZbuOH/vtVC0SGTLY7DLfM2VVH/1KWznD5cM9Bfe+fj7rndT1r8z++9jcHk/r/uSMMK+QfJVir1kEs3lcNoLLu1aOE2NqjV3Ky0riD+eS2YhfMe0F/r8qqK02K9yaKf+J2E8aS4AMF5of+i1Ql1Wy9wuthZ/52ekNtZuobasxkqfAoGh4E8O0FwA4JvQ866cEeAaRaxx8zNSGuUawChvAx6uAEBzAQAAQHoAzQUAAADpATQXAAAApAfQXAAAAJAeQHMBAABAegDNBQAAAOkBNBcAAACkB9BcAAAAkB5AcwEAAEB6AM0FAAAA6QE0FwAAAKQH0NxxwUAPu0eiZah+HvraqzKis7gLtNVl3ch41i609hcAMPYAmstFIOMIf1pvjLXEyoCCDDPXv1ja8sPORzwSnaC7JdZaFVK1juXPnEnQUeBrM0dLSQa2EIK2xg+VeeAukSoNghTUDC3+oT18Pxa1nKw1YHoaGUeWasppLPLnriBT6r9IQ05z6RFGI1hRBTCmAZrLRUA98bTeEXunQ9P3RiCbJc0is1eNluaKz/XC4bTG7dJV1rWN418YG6f0jClksCMkPQcx8V6FcKKgQSBrpC5xTYU/m5Nxy/fPGXJKq4IFF/MdE5C1Buc9095Q3mhXZJXAOsgczueqyJ1G8jPsmcJr8QIAYwiguVxEqeczn5nQTIGcLMJIQ3PF0xP3FyT3TzJekgDBdanZ9w7rQSanK/Di2IGkNdh5jgYy8zwrRP4CsivOzJMxcMwTuRMAGAtQ+vuHco0G8f0090NR8J5lRlqTZWWVtU1WH4yq5GW+Ydcz3DfP16UqqUxbuNUns5kb2UNVJjiLZmM2RUVdf7EdjT/RekchzXaRvrqKjrlt6MPrmyTUXJKjhm8GkhBBOP0BZEHDklnxhzgEUi0M9HQjCbY7blhDcrbxaLJtGBZyuvc3N8jLb77JS0nVlbpHRW7dDXSkLqi5nPeRGyAZ2xS8C4g1Hr7kIviSp6uraC/YcS03hO9nhjQ/LkmFYr5K0tZAYGfZa8haRokNO7RFWcpo7M8GAQbAWGU8+bkDha66kL7N+VtMJPPSmTVa0ExPPLUZq+C4kYzmimPXGamM0GMrNeXmna3Ab3BEZUwXbNtLu5PKuH7UQg2aejALTx7yiWmvDU1Z5RLGSE24bG/7y1yJNJfkqJGY0VmXh6TUCv3bADLaHYpswhQ0YAnT8BAHmgFsUNbFQdqEx3M/3f5zshwv/MxK2a0qvykak3ghzS3znAXpOBag2yTGd949OBVSX+4Yilzyvm0LTCXSXJIKxX6VpK2B0EBbRD7yqPQ2xfL0AABjkvGkuW0R6yE95yK8NPCxubqmGU83lvOvOrTqCpH1ryV4JTTNBVMSVGUMXYrx/IHVPnN5u7IPqYvLZoojSnNJjhqZGSjksYVBmW57Wp8jybXzvX+D5Cz90UTbMC+wB2JfUveoyqy81ox+sjv9H1WFLXTcq0bMWHf9DeIUt7/M9VujCRkcy8ecQhLjkWSx5hfwuK/gJZNoLkmFJF8livjWKPEwhCyCeX7vIJqCLSBDDzF5lwGA78648nOfus+ANFccCY7PKq5t439Cj+b6P5iBjq8RMg6qQ9tuYUE9RGXWRxDxBCS/v/yeVHRbgqz9IjSX5KiRmYExTM3FERrLE7BzDmhByy4jzl532l4VxS1xhGcLm4F7xejUBQPLS09xp5/E+L47OyBoVyIxwUGgocRrLllriP8qMcS3xlN3g6E110BEUwEAY4Px9Qyts4ruamWuqwRBkIzyjPXuObgTJSIjLGQVg4kJInais5kiR/GJrITP0EiOGpkZGKOquZy+/GPTUc+UlbpHbfL2eFxXMTOWedwrKso9v1ZRYX00b/4bifG98dshyJaBfgxGoKHEay5Za8B7xXyVGF+pucDPBYxdxuW8hd7ON8/vX/1rhozmoWx0sI66VNuv4SNsjJp32JMh8WL3bfzcYZuBMbqayxko8TCCzHxLMnarKtsxuJLLZ0Z39n5tyMyzjHiESmI8mZ+bvk8RsqET8VakEsV96dxtca3BZdBXiSG+NarOzoLmXqjBSyJ47msGzT5XhZcAgLHGeNLc1pJUxgNeOv6iEwbQH2HY4/mcf9Xltt4ipKWv9Vnewxr8wT2J2GUdVBtBPJfkqJGZgVLrOx8y867ES8IMW3Nh2fKeAy1es0ZNxS6V9wSK34yBSu+5kLptChFHJTE+/9hUaKHoeG6F12xo5ukKTI/7y9xNoTlEe5FUSPJVoohvjc7bNrJKdgy+SxKkM2GnotyWON6vDAAwthhPmtt0bbW80jz7kMRM5GG393pdyNgDlyFWgauRrIGVd3QKMyM++IC5svLmm/hglUTsPqXv04Km/OoSlpSaELjP2syIJyUk/xNBctTIzEDpYthRZczso1KQB/XMMuzfH/paypFTY/MWdG2vYYWqd+hOBBLN5dQHLIWH82p70/jDpQJmtEb+oSC7jFaPlUiM78zizVsI3Pen+SzeJfdVX1osr7L4UAgjNRE5SOEX2gvcYSWpkOSrRBHZGhjvozcpKm+IFAhF8GgJXzdZySoG/FcEYMwyrmILfU3pp7eaT1dXkJGj6piuPhBRwXNnWHUJJzbOnaqspKIza/WBK4Xcu45U7NoLLu1aOE2NqjV3Ky0riC9MSfq/v2KPGqkZCH2NiYdW6KvIITFQYpeIkCgM33FkmosOw9UPZAo8oRI0oyvDXguadvgB/msi1nhkSnIAesna8/4Kuh8iMCW5pynr7J+LZmioaBot3XH+3mu+SbjiKyT7KhFEtQYOu8zXXEn1V5/CdqE4RX97oc+vKkqL/SrB7FzA2GVcxnMBkvD62moZzQM5uJ6OIqP1r3cjp/2h1wp1WS1zu9ha/B1ObazdQm1ZjZU+BcTcEABgTAI090elOXC5jM7he3xe52jx/TUXpuddOSPANYq3xk2UawCjvA14uICxDtDcH5SXl5dAOg4PvoHkjg3NBQDGKUBzAQAAQHoAzQUAAADpATQXAAAApAfQXAAAAJAe0tNcAAAAAADNBQAAAOkBNBcAAACkB9BcAAAAkB5AcwEAAEB6AM0FAAAA6QE0FwAAAKQH0FwAAACQHkBzAQAAQHoAzQUAAADpATQXAAAApAfQXAAAAJAeQHMBAABAegDNBQAAAOkBNBcAAACkB9BcAAAAkB5AcwEAAEB6AM0FAAAA6QE0FwAAAKQH0FwAAACQHkBzAQAAQHoAzQUAAADpATQXAAAApAfQXAAAAJAeQHMBAABAegDNBQAAAOkBNBcAAACkB9BcAAAAkB5AcwEAAEB6AM0FAAAA6QE0FwAAAKQH0FwAAACQHkBzAQAAQHoAzR0rlHvO+t///md6phQv//i05Yedj3jUhpe+NR0FvjZztJRk4EaGoK3xLPztscfHKEtI5eBdvAT44QCaO0Z4d/13SFdXF/o1pBV/54en2mcOtOB8NV76xpSeMYUMdoSk59xDqGjtx98fewDN/cEBmjs2YKfYKqn/e/ygiuLOpLHrgo0u0tTcnri/ILl/kvHSmAZo7g/O99Lc/sbcZ1tsmGrzk6duyHNI/tCJvw/TX59dYW2VpjgnSXvDgyMM/l3swujipatT5GcmKixlrvJoqOjGd8BH1d2tsNyEHKVj/cgrr6sXf188b0NXUX4/HbzTgDp1U1hZgc8yDZXpVteqiAM/FAb+vVRfXX7iRAWNGavsIyq+4DvgYWphwE5zPaqimummCxm0dRSVQzn4HoT+sksrtZS1Vl4qG4YvVXhcD1p340XkH5CuayH+HszdgyqQZXAWzcZsioq6/mI7WlEHtuP9zQ3y8ptvvsdKMF2pe1Tk1t0YaqTey+oUhoVdcVea5z4as46vtSWE3ZDssdV8GlVJVc9srUNMJf/39TLD68/FxlOoatPnrD9Gf4bvqj4/B4LgMT4/kAWtCdvL6a5LcrMyN9SgahiaW7kl1XG/ZFb8dkhud1T26T+M1alTjFceCCdqFM9ATzdykR03rCE523j0gmHwax7BuT5Eb4LWhrXDWwUuOpDuceTL6qZvgaxjPyK7xbcGqfEdhTTbRfrqKjrmtqEPr2+SQHO/Ve8FfHO+j+ayKipMZiYv8apNuP86KjBfxzRtTy4b3/W0bLpp8hLPOnhXuF+uukn6oYIebNdASZmWSfrma6+Yj1rTkit/W5JgfBmXIFZJmb5pisXZusR7TdfO3leddde7egDbJRak12qt86bf8f5DRcNs38UEutNSWaU9mX3IzoECZy2K7uZzdGZ2VlqMx2/qFOPTeKS1M9N+CoX6y9FrjJQ7tN0bTPSEem1PrqO+LCSr75iL2y0BDbRfoJmezzgVp02gJZfq8HcxzTVdsG0v7U4q4/pRCzVo6sEs7E79dPvPyXJrw96iBbgBUnarym+KxptDLJ0xVoPEzioGrbGnPPQvM1U57aXDU17WI5cZMmoW/11NTE+JPLlaC5p++B5+NOuJxyxZdYsjIYlpKdGeG6fJ6NpnoAZ21uVlwIT+bQAZ7Q5FNmEKGrqwo4pPmshorDh2nZHKCD22QkPG5GQR7vmjsmVssft4ZFJqQvBBcxXI6Fj+EKOCt2GrB+s7Ec8dybkeOWsbucFd4VOstampqQ39E4dTc3au3oki9CiS1hBv/CemvTY0ZZVLGCM14bK97S9zJdTcb9F7Ad+c76O5D3xSKdtfNOOlHvphhpxLM6ZQzfnVpyJbiZhmp//WBK1z77BCW3weZXkp1wv82PqpuhWXtewzyZSdtW+wAqcrcEeCzvmhXD6k18658ILD+RyzgbL2xgcOp85/PuW3MPS4trA/KNrHiHMNfGx+Xt0M310ID45qUuafx3Wx77HL9EG9dqDrXdO7rqE0n49Ouo2c8t60Xk5vym5lWevYz/j7qOYauhSjNxIyGJ8LTXMpwApfUveoyqy8hjVid/o/qgpb6ENJLqf/XU2RMDXvuP54X0dlvPeOuWrDUN7muwHutGzi+3oVsBTSdXqIFfIcdaDlgcS33Hlrm4LSP8l8v0OiYwvIUSuCiB7WHLgcmnosHysgsgUtDcL94YFnaHMUYyVx9LQ+Ry4y3/s3SM7SH71gmBfv0W9nJOd6c32V7M6kHk6Z5wL7Q3vneZZzBjL3Tf4jEh1ykLQGifHZh9ShlcEt6Dbco1xnSKi536b3Ar4x30Vz+2IOJSi6EwopioG+vi9dvZ1d7MiDCZNc8dMNVFZMN0mx8KqNe/j+RQeuQyhIhSoeLZ3IIcgr3SOZcvgV7jmLA+m15gENiOJtpGykwwLTEGBOWRWKuo4DT05Np6haHA6Mu1v0oo3fl+qL/5NC2Z5AKOqH8LVf3Wv77x/UgFZfQ26611d/gzQO3idUENHc9RGElCJjWPk9qXiJnXNAC1p2uRHe7E7bq6K4JQ4b3X41/R1Vieds52vIax9g8l85CQO9rC/ImB0dwu9OQd/rpttA1AOZ6LZIRGouco3K+5l4icNh7leGttCxIT8iW7J/p6HbMGzmUWNjhyyJIjisW1u5hnEZ2bmy96ssufyyJ3HXYn/GuXm2jB5YhaccwaUaRVRrkFT4Jdaav6E+RG6QUHPHRu8FDJPvorm90QcSlDxEay6r7qX99nTFWQkU00TsxdVc+MCqlLKNVmlyJvBexvS9Fdm4B4xUyP08/jrQOISbRtpr4XerYp03ztOSo1AoExSm/3EqG7e3N24bhbIjESvA3nbE10fEqs7OgqadKOxFKDwxDZrp8wzfg8ZzowgtFRKOvvxj0yHzC3UcVuoetcnb4yVxS8XHc/no66hIOPfPYu3JOxN4AXMxsJ7TD6zQp8rxxu+EhUgcg1Q7RGqu8FFIC+DRD1S25HZnoNvDRKTmjuxcjf6LNRwe1F9cuiv5422bxX4NRSf0Vl3Beof41iCpUMgMyZ6hjZ3eCxgm383PVeDzc/v7+lk92E9vp9+WROUd5bcK2gpL3xeWvvO05fm5XHq/dFcV1m39LUH1dCvq7qJ+7tE69BDiVc8awgEaotfi9Ha+qbp3Zev0CaoHsjDX+u5+Zcrq68TTqzrfeV/ba9+GrcVvUAJunJZUczkDJR5GkJlvScZuVWU7hiSSSxLPRel9X3rLc5uZqpLBGsewvNdDjBRg6i8tkVVbeeL2vQJ0zI4O4XELu2A/V5nPz+3vZbPY/KOTEfm5o6m5IztXL8NOYdONOPvFnlWcJ8dn7U++9acqLpEkrUFS4ej7uVyk0HsBw+X7xXP/qiGeU/fEHEqUd32NuFsDLXazEqxSuEG/rsvbeZrbWvU6sfgz1/MqvJhO+acO6z3ZZ5In/fuS0I6B1hfv8uuHEgzSXttakpKYy3uKXeiqx+2prVEb5CaaHkioaH33+nHYgTmqg3rtQNe7ZsnjuT3J/yhDyzzzyzAeea+UUd6dgllPrrmwbHnPgRavWaOmYpeKPYEaApJ4bl9DiruVKVVitUUZyNgtD8sUV7RfB63gWYhES5ddJr7lz3Qb+cm7U/ic6lrf+ZCZdyVeIhCMsSIVCsRYR1NzR3iuCq/Zs/fv/3XrrS5Oe9jaVf/9t+AXGtyNhmgNkgqzDqqNKJ77bXov4BvzfTSXVV5hbCowb2EfPm+h8/L2RNn1hZdSWzJyXvqdLJy/hqe5r+i50Jy7e2Oa0HkLVX8sSzCkIZN2YJB5CzPTNwY3JD9oiYt+Mm8ew5LB7XJiIO21r0JWQXJme4MT0Ce/nn9oUQzdnqCHwSL5PMxGH4JHbZRJWhsvuv4u1GuHO2/hyXF9aN65KrzE4dRcMIf0j2MnG0pzOfUBS2FfVW1vmoSBV/F0xh0ejtrivApaIa8425Z2K52ZQr9kv32hCZ/KPHabKYPOW0jH5i3o7WfyP+XrYthRZczso1KQaQvMMvzJE6v4lKnMlFXOYYw0Rpjzqikypm7F+MWNuuaO7Fydt7YqGxsvR/vD/f/mmJpqIo8/EUhbQ3yFn9L3aUFTfnUJS0pNCNxnbWb0tZr7Fb0X8M35PpoL/5rX36u0tslQnZ+ks+HB0STeJFz2q2bHfZlT5jOUV+bsimmPOsYXW+jrTKM9mrciWcY0UfEX5ir3+nLerMO+Wmb5estUhTlJmuty7W+24WJMAvnorO9Vmrv1vKlUmQmTFDWNVtmHlXNNRGB/eFVVUd0Kezqhwr22v/TSSq3JEs/PfRW4FNJxfsTnFSNzdX/BHnAPqbloLFj9QOZXS+5IYdcxnDaYTVWZrKa/5O+QJ9G2/BayGlLPbF00Q5OqOm3OOsdY4dm0fY2Jh1boq6DRT76juusYblYLDDSoGgYLrNwYwnNmR1FzR3iu4pPTIGjjDeT341Xgcgiae6EG20HWGqTGtxdc2rVwmhpVa+5WWlbQ18dzR957Ad+c76W5PwytwSsoOk6P8JLUeX1ttYzmgZzhOacAAMZ37r0/J0BzR0LHi/wchOz0qENzZRS33h5yYuw3ojlwuYzO4XuDZh4AAGIZM733JwVo7kh4eEwbCYhRJshrmKxzTWuSKIjwDXh5eQmk4/AASC5gGIyV3vuzAjQXAAAApAfQXAAAAJAeQHMBAABAegDNBQAAAOkxEs0FAAAAwMgAmgsAAADSA2guAAAASA+guQAAACA9gOYCAACA9Phaze1jdwusiQoAAAAA8Xyt5j5y1pNR1Jy9yf1uM/gXQgAAABiCr9XcT69K8plh/8yUVflrtNJxAQAAwA/L6MRzkWW2zbyf4yUAAAAAiGZ0NPepuzH0C43IwgIAAAAA0VD6+0chDsvcTxVIZQgAAAAAUYyKn9sXvx2S+TsJLwEAAABADKMTW6g6v0B25mFmfdunzs7OLjaYwQAAAAAiGR3N5fQ+D1k3VQZCkglCxu5l+LsAAAAAEGB0NLcpYr2y9rpzjNyCoqKisiYQ2AUAAACRjE48N2EnJGPL4EsXDgAAAAARjI6fm7pHAdp6qxsvAQAAAEA0o6O5RScMoBVBIHsEAAAAkDM6mvvi4kJotlcVXgIAAACAaL5Wc/vYXz40F5//nSq7JvQt/h4AAAAARPO1mvvIWe9///ufgv66y0+78LcAAAAAIIav1dxPr0pLnzd9YONFAAAAAJAwOvFcAAAAAEgC0FwAAACQHkBzAQAAQHoAzQUAAADpATQXAAAApAWH8/8B6wkBOdv5qpsAAAAASUVORK5CYII=;sketch=1;curveFitting=1;jiggle=2;" vertex="1" parent="1">
          <mxGeometry x="-195" y="2050" width="465" height="285" as="geometry" />
        </mxCell>
        <mxCell id="w7ae5QyoEXNDG0QztSoP-38" value="" style="curved=1;endArrow=classic;html=1;rounded=0;exitX=0;exitY=0.25;exitDx=0;exitDy=0;entryX=0;entryY=0.5;entryDx=0;entryDy=0;dashed=1;sketch=1;curveFitting=1;jiggle=2;strokeColor=#FF0000;" edge="1" parent="1" source="w7ae5QyoEXNDG0QztSoP-35" target="w7ae5QyoEXNDG0QztSoP-36">
          <mxGeometry width="50" height="50" relative="1" as="geometry">
            <mxPoint x="-210" y="1750" as="sourcePoint" />
            <mxPoint x="-210" y="2090" as="targetPoint" />
            <Array as="points">
              <mxPoint x="-430" y="1920" />
            </Array>
          </mxGeometry>
        </mxCell>
        <mxCell id="w7ae5QyoEXNDG0QztSoP-39" value="所以新的Receive()处理了2类消息，&lt;br&gt;1.当接受到远程 Actor终止消息， 再重新将Receive()覆盖，在设置超时时间，再出发一次根据path查找Actor（&lt;b&gt;这里就是把之前的查找Actor整个行为再走一遍&lt;/b&gt;）&lt;br&gt;&lt;br&gt;&lt;div style=&quot;&quot;&gt;&lt;span style=&quot;background-color: initial;&quot;&gt;2.消息转发&lt;/span&gt;&lt;/div&gt;" style="text;html=1;strokeColor=#82b366;fillColor=#d5e8d4;align=left;verticalAlign=middle;whiteSpace=wrap;rounded=0;sketch=1;curveFitting=1;jiggle=2;" vertex="1" parent="1">
          <mxGeometry x="-630" y="1890" width="350" height="110" as="geometry" />
        </mxCell>
      </root>
    </mxGraphModel>
  </diagram>
  <diagram id="CkI4CP_lfkV8jouCjb_o" name="第 6 页">
    <mxGraphModel dx="2618" dy="1504" grid="1" gridSize="10" guides="1" tooltips="1" connect="1" arrows="1" fold="1" page="0" pageScale="1" pageWidth="827" pageHeight="1169" math="0" shadow="0">
      <root>
        <mxCell id="0" />
        <mxCell id="1" parent="0" />
        <mxCell id="OQ2GL-Whi719YoYsKuAk-1" value="从 3个选出 特殊饮品" style="rounded=1;whiteSpace=wrap;html=1;fillColor=#d5e8d4;strokeColor=#82b366;" vertex="1" parent="1">
          <mxGeometry x="-340" y="370" width="200" height="40" as="geometry" />
        </mxCell>
        <mxCell id="OQ2GL-Whi719YoYsKuAk-2" value="Chef" style="text;html=1;align=center;verticalAlign=middle;whiteSpace=wrap;rounded=0;fontStyle=1" vertex="1" parent="1">
          <mxGeometry x="-360" y="340" width="60" height="30" as="geometry" />
        </mxCell>
        <mxCell id="OQ2GL-Whi719YoYsKuAk-3" value="制作" style="rounded=1;whiteSpace=wrap;html=1;fillColor=#d5e8d4;strokeColor=#82b366;" vertex="1" parent="1">
          <mxGeometry x="-340" y="430" width="200" height="40" as="geometry" />
        </mxCell>
        <mxCell id="OQ2GL-Whi719YoYsKuAk-6" value="忙不过来准备饮品" style="rounded=1;whiteSpace=wrap;html=1;fillColor=#f8cecc;strokeColor=#b85450;" vertex="1" parent="1">
          <mxGeometry x="-340" y="500" width="200" height="40" as="geometry" />
        </mxCell>
        <mxCell id="OQ2GL-Whi719YoYsKuAk-7" value="收款并出示收据" style="rounded=1;whiteSpace=wrap;html=1;fillColor=#d5e8d4;strokeColor=#82b366;" vertex="1" parent="1">
          <mxGeometry x="310" y="220" width="200" height="40" as="geometry" />
        </mxCell>
        <mxCell id="OQ2GL-Whi719YoYsKuAk-8" value="&lt;span style=&quot;font-family: 宋体; font-size: 14px&quot;&gt;Cashier&lt;/span&gt;" style="text;html=1;align=center;verticalAlign=middle;whiteSpace=wrap;rounded=0;fontStyle=1" vertex="1" parent="1">
          <mxGeometry x="290" y="190" width="60" height="30" as="geometry" />
        </mxCell>
        <mxCell id="OQ2GL-Whi719YoYsKuAk-9" value="厨房打样，停止营业" style="rounded=1;whiteSpace=wrap;html=1;fillColor=#d5e8d4;strokeColor=#82b366;" vertex="1" parent="1">
          <mxGeometry x="310" y="280" width="200" height="40" as="geometry" />
        </mxCell>
        <mxCell id="OQ2GL-Whi719YoYsKuAk-11" value="打印收据，出现卡纸" style="rounded=1;whiteSpace=wrap;html=1;fillColor=#f8cecc;strokeColor=#b85450;" vertex="1" parent="1">
          <mxGeometry x="310" y="350" width="200" height="40" as="geometry" />
        </mxCell>
        <mxCell id="OQ2GL-Whi719YoYsKuAk-12" value="打印收据并发送给客户" style="rounded=1;whiteSpace=wrap;html=1;fillColor=#d5e8d4;strokeColor=#82b366;" vertex="1" parent="1">
          <mxGeometry x="320" y="500" width="200" height="40" as="geometry" />
        </mxCell>
        <mxCell id="OQ2GL-Whi719YoYsKuAk-13" value="&lt;pre&gt;&lt;span style=&quot;font-size: 14px&quot;&gt;ReceiptPrinter&lt;/span&gt;&lt;/pre&gt;" style="text;html=1;align=center;verticalAlign=middle;whiteSpace=wrap;rounded=0;fontStyle=1" vertex="1" parent="1">
          <mxGeometry x="300" y="470" width="130" height="30" as="geometry" />
        </mxCell>
        <mxCell id="OQ2GL-Whi719YoYsKuAk-16" value="将消息发送给 Chef" style="rounded=1;whiteSpace=wrap;html=1;fillColor=#d5e8d4;strokeColor=#82b366;" vertex="1" parent="1">
          <mxGeometry x="-340" y="210" width="200" height="40" as="geometry" />
        </mxCell>
        <mxCell id="OQ2GL-Whi719YoYsKuAk-17" value="&lt;pre&gt;&lt;span style=&quot;font-size: 14px&quot;&gt;Kitchen&lt;/span&gt;&lt;/pre&gt;" style="text;html=1;align=center;verticalAlign=middle;whiteSpace=wrap;rounded=0;fontStyle=1" vertex="1" parent="1">
          <mxGeometry x="-360" y="180" width="60" height="30" as="geometry" />
        </mxCell>
        <mxCell id="OQ2GL-Whi719YoYsKuAk-20" value="Actor" style="shape=umlActor;verticalLabelPosition=bottom;verticalAlign=top;html=1;outlineConnect=0;" vertex="1" parent="1">
          <mxGeometry x="-460" y="-100" width="30" height="60" as="geometry" />
        </mxCell>
        <mxCell id="OQ2GL-Whi719YoYsKuAk-21" value="" style="rounded=0;whiteSpace=wrap;html=1;" vertex="1" parent="1">
          <mxGeometry x="160" y="-210" width="120" height="60" as="geometry" />
        </mxCell>
      </root>
    </mxGraphModel>
  </diagram>
</mxfile>
